<svg width="95" height="87" viewBox="0 0 95 87" fill="none" xmlns="http://www.w3.org/2000/svg">
<path d="M34.5081 69.7459H5.69785C4.81452 69.7737 3.93735 69.5898 3.13953 69.2097C2.34172 68.8295 1.64638 68.264 1.11155 67.5605C0.598053 66.8082 0.271885 65.944 0.160254 65.04C0.0486235 64.136 0.154766 63.2185 0.469827 62.3639L5.89979 45.9752C6.08665 45.4099 6.49043 44.942 7.02231 44.6743C7.55419 44.4067 8.1706 44.3613 8.73594 44.5482C9.30127 44.735 9.76922 45.1388 10.0368 45.6707C10.3045 46.2026 10.3498 46.819 10.163 47.3843L4.73302 63.773C4.64759 63.9532 4.60327 64.1502 4.60327 64.3496C4.60327 64.5491 4.64759 64.746 4.73302 64.9263C4.8567 65.0492 5.00637 65.1428 5.17101 65.2003C5.33565 65.2578 5.51107 65.2776 5.68439 65.2583H34.5081C35.1032 65.2583 35.6739 65.4947 36.0947 65.9155C36.5155 66.3363 36.7519 66.907 36.7519 67.5021C36.7519 68.0972 36.5155 68.6679 36.0947 69.0887C35.6739 69.5095 35.1032 69.7459 34.5081 69.7459ZM80.8198 44.8848C80.5806 44.8844 80.3428 44.8466 80.1153 44.7726C79.5506 44.5851 79.0835 44.1809 78.8167 43.6491C78.5499 43.1172 78.5053 42.5012 78.6927 41.9364L90.2213 6.97823C90.5668 5.92813 90.1899 5.48386 89.2565 5.48386L26.9196 5.43899C26.0654 5.50629 25.2477 5.81435 24.5615 6.32745C23.8752 6.84055 23.3485 7.53766 23.0423 8.33796L18.5996 21.8456C18.5105 22.1289 18.366 22.3917 18.1745 22.6187C17.983 22.8458 17.7483 23.0325 17.4841 23.1682C17.2199 23.3039 16.9313 23.3857 16.6352 23.409C16.3391 23.4323 16.0414 23.3966 15.7592 23.3039C15.477 23.2112 15.216 23.0634 14.9914 22.8691C14.7667 22.6748 14.5829 22.4378 14.4506 22.1719C14.3182 21.906 14.24 21.6165 14.2204 21.3201C14.2008 21.0238 14.2402 20.7264 14.3364 20.4454L18.7791 6.93784C19.3873 5.24302 20.4872 3.76812 21.9381 2.70173C23.389 1.63534 25.125 1.02592 26.9241 0.951416L89.261 0.996292C90.1434 0.96997 91.0194 1.15451 91.8163 1.5346C92.6132 1.91469 93.3079 2.47936 93.8428 3.18174C94.3563 3.93487 94.6825 4.7998 94.7941 5.7045C94.9057 6.60919 94.7996 7.52747 94.4845 8.38284L82.9514 43.3455C82.8032 43.7937 82.5174 44.1837 82.1347 44.4601C81.752 44.7364 81.2919 44.885 80.8198 44.8848ZM10.9932 39.9484C10.6384 39.9479 10.2887 39.8633 9.97297 39.7014C9.65721 39.5396 9.38433 39.3052 9.17673 39.0174C8.96913 38.7297 8.83273 38.3968 8.77873 38.0461C8.72473 37.6955 8.75466 37.337 8.86608 37.0001L11.3791 29.4161C11.4652 29.1287 11.6081 28.8615 11.7993 28.6303C11.9905 28.3991 12.2261 28.2086 12.4922 28.0701C12.7583 27.9315 13.0495 27.8478 13.3486 27.8237C13.6476 27.7997 13.9485 27.8358 14.2333 27.9301C14.5181 28.0243 14.7811 28.1747 15.0068 28.3724C15.2325 28.57 15.4162 28.811 15.5472 29.0809C15.6782 29.3508 15.7536 29.6443 15.7692 29.9439C15.7848 30.2435 15.7401 30.5431 15.6378 30.8252L13.1248 38.4092C12.9766 38.8574 12.6908 39.2474 12.3081 39.5237C11.9254 39.8001 11.4652 39.9487 10.9932 39.9484Z" fill="#7D9CC0"/>
<path d="M89.2481 19.2876L17.8239 19.2517C17.2288 19.2517 16.6581 19.0153 16.2373 18.5945C15.8165 18.1738 15.5801 17.603 15.5801 17.0079C15.5801 16.4129 15.8165 15.8421 16.2373 15.4213C16.6581 15.0006 17.2288 14.7642 17.8239 14.7642L89.2436 14.8001C89.8387 14.8001 90.4094 15.0365 90.8302 15.4573C91.251 15.878 91.4874 16.4488 91.4874 17.0438C91.4874 17.6389 91.251 18.2097 90.8302 18.6304C90.4094 19.0512 89.8387 19.2876 89.2436 19.2876H89.2481Z" fill="#7D9CC0"/>
<path d="M70.7684 11.6768C71.9107 10.7799 72.3118 9.38432 71.6644 8.55977C71.0169 7.73522 69.566 7.79391 68.4238 8.69087C67.2815 9.58782 66.8803 10.9834 67.5278 11.8079C68.1753 12.6325 69.6261 12.5738 70.7684 11.6768Z" fill="#7D9CC0"/>
<path d="M70.7684 11.6768C71.9107 10.7799 72.3118 9.38432 71.6644 8.55977C71.0169 7.73522 69.566 7.79391 68.4238 8.69087C67.2815 9.58782 66.8803 10.9834 67.5278 11.8079C68.1753 12.6325 69.6261 12.5738 70.7684 11.6768Z" fill="#7D9CC0"/>
<path d="M77.7313 11.6788C78.8736 10.7818 79.2747 9.38627 78.6273 8.56172C77.9798 7.73717 76.5289 7.79587 75.3866 8.69282C74.2444 9.58977 73.8432 10.9853 74.4907 11.8099C75.1381 12.6344 76.589 12.5757 77.7313 11.6788Z" fill="#7D9CC0"/>
<path d="M84.6805 11.6751C85.8228 10.7782 86.2239 9.3826 85.5765 8.55806C84.929 7.73351 83.4781 7.79221 82.3359 8.68916C81.1936 9.58611 80.7924 10.9817 81.4399 11.8062C82.0874 12.6308 83.5382 12.5721 84.6805 11.6751Z" fill="#7D9CC0"/>
<path d="M90.8516 77.9895H36.1795C35.7207 77.9894 35.273 77.8486 34.8967 77.5863C34.5204 77.3239 34.2335 76.9525 34.0748 76.522C32.8341 73.1419 32.205 69.5679 32.217 65.9673C32.217 57.6634 35.5157 49.6996 41.3874 43.8279C47.2591 37.9562 55.2229 34.6575 63.5268 34.6575C71.8306 34.6575 79.7944 37.9562 85.6661 43.8279C91.5379 49.6996 94.8366 57.6634 94.8366 65.9673C94.8431 69.5682 94.2111 73.1418 92.9697 76.522C92.8102 76.9546 92.5213 77.3276 92.1423 77.5901C91.7633 77.8527 91.3127 77.9921 90.8516 77.9895ZM37.7905 73.5019H89.2361C89.9696 71.0578 90.3401 68.5191 90.3355 65.9673C90.3355 58.8536 87.5096 52.0312 82.4795 47.0011C77.4493 41.9709 70.627 39.145 63.5133 39.145C56.3996 39.145 49.5773 41.9709 44.5471 47.0011C39.517 52.0312 36.6911 58.8536 36.6911 65.9673C36.6885 68.519 37.0589 71.0573 37.7905 73.5019Z" fill="#7D9CC0"/>
<path d="M63.5131 42.7173C62.918 42.7173 62.3473 42.4809 61.9265 42.0601C61.5057 41.6393 61.2693 41.0686 61.2693 40.4735V36.8834C61.2693 36.2883 61.5057 35.7176 61.9265 35.2968C62.3473 34.876 62.918 34.6396 63.5131 34.6396C64.1082 34.6396 64.6789 34.876 65.0997 35.2968C65.5205 35.7176 65.7569 36.2883 65.7569 36.8834V40.4735C65.7569 41.0686 65.5205 41.6393 65.0997 42.0601C64.6789 42.4809 64.1082 42.7173 63.5131 42.7173ZM81.5307 50.1801C81.0873 50.18 80.6538 50.0485 80.2851 49.8023C79.9163 49.556 79.6288 49.206 79.4588 48.7964C79.2888 48.3868 79.244 47.9361 79.33 47.5011C79.4161 47.066 79.6291 46.6663 79.9421 46.3522L82.4731 43.8257C82.8963 43.417 83.4631 43.1908 84.0514 43.1959C84.6397 43.2011 85.2025 43.437 85.6185 43.853C86.0345 44.2691 86.2705 44.8318 86.2756 45.4201C86.2807 46.0085 86.0546 46.5752 85.6458 46.9984L83.1148 49.5249C82.6943 49.9444 82.1247 50.18 81.5307 50.1801ZM92.5702 68.2022H88.9801C88.385 68.2022 87.8143 67.9658 87.3935 67.545C86.9727 67.1242 86.7363 66.5535 86.7363 65.9584C86.7363 65.3633 86.9727 64.7926 87.3935 64.3718C87.8143 63.951 88.385 63.7146 88.9801 63.7146H92.5702C93.1653 63.7146 93.736 63.951 94.1568 64.3718C94.5776 64.7926 94.814 65.3633 94.814 65.9584C94.814 66.5535 94.5776 67.1242 94.1568 67.545C93.736 67.9658 93.1653 68.2022 92.5702 68.2022ZM38.0506 68.2022H34.4606C33.8655 68.2022 33.2948 67.9658 32.874 67.545C32.4532 67.1242 32.2168 66.5535 32.2168 65.9584C32.2168 65.3633 32.4532 64.7926 32.874 64.3718C33.2948 63.951 33.8655 63.7146 34.4606 63.7146H38.0506C38.6457 63.7146 39.2164 63.951 39.6372 64.3718C40.058 64.7926 40.2944 65.3633 40.2944 65.9584C40.2944 66.5535 40.058 67.1242 39.6372 67.545C39.2164 67.9658 38.6457 68.2022 38.0506 68.2022ZM45.491 50.1801C44.8971 50.18 44.3274 49.9444 43.9069 49.5249L41.3804 46.9984C40.9717 46.5752 40.7455 46.0085 40.7506 45.4201C40.7558 44.8318 40.9917 44.2691 41.4078 43.853C41.8238 43.437 42.3865 43.2011 42.9749 43.1959C43.5632 43.1908 44.13 43.417 44.5531 43.8257L47.0796 46.3522C47.3927 46.6663 47.6057 47.066 47.6917 47.5011C47.7777 47.9361 47.7329 48.3868 47.563 48.7964C47.393 49.206 47.1055 49.556 46.7367 49.8023C46.3679 50.0485 45.9345 50.18 45.491 50.1801ZM63.5131 71.7743C62.3593 71.7743 61.2314 71.4322 60.272 70.7911C59.3126 70.1501 58.5649 69.239 58.1234 68.173C57.6818 67.107 57.5663 65.934 57.7914 64.8023C58.0165 63.6707 58.5721 62.6312 59.388 61.8153C60.2039 60.9994 61.2433 60.4438 62.375 60.2187C63.5067 59.9936 64.6797 60.1091 65.7457 60.5507C66.8116 60.9922 67.7228 61.74 68.3638 62.6994C69.0048 63.6587 69.347 64.7866 69.347 65.9405C69.347 67.4877 68.7323 68.9716 67.6383 70.0656C66.5442 71.1597 65.0604 71.7743 63.5131 71.7743ZM63.5131 64.6256C63.2469 64.6256 62.9866 64.7046 62.7652 64.8525C62.5438 65.0004 62.3712 65.2107 62.2693 65.4567C62.1674 65.7027 62.1408 65.9734 62.1927 66.2345C62.2447 66.4957 62.3729 66.7356 62.5612 66.9238C62.7495 67.1121 62.9893 67.2403 63.2505 67.2923C63.5116 67.3442 63.7823 67.3176 64.0283 67.2157C64.2743 67.1138 64.4846 66.9412 64.6325 66.7198C64.7804 66.4984 64.8594 66.2382 64.8594 65.9719C64.8594 65.7951 64.8246 65.62 64.7569 65.4567C64.6893 65.2934 64.5901 65.1449 64.4651 65.0199C64.3401 64.8949 64.1917 64.7957 64.0283 64.7281C63.865 64.6604 63.6899 64.6256 63.5131 64.6256Z" fill="#7D9CC0"/>
<path d="M66.52 66.322C66.0324 66.323 65.5578 66.1651 65.1679 65.8722C64.7781 65.5794 64.4942 65.1675 64.3593 64.6989C64.2244 64.2304 64.2458 63.7306 64.4203 63.2753C64.5948 62.82 64.9128 62.4339 65.3263 62.1755L78.3403 54.0081C78.5902 53.8513 78.8685 53.7453 79.1593 53.6961C79.4501 53.6469 79.7478 53.6555 80.0354 53.7213C80.3229 53.7872 80.5946 53.909 80.8351 54.0799C81.0755 54.2507 81.28 54.4673 81.4367 54.7171C81.5935 54.967 81.6995 55.2453 81.7487 55.5361C81.7979 55.827 81.7893 56.1247 81.7235 56.4122C81.6577 56.6997 81.5358 56.9715 81.365 57.2119C81.1941 57.4524 80.9776 57.6568 80.7277 57.8136L67.6913 65.9809C67.3392 66.1991 66.9342 66.317 66.52 66.322ZM24.3413 48.9147H2.60351C2.00842 48.9147 1.43771 48.6783 1.01692 48.2575C0.596124 47.8367 0.359726 47.266 0.359726 46.6709C0.359726 46.0758 0.596124 45.5051 1.01692 45.0843C1.43771 44.6635 2.00842 44.4271 2.60351 44.4271H24.3413C24.9364 44.4271 25.5071 44.6635 25.9279 45.0843C26.3487 45.5051 26.5851 46.0758 26.5851 46.6709C26.5851 47.266 26.3487 47.8367 25.9279 48.2575C25.5071 48.6783 24.9364 48.9147 24.3413 48.9147ZM44.2302 32.3645H2.37465C1.77956 32.3645 1.20884 32.1281 0.788049 31.7073C0.367258 31.2865 0.130859 30.7158 0.130859 30.1207C0.130859 29.5257 0.367258 28.9549 0.788049 28.5341C1.20884 28.1133 1.77956 27.877 2.37465 27.877H44.2302C44.8253 27.877 45.3961 28.1133 45.8168 28.5341C46.2376 28.9549 46.474 29.5257 46.474 30.1207C46.474 30.7158 46.2376 31.2865 45.8168 31.7073C45.3961 32.1281 44.8253 32.3645 44.2302 32.3645ZM24.3413 77.9897H7.09109C6.496 77.9897 5.92528 77.7533 5.50449 77.3325C5.0837 76.9117 4.8473 76.341 4.8473 75.7459C4.8473 75.1508 5.0837 74.5801 5.50449 74.1593C5.92528 73.7385 6.496 73.5021 7.09109 73.5021H24.3413C24.9364 73.5021 25.5071 73.7385 25.9279 74.1593C26.3487 74.5801 26.5851 75.1508 26.5851 75.7459C26.5851 76.341 26.3487 76.9117 25.9279 77.3325C25.5071 77.7533 24.9364 77.9897 24.3413 77.9897ZM59.9412 86.4039H56.4993C55.9042 86.4039 55.3335 86.1675 54.9127 85.7467C54.4919 85.3259 54.2555 84.7552 54.2555 84.1601C54.2555 83.565 54.4919 82.9943 54.9127 82.5735C55.3335 82.1527 55.9042 81.9163 56.4993 81.9163H59.9412C60.5363 81.9163 61.107 82.1527 61.5278 82.5735C61.9486 82.9943 62.185 83.565 62.185 84.1601C62.185 84.7552 61.9486 85.3259 61.5278 85.7467C61.107 86.1675 60.5363 86.4039 59.9412 86.4039ZM48.5877 86.4039H30.6868C30.0917 86.4039 29.5209 86.1675 29.1002 85.7467C28.6794 85.3259 28.443 84.7552 28.443 84.1601C28.443 83.565 28.6794 82.9943 29.1002 82.5735C29.5209 82.1527 30.0917 81.9163 30.6868 81.9163H48.5877C49.1828 81.9163 49.7535 82.1527 50.1743 82.5735C50.5951 82.9943 50.8315 83.565 50.8315 84.1601C50.8315 84.7552 50.5951 85.3259 50.1743 85.7467C49.7535 86.1675 49.1828 86.4039 48.5877 86.4039Z" fill="#7D9CC0"/>
</svg>
