<svg width="27" height="27" viewBox="0 0 27 27" fill="none" xmlns="http://www.w3.org/2000/svg">
<path d="M13.5 0C6.05607 0 0 6.05607 0 13.5C0 20.9439 6.05607 27 13.5 27C20.9439 27 27 20.9439 27 13.5C27 6.05607 20.9439 0 13.5 0ZM13.5 25.7344C6.75395 25.7344 1.26562 20.246 1.26562 13.5C1.26562 6.75395 6.75395 1.26562 13.5 1.26562C20.246 1.26562 25.7344 6.75395 25.7344 13.5C25.7344 20.246 20.246 25.7344 13.5 25.7344ZM13.5 5.35254C9.00745 5.35254 5.35254 9.00751 5.35254 13.5C5.35254 17.9925 9.00745 21.6475 13.5 21.6475C17.9925 21.6475 21.6475 17.9925 21.6475 13.5C21.6475 9.00751 17.9925 5.35254 13.5 5.35254ZM19.7038 10.5226H16.9017C16.7445 9.57793 16.512 8.70681 16.2114 7.95551C16.0698 7.60145 15.915 7.28135 15.7491 6.99595C17.488 7.59897 18.9126 8.88052 19.7038 10.5226ZM20.3818 13.5C20.3818 14.0907 20.307 14.6643 20.1663 15.2118H17.0619C17.1646 14.0729 17.1646 12.9271 17.0619 11.7882H20.1663C20.3098 12.3475 20.3822 12.9226 20.3818 13.5ZM13.5 20.3818C12.9983 20.3818 12.4096 19.6892 11.9636 18.5744C11.7175 17.9593 11.5225 17.2494 11.3825 16.4774H15.6175C15.4774 17.2494 15.2824 17.9593 15.0364 18.5744C14.5904 19.6892 14.0017 20.3818 13.5 20.3818ZM11.2081 15.2118C11.1546 14.6585 11.1267 14.085 11.1267 13.5C11.1267 12.915 11.1546 12.3415 11.2081 11.7882H15.792C15.8455 12.3415 15.8733 12.915 15.8733 13.5C15.8733 14.085 15.8454 14.6585 15.792 15.2118H11.2081ZM6.61816 13.5C6.61816 12.9093 6.69305 12.3357 6.83369 11.7882H9.938C9.83535 12.9271 9.83535 14.0729 9.938 15.2118H6.83369C6.69022 14.6525 6.61781 14.0774 6.61816 13.5ZM13.5 6.61816C14.0017 6.61816 14.5904 7.31078 15.0364 8.42558C15.2825 9.04068 15.4775 9.75064 15.6175 10.5226H11.3825C11.5226 9.75064 11.7176 9.04068 11.9636 8.42558C12.4096 7.31078 12.9983 6.61816 13.5 6.61816ZM11.2508 6.99601C11.0849 7.28135 10.9301 7.60145 10.7885 7.95556C10.488 8.70687 10.2554 9.57799 10.0983 10.5227H7.29617C8.08745 8.88057 9.51196 7.59902 11.2508 6.99601ZM7.29617 16.4774H10.0983C10.2554 17.4221 10.488 18.2932 10.7885 19.0445C10.9301 19.3986 11.0849 19.7186 11.2508 20.004C9.51196 19.401 8.08745 18.1194 7.29617 16.4774ZM15.7492 20.004C15.9151 19.7186 16.0699 19.3986 16.2115 19.0444C16.512 18.2931 16.7446 17.422 16.9017 16.4773H19.7039C18.9126 18.1195 17.488 19.401 15.7492 20.004Z" fill="white"/>
</svg>
