<svg width="90" height="89" viewBox="0 0 90 89" fill="none" xmlns="http://www.w3.org/2000/svg">
<path d="M32.421 57.7694C32.221 58.4694 32.0209 59.1693 31.9009 59.8893C31.8509 60.1693 31.8209 60.4594 31.9009 60.7294C32.0309 61.1794 32.4511 61.4794 32.8511 61.7194C33.5211 62.1194 34.2711 62.4693 35.0411 62.3993C36.2011 62.2893 37.0909 61.2192 37.3409 60.0792C37.5909 58.9392 37.321 57.7493 36.981 56.6393C36.631 55.4793 36.1912 54.3494 35.6812 53.2594C35.3512 52.5594 34.8708 51.9792 34.0508 52.3192C33.5608 52.5292 33.3213 52.8693 33.2413 53.3793C33.1513 53.9193 33.251 54.4892 33.171 55.0392C33.031 55.9592 32.6912 56.8792 32.4312 57.7792" fill="#71D182"/>
<path d="M31.0396 54.6693C30.6296 56.0193 31.4194 57.5192 34.0494 57.8492C36.4194 58.1492 38.6098 57.2392 38.5098 55.8192C38.4498 54.9992 37.8495 54.0792 37.3995 53.3092C36.9595 52.5592 36.5195 51.5792 35.4395 51.0492C35.3795 51.0192 35.3198 50.9994 35.2598 50.9894C34.9998 50.8594 34.5493 50.8392 34.2793 51.0492C33.1193 51.9592 31.4594 53.3093 31.0494 54.6693M34.6294 52.1293C35.1394 52.8993 35.7297 53.6493 36.1197 54.4393C36.2997 54.8093 36.6094 55.2793 36.6094 55.6593C36.6094 57.2593 33.3996 57.1693 32.7696 55.9093C32.1596 54.6993 33.4694 53.2693 34.6294 52.1193" fill="#7D9CC0"/>
<path d="M32.8174 22.7114L33.0776 33.2114C26.9876 33.3614 21.5377 35.9613 17.6377 40.0513L10.0273 32.8113C15.7673 26.7713 23.8176 22.9314 32.8076 22.7114" fill="#F6BB42"/>
<path d="M33.0806 33.2114L32.8203 22.7114C41.8003 22.4914 50.0305 25.9214 56.0605 31.6814L48.8306 39.2912C44.7406 35.4012 39.1706 33.0714 33.0806 33.2214" fill="#8CC152"/>
<path d="M56.0581 31.6814H56.0679C62.1079 37.4314 65.948 45.4614 66.168 54.4614L55.668 54.7214C55.518 48.6314 52.9081 43.1813 48.8281 39.2812L56.0581 31.6714V31.6814Z" fill="#37BC9B"/>
<path d="M10.0402 32.8213L17.6501 40.0613C13.7601 44.1513 11.4303 49.7213 11.5803 55.8113L1.08027 56.0713C0.860268 47.0713 4.29999 38.8513 10.05 32.8113" fill="#E9573F"/>
<path d="M33.0806 33.2114L33.3403 43.7014C30.1503 43.7914 27.2905 45.1513 25.2505 47.2913L17.6406 40.0513C21.5306 35.9613 26.9806 33.3614 33.0806 33.2114Z" fill="#FFCE54"/>
<path d="M41.5898 46.9014L48.8301 39.2913C52.9201 43.1813 55.5199 48.6314 55.6699 54.7314L45.1699 54.9915C45.0899 51.8015 43.7298 48.9414 41.5898 46.9014Z" fill="#48CFAD"/>
<path d="M55.6777 54.7214L66.1777 54.4614C66.3977 63.4514 62.9575 71.6814 57.2075 77.7114L49.5977 70.4714C53.4877 66.3814 55.8175 60.8014 55.6675 54.7214" fill="#4A89DC"/>
<path d="M45.1802 54.9814L55.6802 54.7214C55.8302 60.8014 53.4999 66.3814 49.6099 70.4714L42 63.2314C44.04 61.0914 45.2602 58.1614 45.1802 54.9714" fill="#5D9CEC"/>
<path d="M11.5703 55.8113L22.0703 55.5513C22.1503 58.7313 23.5104 61.5913 25.6504 63.6313L18.4106 71.2515C14.3206 67.3615 11.7203 61.9013 11.5703 55.8113Z" fill="#ED5565"/>
<path d="M49.5981 70.4814L57.208 77.7214C51.458 83.7614 43.4182 87.6013 34.4282 87.8213L34.168 77.3213C40.258 77.1713 45.7079 74.5614 49.6079 70.4814" fill="#967ADC"/>
<path d="M33.3379 43.7114L33.0781 33.2214C39.1681 33.0714 44.7381 35.4013 48.8281 39.2913L41.5879 46.9014C39.4479 44.8614 36.5179 43.6414 33.3379 43.7214V43.7114Z" fill="#A0D468"/>
<path d="M18.4087 71.2515L25.6484 63.6414C27.7884 65.6814 30.7084 66.9013 33.8984 66.8213L34.1587 77.3213C28.0687 77.4713 22.4884 75.1415 18.3984 71.2515" fill="#EC87C0"/>
<path d="M41.9897 63.2415L49.6001 70.4814C45.7101 74.5714 40.2599 77.1713 34.1699 77.3213L33.9102 66.8213C37.0902 66.7413 39.96 65.3815 42 63.2415" fill="#AC92EC"/>
<path d="M11.168 78.8613L18.4082 71.2515C22.4982 75.1415 28.068 77.4713 34.168 77.3213L34.4282 87.8213C25.4382 88.0413 17.2082 84.6013 11.1782 78.8513" fill="#D770AD"/>
<path d="M17.6396 40.0613L25.2495 47.3013C23.2095 49.4413 21.9893 52.3613 22.0693 55.5513L11.5693 55.8113C11.4193 49.7213 13.7496 44.1413 17.6396 40.0513" fill="#FC6E51"/>
<path d="M1.07031 56.0713L11.5703 55.8113C11.7203 61.8913 14.3206 67.3515 18.4106 71.2515L11.1704 78.8613C5.13041 73.1113 1.29031 65.0613 1.07031 56.0813" fill="#DA4453"/>
<path d="M67.2307 54.4414C67.6907 72.9714 52.9804 88.4213 34.4504 88.8713C15.9204 89.3313 0.470501 74.6213 0.0105011 56.0913C-0.449499 37.5613 14.2608 22.1114 32.7908 21.6514C51.3208 21.1914 66.7705 35.9014 67.2205 54.4314M2.1106 56.0313C2.5406 73.4013 17.0209 87.1915 34.3909 86.7615C51.7609 86.3315 65.5508 71.8514 65.1208 54.4814C64.6908 37.1114 50.2106 23.3215 32.8406 23.7515C15.4706 24.1815 1.6806 38.6613 2.1106 56.0313Z" fill="#7D9CC0"/>
<path d="M56.7306 54.7015C57.0506 67.4415 46.9403 78.0615 34.2003 78.3715C21.4603 78.6815 10.8404 68.5814 10.5304 55.8414C10.2204 43.1014 20.3304 32.4815 33.0704 32.1715C45.8104 31.8615 56.4303 41.9615 56.7403 54.7015M12.6305 55.7914C12.9205 67.3714 22.5705 76.5614 34.1505 76.2814C45.7305 76.0014 54.9207 66.3416 54.6407 54.7616C54.3507 43.1816 44.7007 33.9914 33.1207 34.2714C21.5407 34.5614 12.3507 44.2114 12.6407 55.7914" fill="#7D9CC0"/>
<path d="M23.1198 55.5312C23.1298 56.1112 22.6798 56.5912 22.0998 56.6112L1.09977 57.1313C0.519773 57.1413 0.0396947 56.6912 0.0196947 56.1112C0.00969471 55.5312 0.459714 55.0512 1.03971 55.0312L22.0397 54.5114C22.6197 54.5014 23.0998 54.9512 23.1198 55.5312Z" fill="#7D9CC0"/>
<path d="M67.2292 54.4413C67.2392 55.0213 66.7891 55.5012 66.2091 55.5212L45.2091 56.0412C44.6291 56.0512 44.1491 55.6014 44.1291 55.0114C44.1191 54.4314 44.5691 53.9513 45.1491 53.9313L66.1491 53.4113C66.7291 53.4013 67.2092 53.8513 67.2292 54.4313" fill="#7D9CC0"/>
<path d="M26.709 63.6114C26.709 63.8814 26.619 64.1514 26.419 64.3614L11.939 79.5814C11.539 80.0014 10.8688 80.0214 10.4488 79.6214C10.0288 79.2214 10.0092 78.5614 10.4092 78.1414L24.8892 62.9214C25.2892 62.5014 25.9492 62.4814 26.3692 62.8814C26.5792 63.0814 26.6888 63.3514 26.6988 63.6114" fill="#7D9CC0"/>
<path d="M35.4801 87.8012C35.4901 88.3812 35.0401 88.8613 34.4601 88.8813C33.8801 88.8913 33.4 88.4412 33.38 87.8612L32.86 66.8612C32.84 66.2812 33.3 65.8012 33.88 65.7812C34.46 65.7712 34.9401 66.2212 34.9601 66.8012L35.4801 87.8012Z" fill="#7D9CC0"/>
<path d="M33.8683 22.6913L34.3883 43.6913C34.3983 44.2713 33.9481 44.7512 33.3581 44.7712C32.7781 44.7912 32.298 44.3314 32.278 43.7514L31.758 22.7514C31.748 22.1714 32.1982 21.6913 32.7882 21.6713C33.3682 21.6613 33.8483 22.1113 33.8683 22.6913Z" fill="#7D9CC0"/>
<path d="M58.2591 77.6915C58.2591 77.9615 58.169 78.2315 57.969 78.4415C57.569 78.8615 56.9091 78.8815 56.4891 78.4815L41.2693 64.0015C40.8493 63.6015 40.8293 62.9315 41.2293 62.5115C41.6293 62.0915 42.2893 62.0715 42.7093 62.4715L57.9295 76.9515C58.1395 77.1515 58.2491 77.4214 58.2591 77.6814" fill="#7D9CC0"/>
<path d="M26.2981 47.2813C26.2981 47.5513 26.2081 47.8213 26.0081 48.0313C25.6081 48.4513 24.9481 48.4713 24.5281 48.0713L9.3084 33.5814C8.8884 33.1814 8.86836 32.5214 9.26836 32.0914C9.66836 31.6714 10.3283 31.6513 10.7483 32.0513L25.9681 46.5413C26.1781 46.7413 26.2881 47.0113 26.2981 47.2713" fill="#7D9CC0"/>
<path d="M59.8771 23.6114C60.6071 24.2714 60.7774 25.3414 60.8674 26.3314C61.0174 27.9614 61.1671 29.7514 62.3171 30.9114C62.8971 31.5014 63.6772 31.8615 64.4372 32.2115C64.9572 32.4515 65.5672 32.8715 65.4572 33.4315C65.3972 33.7215 65.1572 33.9314 64.9372 34.1214C61.0272 37.4314 57.6074 41.2814 53.9274 44.8614C52.9574 45.8014 51.957 46.7414 50.737 47.3214C49.517 47.9014 48.0273 48.0615 46.8273 47.4415C46.2273 47.1315 45.7173 46.6315 45.0573 46.4415C43.8473 46.0915 42.627 46.8815 41.697 47.7415C41.127 48.2715 40.5674 48.8515 39.8674 49.2115C39.1674 49.5615 38.2674 49.6515 37.6374 49.1815C36.7874 48.5615 36.8071 47.2313 37.3171 46.3113C37.8271 45.3913 38.6972 44.7415 39.4172 43.9815C40.6172 42.7215 41.4473 41.1114 41.7673 39.4014C41.8973 38.7214 41.9574 38.0214 42.1174 37.3514C42.6474 35.1214 44.2673 33.3214 45.8273 31.6414C47.6573 29.6614 49.487 27.6914 51.447 25.8414C52.337 25.0014 53.2574 24.1914 54.1574 23.3814C54.7474 22.8514 55.2974 22.4515 56.1174 22.4215C57.2974 22.3815 58.9671 22.8214 59.8571 23.6214" fill="#71D182"/>
<path d="M60.8601 17.8914C61.2801 17.5114 61.71 17.1315 62.05 16.6815C62.34 16.2915 62.5802 15.8314 63.0002 15.5914C63.4402 15.3514 64 15.4014 64.45 15.6214C64.9 15.8414 65.2701 16.2014 65.6101 16.5714C67.2901 18.4214 68.5404 20.6514 70.4104 22.3014C70.9104 22.7414 71.4604 23.1415 71.8704 23.6615C72.6004 24.5915 72.84 25.8513 72.7 27.0213C72.64 27.4913 72.5202 27.9714 72.2502 28.3614C72.0702 28.6314 71.8301 28.8514 71.5901 29.0814C70.9701 29.6614 70.35 30.2414 69.72 30.8114C68.83 31.6414 67.9304 32.4715 66.9304 33.1615C66.7904 33.2615 66.63 33.3614 66.45 33.3714C66.29 33.3814 66.1302 33.3216 65.9802 33.2516C64.5002 32.5916 63.1 31.7614 61.8 30.7914C61.61 30.6514 61.41 30.4914 61.28 30.2914C61.14 30.0814 61.08 29.8314 61.03 29.5814C60.73 28.2814 60.4302 26.9614 60.4402 25.6214C60.4402 25.3514 60.4601 25.0714 60.3601 24.8214C60.2601 24.5714 60.0503 24.3815 59.8503 24.2015C59.1803 23.5915 58.4002 22.9515 57.5002 22.9815C57.0702 22.9915 55.4204 23.8514 55.1604 23.3214C54.9504 22.8914 56.0002 22.2015 56.2502 21.9715C57.7902 20.6215 59.3201 19.2414 60.8601 17.8814" fill="#F4F4F4"/>
<path d="M70.109 14.4114C71.959 15.8114 73.6192 17.5015 74.7692 19.5115C75.6492 21.0515 76.2192 22.7414 76.7692 24.4214C76.9392 24.9214 77.099 25.4414 77.049 25.9714C76.999 26.5014 76.6693 27.0314 76.1593 27.1614C75.7093 27.2714 75.249 27.0513 74.839 26.8413C73.999 26.4113 73.1392 25.9613 72.4792 25.2913C71.9592 24.7613 71.5793 24.1014 71.1593 23.4814C69.9493 21.7214 68.3293 20.2812 67.1193 18.5212C66.4793 17.5912 65.9393 16.5813 65.1393 15.7913C64.5993 15.2713 63.9592 14.8612 63.4792 14.2812C62.4792 13.0612 62.429 10.3313 64.609 11.1213C66.539 11.8213 68.479 13.1714 70.109 14.4014" fill="#BDBDB5"/>
<path d="M81.7275 1.51137C82.3575 1.56137 83.0076 1.6112 83.5976 1.8412C84.5576 2.2112 85.2973 2.99114 85.9873 3.77114C86.6173 4.49114 87.2473 5.24126 87.5473 6.15126C87.7973 6.92126 87.7973 7.74116 87.7773 8.55116C87.7473 10.0812 87.6675 11.6312 87.1675 13.0812C86.9475 13.7412 86.6274 14.3712 86.1274 14.8612C84.7774 16.1812 82.5976 15.9913 80.8276 16.6713C78.9476 17.3913 77.6274 19.0512 76.1074 20.3612C75.9974 20.4612 75.8673 20.5612 75.7173 20.5712C75.4473 20.6012 75.2474 20.3512 75.0874 20.1312C74.6274 19.4912 74.0775 18.9213 73.4975 18.3913C72.7575 17.7213 71.9575 17.1113 71.2275 16.4213C70.2575 15.4813 69.4377 14.3912 68.6377 13.3112C68.5677 13.2212 68.5073 13.1211 68.5273 13.0211C68.5373 12.9511 68.5974 12.8912 68.6474 12.8412C70.0074 11.5012 72.3675 11.2712 73.2475 9.58119C73.5575 8.99119 73.6175 8.31126 73.7475 7.65126C74.1075 5.75126 74.9976 3.96115 76.2876 2.53115C77.6276 1.04115 79.8875 1.37137 81.7275 1.51137Z" fill="#A4A6A5"/>
<path d="M85.7795 2.27121C82.8895 -0.278789 78.6096 -0.918731 75.4596 1.58127C73.9096 2.81127 73.0195 4.37131 72.8595 6.37131C72.7095 8.33131 72.5495 9.75144 70.8395 11.0014C70.0595 11.5714 69.1896 11.8412 68.3796 12.2912C67.9396 12.0012 67.4895 11.7114 67.0295 11.4514C65.7295 10.7214 64.0497 9.64123 62.4797 10.2912C60.1597 11.2512 61.2295 13.4012 62.7795 15.2912C62.0695 15.9512 61.1694 16.5013 60.4494 17.1213C59.4994 17.9313 58.5295 18.7112 57.6095 19.5512C55.4095 21.5612 53.2297 23.5812 50.9797 25.5412C49.1797 27.1112 47.3996 28.7513 45.6696 30.3913C44.0396 31.9313 41.7497 33.7514 41.0597 35.9914C40.3897 38.1614 41.9994 40.1613 40.5094 42.1313C39.2894 43.7413 36.9798 44.3912 36.3298 46.5212C35.1998 50.2412 39.2998 51.4713 41.6398 49.1113C42.3198 48.4313 42.7896 47.5012 43.6896 47.0512C45.3396 46.2312 46.2196 47.6914 47.4396 48.4614C48.9696 49.4214 50.1394 48.7112 51.4694 47.7812C55.3394 45.0812 58.4296 41.3914 61.9396 38.2514C63.6696 36.7014 65.4795 35.2014 67.2795 33.7114C69.2395 32.0914 72.0695 30.2214 73.3395 27.9714C73.4895 27.7014 73.5996 27.4414 73.6696 27.1814C75.2696 28.2314 77.1999 28.5914 78.1799 26.7614C79.0299 25.1714 77.9496 23.3414 77.2096 21.9414C77.0696 21.6814 76.9195 21.4213 76.7795 21.1613C76.8095 21.1213 76.8395 21.0812 76.8595 21.0212C78.0795 18.3812 80.9398 18.1413 83.3498 17.3213C85.1598 16.7113 86.8499 15.8013 87.9299 14.1613C90.4099 10.4113 88.9997 5.08144 85.8097 2.26145M54.9494 42.5512C53.4694 43.9312 51.7295 46.2214 49.7995 46.9514C47.7295 47.7314 46.3296 44.7914 44.1296 45.1814C43.2696 45.3414 42.4498 46.0213 41.8298 46.6013C40.8498 47.5113 40.2298 48.1112 39.0798 48.8012C38.8598 48.9312 38.6198 49.0712 38.3698 49.0512C37.3898 48.9712 37.7494 47.4313 38.0094 46.8713C38.4094 45.9913 39.2294 45.4313 39.9894 44.8713C40.9594 44.1613 42.0994 43.4113 42.7194 42.3313C43.1494 41.5913 43.2398 40.8014 43.1598 39.9614C42.9598 37.8114 42.2996 36.7113 43.8996 34.8313C45.9796 32.3613 48.5198 30.3113 50.8698 28.1113C52.4398 26.6513 54.0395 25.2312 55.6095 23.7912C57.2495 23.3312 59.0199 23.0013 59.9299 24.8913C60.5999 26.2813 59.9694 28.1714 60.4494 29.6914C61.0594 31.5914 62.8798 33.2314 64.9098 33.4914C61.5198 36.4414 58.2594 39.4812 54.9494 42.5612M70.6799 28.3713C69.5999 29.4813 68.4197 30.5014 67.2297 31.5014C66.9097 31.7714 66.5997 32.0412 66.2897 32.3112C66.2097 32.2112 66.0894 32.1313 65.9494 32.0813C63.6394 31.2113 61.7496 30.5714 61.4396 27.7614C61.2996 26.4514 61.5194 24.9014 60.6994 23.7614C59.7794 22.4714 58.4498 22.1813 57.1198 22.3913C57.3198 22.2013 57.5297 22.0113 57.7297 21.8213C58.9897 20.6013 60.2794 19.4013 61.4894 18.1413C62.1494 17.4513 62.8997 16.8313 63.5197 16.1113C64.4897 17.1713 65.4796 18.0614 65.8996 18.4914C67.5996 20.2414 69.1896 22.0912 70.6696 24.0312C70.8996 24.3412 71.2394 24.6614 71.4894 24.9914C71.5494 25.0914 71.6096 25.1912 71.6896 25.2912C71.6896 25.3012 71.6996 25.3113 71.7096 25.3213C72.5396 26.8813 71.5794 27.4913 70.6994 28.3913M76.5397 26.1914C75.9597 26.6414 74.5097 25.8014 73.4997 24.9614C73.3497 24.6314 73.1696 24.3014 72.9396 23.9814C71.6196 22.0814 70.0694 20.4114 68.5094 18.7214C67.0194 17.1114 65.3096 15.6814 63.9596 13.9514C63.4596 13.3114 62.8094 12.1813 64.2194 11.9013C64.8294 11.7813 65.5798 12.3813 66.0798 12.6513C67.4898 13.4213 68.7196 14.2813 69.8996 15.3813C71.9296 17.2813 73.7794 19.2914 75.1994 21.6814C75.6394 22.4314 77.6197 25.3714 76.5397 26.2014M84.0998 15.2214C82.2598 16.0714 80.0397 16.0212 78.2897 17.0212C77.3997 17.5312 76.3594 18.5214 75.7194 19.5014C74.8094 18.2014 73.7796 16.9913 72.6296 15.8613C71.6796 14.9213 70.6998 14.0314 69.6598 13.2114C70.3498 13.2114 70.9394 13.0314 71.7594 12.5114C73.0894 11.6814 74.0997 10.6313 74.5597 9.09128C74.8297 8.20128 74.6694 7.31134 74.7594 6.40134C74.9094 4.95134 75.5596 3.83141 76.7096 2.97141C78.6996 1.47141 81.2596 1.42128 83.4396 2.59128C87.9496 5.03128 89.3795 12.7814 84.1095 15.2114" fill="#7D9CC0"/>
</svg>
