<svg width="75" height="71" viewBox="0 0 75 71" fill="none" xmlns="http://www.w3.org/2000/svg">
<path d="M70.6545 14.3777C70.1906 13.9122 69.6333 13.5495 69.0191 13.3131C68.4048 13.0768 67.7474 12.9722 67.0898 13.0063C66.4322 13.0403 65.7892 13.2122 65.2029 13.5107C64.6165 13.8091 64.1 14.2275 63.687 14.7384L52.3041 28.4599C50.1053 27.9849 48.1625 28.9612 46.8026 31.2921C46.308 32.1365 45.9725 33.1217 45.8047 34.2211C45.5309 35.9715 44.9834 37.4844 44.118 38.839C43.9767 39.0676 43.959 39.3491 44.0827 39.5866C44.2063 39.8241 44.4536 39.9736 44.7185 39.9824C45.0982 40 45.4779 40 45.84 40C50.2377 40 53.3108 38.9621 54.971 36.9215C56.2603 35.3294 56.331 33.579 56.2427 32.6291L70.213 21.3177C70.7285 20.9107 71.1528 20.4006 71.4585 19.8204C71.7642 19.2402 71.9446 18.6027 71.988 17.9488C72.0851 16.6207 71.5906 15.3189 70.6545 14.3777ZM55.6863 26.7359L58.1413 29.1811L55.6157 31.2218L53.6199 29.2251L55.6863 26.7359ZM53.7965 35.9979C52.4719 37.6163 49.7962 38.4783 46.0254 38.5047C46.6436 37.2733 47.0587 35.9363 47.2883 34.441C47.4295 33.5263 47.7033 32.7171 48.1007 32.0398C48.9661 30.5621 50.0258 29.8232 51.2621 29.8232C51.5624 29.8232 51.8803 29.8672 52.207 29.9552L54.7326 32.4884C54.8209 33.0249 54.9445 34.6082 53.7965 35.9979ZM69.2946 20.1478L69.2857 20.1566L59.307 28.24L56.6401 25.5836L64.8527 15.6883C65.4179 14.9847 66.2568 14.5537 67.1663 14.5009C68.0759 14.4481 68.9502 14.7911 69.586 15.4332C70.2218 16.0753 70.5574 16.9549 70.5044 17.8521C70.4514 18.7493 70.0099 19.5849 69.2946 20.1478Z" fill="#87B5D4"/>
<path d="M37.4459 54.5914C38.1754 54.5914 38.7667 54.0001 38.7667 53.2706C38.7667 52.5411 38.1754 51.9497 37.4459 51.9497C36.7164 51.9497 36.125 52.5411 36.125 53.2706C36.125 54.0001 36.7164 54.5914 37.4459 54.5914Z" fill="#87B5D4"/>
<path d="M23.8021 8.22484C23.8021 7.91787 23.6801 7.62346 23.4631 7.4064C23.246 7.18933 22.9516 7.06738 22.6446 7.06738H7.77465C7.46767 7.06738 7.17327 7.18933 6.9562 7.4064C6.73913 7.62346 6.61719 7.91787 6.61719 8.22484V19.8948C6.61719 20.5348 7.13464 21.0522 7.77465 21.0522H22.6446C23.2846 21.0522 23.8021 20.5348 23.8021 19.8948V8.22484ZM21.4872 18.7237H8.93211V9.36869H21.4872V18.7237ZM23.8021 25.614C23.8021 25.307 23.6801 25.0126 23.4631 24.7955C23.246 24.5785 22.9516 24.4565 22.6446 24.4565H7.77465C7.46767 24.4565 7.17327 24.5785 6.9562 24.7955C6.73913 25.0126 6.61719 25.307 6.61719 25.614C6.61719 25.921 6.73913 26.2154 6.9562 26.4324C7.17327 26.6495 7.46767 26.7715 7.77465 26.7715H22.6446C23.2846 26.7715 23.8021 26.254 23.8021 25.614ZM7.77465 29.6583C7.46767 29.6583 7.17327 29.7802 6.9562 29.9973C6.73913 30.2144 6.61719 30.5088 6.61719 30.8158C6.61719 31.1227 6.73913 31.4171 6.9562 31.6342C7.17327 31.8513 7.46767 31.9732 7.77465 31.9732H18.219C18.526 31.9732 18.8204 31.8513 19.0375 31.6342C19.2545 31.4171 19.3765 31.1227 19.3765 30.8158C19.3765 30.5088 19.2545 30.2144 19.0375 29.9973C18.8204 29.7802 18.526 29.6583 18.219 29.6583H7.77465ZM43.901 25.614C43.901 25.307 43.7791 25.0126 43.562 24.7955C43.345 24.5785 43.0506 24.4565 42.7436 24.4565H27.8736C27.5666 24.4565 27.2722 24.5785 27.0552 24.7955C26.8381 25.0126 26.7162 25.307 26.7162 25.614C26.7162 25.921 26.8381 26.2154 27.0552 26.4324C27.2722 26.6495 27.5666 26.7715 27.8736 26.7715H42.7436C43.3836 26.7715 43.901 26.254 43.901 25.614ZM27.8736 29.6583C27.5666 29.6583 27.2722 29.7802 27.0552 29.9973C26.8381 30.2144 26.7162 30.5088 26.7162 30.8158C26.7162 31.1227 26.8381 31.4171 27.0552 31.6342C27.2722 31.8513 27.5666 31.9732 27.8736 31.9732H38.318C38.625 31.9732 38.9194 31.8513 39.1364 31.6342C39.3535 31.4171 39.4755 31.1227 39.4755 30.8158C39.4755 30.5088 39.3535 30.2144 39.1364 29.9973C38.9194 29.7802 38.625 29.6583 38.318 29.6583H27.8736ZM43.901 8.22484C43.901 7.91787 43.7791 7.62346 43.562 7.4064C43.345 7.18933 43.0506 7.06738 42.7436 7.06738H27.8736C27.5666 7.06738 27.2722 7.18933 27.0552 7.4064C26.8381 7.62346 26.7162 7.91787 26.7162 8.22484V19.8948C26.7162 20.5348 27.2336 21.0522 27.8736 21.0522H42.7436C43.3836 21.0522 43.901 20.5348 43.901 19.8948V8.22484ZM41.5861 18.7237H29.0311V9.36869H41.5861V18.7237Z" fill="#87B5D4"/>
<path d="M74.8945 26.8122C74.8945 26.6602 74.8646 26.5097 74.8064 26.3693C74.7482 26.2289 74.663 26.1013 74.5555 25.9938C74.448 25.8863 74.3204 25.8011 74.18 25.7429C74.0396 25.6847 73.8891 25.6548 73.7371 25.6548C73.5851 25.6548 73.4345 25.6847 73.2941 25.7429C73.1537 25.8011 73.0261 25.8863 72.9186 25.9938C72.8111 26.1013 72.7259 26.2289 72.6677 26.3693C72.6095 26.5097 72.5796 26.6602 72.5796 26.8122V47.3333H2.31492V6.89029C2.31492 4.37112 4.3575 2.31492 6.87668 2.31492H68.0042C68.4672 2.31492 68.9438 2.39662 69.4749 2.58726C70.074 2.79152 70.7413 2.46471 70.9455 1.86555C71.1498 1.2664 70.823 0.599156 70.2238 0.394898C69.4476 0.136172 68.7259 0 68.0042 0H6.87668C3.0911 0 0 3.0911 0 6.89029V52.29C0 56.0892 3.0911 59.1803 6.87668 59.1803H28.2693L26.499 63.4016H21.4198C20.4298 63.4281 19.4893 63.84 18.7984 64.5496C18.1076 65.2592 17.721 66.2104 17.721 67.2008C17.721 68.1912 18.1076 69.1424 18.7984 69.852C19.4893 70.5616 20.4298 70.9735 21.4198 71H53.4883C54.4783 70.9735 55.4188 70.5616 56.1097 69.852C56.8005 69.1424 57.1871 68.1912 57.1871 67.2008C57.1871 66.2104 56.8005 65.2592 56.1097 64.5496C55.4188 63.84 54.4783 63.4281 53.4883 63.4016H48.4091L46.6389 59.1803H68.0178C71.8034 59.1803 74.8945 56.1028 74.8945 52.3172V48.4908V26.8122ZM54.9726 67.2144C54.9726 68.0315 54.3053 68.6987 53.4883 68.6987H21.4198C20.6028 68.6987 19.9356 68.0315 19.9356 67.2144C19.9356 66.3974 20.6028 65.7301 21.4198 65.7301H53.4883C54.3053 65.7301 54.9726 66.3974 54.9726 67.2144ZM45.8899 63.4152H29.0046L30.7748 59.1939H44.1197L45.8899 63.4152ZM72.5796 52.3308C72.5796 54.8364 70.537 56.879 68.0178 56.879H6.87668C4.3575 56.879 2.31492 54.8228 2.31492 52.3036V49.6619H72.5796V52.3308Z" fill="#87B5D4"/>
</svg>
