<svg width="59" height="87" viewBox="0 0 59 87" fill="none" xmlns="http://www.w3.org/2000/svg">
<path d="M18.6211 40.22C18.6211 40.8 18.9414 41.3301 19.4614 41.6001L27.9312 45.98V36.6501L18.6211 31.99V40.22ZM21.3516 36.4001L25.2114 38.3301V41.5L21.3516 39.5V36.3901V36.4001Z" fill="#7D9CC0"/>
<path d="M28.769 24.9799L20.2891 29.36L29.479 33.9599L38.6689 29.36L30.189 24.9799C29.739 24.7499 29.209 24.7499 28.769 24.9799ZM29.479 30.9201L26.2988 29.33L29.479 27.6901L32.6587 29.33L29.479 30.9201Z" fill="#7D9CC0"/>
<path d="M31.0391 45.98L39.5088 41.6001C40.0288 41.3301 40.3491 40.8 40.3491 40.22V31.99L31.0391 36.6501V45.98ZM33.769 38.3401L37.6289 36.4102V39.52L33.769 41.52V38.3501V38.3401Z" fill="#7D9CC0"/>
<path d="M41.9014 18.6201H56.7812L40.3516 2.19019V17.0701C40.3516 17.9301 41.0514 18.6201 41.9014 18.6201ZM43.0713 8.77002L50.2012 15.9001H43.0713V8.77002Z" fill="#7D9CC0"/>
<path d="M37.25 17.0701V0H1.5498C0.689805 0 0 0.700049 0 1.55005V85.3701C0 86.2301 0.699805 86.9202 1.5498 86.9202H57.4297C58.2897 86.9202 58.98 86.2201 58.98 85.3701V21.73H41.9097C39.3397 21.73 37.26 19.6401 37.25 17.0701ZM40.9399 27.03C41.7699 27.46 42.4496 28.13 42.8896 28.96V28.98L42.9097 29C43.2697 29.67 43.46 30.4202 43.46 31.1702V40.22C43.46 41.96 42.4899 43.5601 40.9399 44.3601L31.6299 49.1702C30.2899 49.8602 28.7001 49.8602 27.3501 49.1702L18.04 44.3601C16.49 43.5601 15.52 41.97 15.52 40.22V31.1702C15.52 30.4102 15.7098 29.67 16.0698 29V28.98L16.0898 28.96C16.5298 28.13 17.21 27.46 18.04 27.03L27.3501 22.22C28.6901 21.53 30.2799 21.53 31.6299 22.22L40.9399 27.03ZM56.2598 84.1902H2.72998V2.71997H34.5298V17.0701C34.5298 18.6701 35.0399 20.1501 35.9199 21.3601L32.8896 19.79C31.8396 19.25 30.67 18.97 29.5 18.97C28.33 18.97 27.1599 19.25 26.1099 19.79L16.79 24.6001C15.52 25.2601 14.49 26.25 13.79 27.48L13.6196 27.71L13.5498 27.9402C13.0598 28.9302 12.8098 30.0401 12.7998 31.1501V40.21C12.7998 42.98 14.3298 45.5 16.7998 46.77L26.1099 51.5801C27.1499 52.1201 28.32 52.4001 29.5 52.4001C30.68 52.4001 31.8496 52.1101 32.8896 51.5801L42.21 46.77C44.68 45.5 46.2097 42.98 46.1997 40.21V31.1602C46.1997 30.0702 45.9497 28.99 45.4897 28.01L45.4199 27.75L45.1997 27.46C44.4997 26.24 43.47 25.2501 42.21 24.6001L41.8999 24.4402H56.27V84.1802L56.2598 84.1902Z" fill="#7D9CC0"/>
<path d="M6.58203 58.98C6.58203 60.2 7.09188 61.3001 7.92188 62.0801C7.89188 62.1101 7.86203 62.1302 7.83203 62.1602C7.04203 62.9502 6.58203 64.0602 6.58203 65.1902C6.58203 66.3102 7.0418 67.42 7.8418 68.21C7.8618 68.24 7.89188 68.26 7.92188 68.29C7.10188 69.07 6.5918 70.1701 6.5918 71.3901C6.5918 73.7501 8.51158 75.6702 10.8716 75.6702H48.1216C50.4816 75.6702 52.4019 73.7501 52.4019 71.3901C52.4019 70.1701 51.892 69.07 51.062 68.28C51.882 67.5 52.4019 66.4002 52.4019 65.1802C52.4019 63.9602 51.892 62.8601 51.062 62.0801C51.882 61.3001 52.4019 60.19 52.4019 58.98C52.4019 56.62 50.4816 54.7002 48.1216 54.7002H10.8716C8.51158 54.7002 6.5918 56.62 6.5918 58.98M48.1216 72.9502H10.8716C10.0116 72.9502 9.32178 72.2501 9.32178 71.4001C9.32178 70.5501 10.0116 69.8501 10.8716 69.8501H48.1216C48.9816 69.8501 49.6719 70.5401 49.6719 71.4001C49.6719 72.2601 48.9816 72.9502 48.1216 72.9502ZM9.31201 65.1902C9.31201 64.7802 9.47172 64.3801 9.76172 64.0901C10.0517 63.8001 10.4518 63.6401 10.8618 63.6401H34.1416C35.0016 63.6401 35.6919 64.3302 35.6919 65.1902C35.6919 66.0502 35.0016 66.74 34.1416 66.74H10.8618C10.4518 66.74 10.0517 66.58 9.76172 66.29C9.47172 66 9.31201 65.6002 9.31201 65.1902ZM38.8018 65.1902C38.8018 64.3302 39.5021 63.6401 40.3521 63.6401H48.1118C48.9718 63.6401 49.6616 64.3302 49.6616 65.1902C49.6616 66.0502 48.9718 66.74 48.1118 66.74H40.3521C39.4921 66.74 38.8018 66.0402 38.8018 65.1902ZM48.1118 57.4302C48.9718 57.4302 49.6616 58.12 49.6616 58.98C49.6616 59.84 48.9718 60.53 48.1118 60.53H10.8618C10.0018 60.53 9.31201 59.84 9.31201 58.98C9.31201 58.12 10.0018 57.4302 10.8618 57.4302H48.1118Z" fill="#7D9CC0"/>
<path d="M25.21 38.3401L21.3398 36.4001V39.51L25.21 41.51V38.3401Z" fill="#7D9CC0"/>
<path d="M26.3008 29.3201L29.481 30.9102L32.6606 29.3201L29.4907 27.6802L26.3008 29.3201Z" fill="#7D9CC0"/>
<path d="M37.6216 36.4001L33.7617 38.3401V41.51L37.6216 39.51V36.4001Z" fill="#7D9CC0"/>
<path d="M43.082 8.77002V15.9001H50.2017L43.082 8.77002Z" fill="#7D9CC0"/>
</svg>
