<svg width="23" height="38" viewBox="0 0 23 38" fill="none" xmlns="http://www.w3.org/2000/svg">
<path d="M19.5901 0H3.38C1.52 0 0.01 1.50988 0 3.37988V33.8291C0 35.6891 1.51 37.2 3.38 37.21H19.5901C21.4501 37.21 22.9601 35.6991 22.9701 33.8291V3.37988C22.9701 1.51988 21.4601 0.01 19.5901 0ZM16.0601 1.34961L15.65 3.37988H7.30005L6.89001 1.34961H16.05H16.0601ZM21.61 33.8291C21.61 34.9491 20.7001 35.8494 19.5801 35.8594H3.37C2.25 35.8594 1.34009 34.9491 1.34009 33.8291V3.37988C1.34009 2.25988 2.25 1.34961 3.37 1.34961H5.52002L6.09009 4.17969C6.15009 4.49969 6.43 4.71973 6.75 4.71973H16.2001C16.5201 4.71973 16.8 4.48969 16.86 4.17969L17.4301 1.34961H19.5801C20.7001 1.34961 21.6 2.25988 21.61 3.37988V33.8291Z" fill="#7D9CC0"/>
<path d="M7.4292 33.1494H3.37915C3.00915 33.1494 2.69922 33.4491 2.69922 33.8291C2.69922 34.2091 2.99915 34.5098 3.37915 34.5098H7.4292C7.7992 34.5098 8.10913 34.2091 8.10913 33.8291C8.10913 33.4491 7.8092 33.1494 7.4292 33.1494Z" fill="#7D9CC0"/>
<path d="M10.1295 33.1494H9.44958C9.07958 33.1494 8.76953 33.4491 8.76953 33.8291C8.76953 34.2091 9.06958 34.5098 9.44958 34.5098H10.1295C10.4995 34.5098 10.7996 34.2091 10.7996 33.8291C10.7996 33.4491 10.4995 33.1494 10.1295 33.1494Z" fill="#7D9CC0"/>
</svg>
