<svg width="99" height="99" viewBox="0 0 99 99" fill="none" xmlns="http://www.w3.org/2000/svg">
<path d="M90.6012 0.656738H7.89973C5.86957 0.65917 3.92326 1.46673 2.48772 2.90227C1.05217 4.33781 0.244619 6.28412 0.242188 8.31428L0.242188 69.5746C0.244619 71.6048 1.05217 73.5511 2.48772 74.9866C3.92326 76.4222 5.86957 77.2297 7.89973 77.2322H36.9984V81.8267C36.9972 83.0449 36.5127 84.2128 35.6513 85.0742C34.79 85.9355 33.622 86.42 32.4039 86.4212H30.8724V86.6387C29.5606 86.9763 28.398 87.7395 27.5665 88.8087C26.7351 89.878 26.2819 91.1928 26.2778 92.5473V97.1418C26.2778 97.548 26.4392 97.9375 26.7264 98.2247C27.0136 98.5119 27.4032 98.6733 27.8093 98.6733H70.6916C71.0978 98.6733 71.4873 98.5119 71.7745 98.2247C72.0617 97.9375 72.2231 97.548 72.2231 97.1418V92.5473C72.2191 91.1928 71.7658 89.878 70.9344 88.8087C70.1029 87.7395 68.9403 86.9763 67.6286 86.6387V86.4212H66.0971C64.8789 86.42 63.711 85.9355 62.8496 85.0742C61.9882 84.2128 61.5037 83.0449 61.5025 81.8267V77.2322H90.6012C92.6314 77.2297 94.5777 76.4222 96.0132 74.9866C97.4487 73.5511 98.2563 71.6048 98.2587 69.5746V8.31428C98.2563 6.28412 97.4487 4.33781 96.0132 2.90227C94.5777 1.46673 92.6314 0.65917 90.6012 0.656738ZM7.89973 3.71976H90.6012C91.8194 3.72097 92.9873 4.20543 93.8487 5.0668C94.71 5.92818 95.1945 7.09611 95.1957 8.31428V61.9171H3.3052V8.31428C3.30642 7.09611 3.79088 5.92818 4.65225 5.0668C5.51363 4.20543 6.68156 3.72097 7.89973 3.71976ZM69.1601 92.5473V95.6103H29.3409V92.5473C29.3417 91.7351 29.6646 90.9565 30.2389 90.3823C30.8131 89.808 31.5918 89.485 32.4039 89.4842H66.0971C66.9092 89.485 67.6878 89.808 68.262 90.3823C68.8363 90.9565 69.1593 91.7351 69.1601 92.5473ZM60.0108 86.4212H38.4901C39.5033 85.1034 40.0554 83.489 40.0614 81.8267V77.2322H58.4395V81.8267C58.4455 83.489 58.9976 85.1034 60.0108 86.4212ZM90.6012 74.1691H7.89973C6.68156 74.1679 5.51363 73.6835 4.65225 72.8221C3.79088 71.9607 3.30642 70.7928 3.3052 69.5746V64.9801H95.1957V69.5746C95.1945 70.7928 94.71 71.9607 93.8487 72.8221C92.9873 73.6835 91.8194 74.1679 90.6012 74.1691Z" fill="#7D9CC0"/>
<path d="M10.9637 68.0431H7.90065C7.49447 68.0431 7.10492 68.2044 6.81771 68.4916C6.5305 68.7788 6.36914 69.1684 6.36914 69.5746C6.36914 69.9807 6.5305 70.3703 6.81771 70.6575C7.10492 70.9447 7.49447 71.1061 7.90065 71.1061H10.9637C11.3698 71.1061 11.7594 70.9447 12.0466 70.6575C12.3338 70.3703 12.4952 69.9807 12.4952 69.5746C12.4952 69.1684 12.3338 68.7788 12.0466 68.4916C11.7594 68.2044 11.3698 68.0431 10.9637 68.0431ZM38.5308 68.0431H15.5582C15.152 68.0431 14.7625 68.2044 14.4753 68.4916C14.188 68.7788 14.0267 69.1684 14.0267 69.5746C14.0267 69.9807 14.188 70.3703 14.4753 70.6575C14.7625 70.9447 15.152 71.1061 15.5582 71.1061H38.5308C38.937 71.1061 39.3265 70.9447 39.6138 70.6575C39.901 70.3703 40.0623 69.9807 40.0623 69.5746C40.0623 69.1684 39.901 68.7788 39.6138 68.4916C39.3265 68.2044 38.937 68.0431 38.5308 68.0431ZM80.5631 32.5611C80.8147 32.729 81.1105 32.8186 81.4131 32.8186C81.7156 32.8186 82.0114 32.729 82.263 32.5611C82.6643 32.2931 92.1336 25.8837 92.1336 17.5033C92.1336 14.66 91.0041 11.9332 88.9936 9.92269C86.9831 7.9122 84.2563 6.78271 81.4131 6.78271C78.5698 6.78271 75.843 7.9122 73.8325 9.92269C71.822 11.9332 70.6925 14.66 70.6925 17.5033C70.6925 25.8837 80.1618 32.2931 80.5631 32.5611ZM81.4131 9.84573C83.4432 9.84816 85.3895 10.6557 86.8251 12.0913C88.2606 13.5268 89.0682 15.4731 89.0706 17.5033C89.0706 22.9478 83.5679 27.7261 81.4131 29.3878C79.2582 27.7261 73.7555 22.9478 73.7555 17.5033C73.7579 15.4731 74.5655 13.5268 76.001 12.0913C77.4366 10.6557 79.3829 9.84816 81.4131 9.84573Z" fill="#7D9CC0"/>
<path d="M86.0076 17.5032C86.0076 16.5945 85.7381 15.7062 85.2333 14.9506C84.7284 14.1951 84.0108 13.6062 83.1713 13.2584C82.3318 12.9107 81.408 12.8197 80.5167 12.997C79.6255 13.1743 78.8068 13.6118 78.1642 14.2544C77.5217 14.897 77.0841 15.7156 76.9068 16.6069C76.7295 17.4981 76.8205 18.4219 77.1683 19.2615C77.516 20.101 78.1049 20.8186 78.8605 21.3234C79.616 21.8283 80.5043 22.0977 81.4131 22.0977C82.6312 22.0965 83.7992 21.6121 84.6605 20.7507C85.5219 19.8893 86.0064 18.7214 86.0076 17.5032ZM79.8816 17.5032C79.8816 17.2003 79.9714 16.9042 80.1397 16.6524C80.3079 16.4005 80.5471 16.2042 80.827 16.0883C81.1068 15.9724 81.4148 15.942 81.7118 16.0011C82.0089 16.0602 82.2818 16.2061 82.496 16.4203C82.7102 16.6345 82.856 16.9074 82.9151 17.2044C82.9742 17.5015 82.9439 17.8095 82.828 18.0893C82.7121 18.3691 82.5158 18.6083 82.2639 18.7766C82.0121 18.9449 81.716 19.0347 81.4131 19.0347C81.007 19.0343 80.6177 18.8728 80.3306 18.5857C80.0434 18.2986 79.882 17.9093 79.8816 17.5032ZM44.0335 41.1359C43.8925 40.9321 43.7042 40.7656 43.4846 40.6506C43.2651 40.5357 43.0209 40.4757 42.7731 40.4758H25.9265C25.6152 40.4757 25.3112 40.5705 25.0551 40.7475C24.799 40.9246 24.6029 41.1754 24.493 41.4667L18.7192 56.7818C18.6318 57.0136 18.6019 57.2632 18.6321 57.5091C18.6623 57.7551 18.7517 57.99 18.8926 58.1938C19.0336 58.3975 19.2219 58.564 19.4414 58.679C19.6609 58.794 19.9049 58.854 20.1527 58.854H36.9993C37.3106 58.8541 37.6146 58.7593 37.8707 58.5823C38.1268 58.4052 38.3229 58.1544 38.4328 57.8631L44.2066 42.548C44.2941 42.3162 44.3241 42.0666 44.294 41.8206C44.2638 41.5747 44.1745 41.3397 44.0335 41.1359ZM33.1139 43.5389H34.434L33.2777 46.6019H31.9576L33.1139 43.5389ZM35.941 55.7909H22.3657L26.9863 43.5389H29.8395L28.3095 47.5928C28.2221 47.8246 28.1922 48.0742 28.2224 48.3201C28.2526 48.566 28.342 48.8009 28.483 49.0047C28.6239 49.2085 28.8122 49.375 29.0317 49.49C29.2512 49.605 29.4953 49.665 29.743 49.6649H34.3375C34.6486 49.6647 34.9523 49.5698 35.2081 49.3928C35.4639 49.2158 35.6597 48.9651 35.7695 48.674L37.7069 43.5389H40.5601L35.941 55.7909ZM7.90065 46.6019H20.1788C20.5849 46.6019 20.9745 46.4405 21.2617 46.1533C21.5489 45.8661 21.7103 45.4766 21.7103 45.0704C21.7103 44.6642 21.5489 44.2746 21.2617 43.9874C20.9745 43.7002 20.5849 43.5389 20.1788 43.5389H7.90065C7.49447 43.5389 7.10492 43.7002 6.81771 43.9874C6.5305 44.2746 6.36914 44.6642 6.36914 45.0704C6.36914 45.4766 6.5305 45.8661 6.81771 46.1533C7.10492 46.4405 7.49447 46.6019 7.90065 46.6019ZM19.9766 49.6649C19.9766 49.2587 19.8152 48.8692 19.528 48.582C19.2408 48.2947 18.8513 48.1334 18.4451 48.1334H10.9637C10.5575 48.1334 10.1679 48.2947 9.88073 48.582C9.59351 48.8692 9.43216 49.2587 9.43216 49.6649C9.43216 50.0711 9.59351 50.4606 9.88073 50.7478C10.1679 51.0351 10.5575 51.1964 10.9637 51.1964H18.4451C18.8513 51.1964 19.2408 51.0351 19.528 50.7478C19.8152 50.4606 19.9766 50.0711 19.9766 49.6649ZM16.7129 52.7279H14.0267C13.6205 52.7279 13.231 52.8893 12.9437 53.1765C12.6565 53.4637 12.4952 53.8532 12.4952 54.2594C12.4952 54.6656 12.6565 55.0552 12.9437 55.3424C13.231 55.6296 13.6205 55.7909 14.0267 55.7909H16.7129C17.1191 55.7909 17.5087 55.6296 17.7959 55.3424C18.0831 55.0552 18.2445 54.6656 18.2445 54.2594C18.2445 53.8532 18.0831 53.4637 17.7959 53.1765C17.5087 52.8893 17.1191 52.7279 16.7129 52.7279Z" fill="#7D9CC0"/>
<path d="M24.746 37.413H63.0337C65.4708 37.413 67.808 38.3812 69.5313 40.1045C71.2546 41.8277 72.2227 44.165 72.2227 46.6021C72.2227 49.0392 71.2546 51.3765 69.5313 53.0997C67.808 54.823 65.4708 55.7911 63.0337 55.7911H42.7718C42.3656 55.7911 41.9761 55.9525 41.6889 56.2397C41.4017 56.5269 41.2403 56.9165 41.2403 57.3227C41.2403 57.7288 41.4017 58.1184 41.6889 58.4056C41.9761 58.6928 42.3656 58.8542 42.7718 58.8542H63.0337C66.2831 58.8542 69.3995 57.5633 71.6972 55.2656C73.9949 52.9679 75.2857 49.8515 75.2857 46.6021C75.2857 43.3526 73.9949 40.2363 71.6972 37.9386C69.3995 35.6409 66.2831 34.35 63.0337 34.35H24.746C22.715 34.35 20.7673 33.5433 19.3313 32.1072C17.8952 30.6711 17.0884 28.7234 17.0884 26.6925C17.0884 24.6616 17.8952 22.7139 19.3313 21.2778C20.7673 19.8417 22.715 19.0349 24.746 19.0349H66.0814C66.4876 19.0349 66.8771 18.8736 67.1643 18.5864C67.4515 18.2992 67.6129 17.9096 67.6129 17.5034C67.6129 17.0973 67.4515 16.7077 67.1643 16.4205C66.8771 16.1333 66.4876 15.9719 66.0814 15.9719H24.746C21.9027 15.9719 19.1759 17.1014 17.1654 19.1119C15.1549 21.1224 14.0254 23.8492 14.0254 26.6925C14.0254 29.5358 15.1549 32.2626 17.1654 34.2731C19.1759 36.2836 21.9027 37.413 24.746 37.413Z" fill="#7D9CC0"/>
</svg>
