<svg width="63" height="63" viewBox="0 0 63 63" fill="none" xmlns="http://www.w3.org/2000/svg">
<path d="M24.138 2.41016C24.098 4.68016 24.108 6.96022 24.158 9.23022C24.188 10.8002 24.8976 11.44 26.5076 11.5C27.4276 11.53 28.3477 11.5 29.3577 11.5C29.3577 12.58 29.4079 13.4701 29.3479 14.3601C29.2179 16.2101 29.6775 17.8302 30.6775 19.4102C32.3175 22.0002 33.9279 24.6401 35.3279 27.3701C36.4379 29.5401 37.788 30.9302 40.408 30.4502C40.528 30.4302 40.6679 30.5 40.8679 30.55C40.8979 30.88 40.9578 31.2301 40.9578 31.5801C40.9778 32.8701 40.9079 34.1602 41.0379 35.4402C41.0779 35.8802 41.588 36.2802 41.888 36.6902C42.248 36.3602 42.6977 36.0802 42.9177 35.6702C43.0977 35.3602 43.0076 34.8902 43.0076 34.4902C43.0076 33.2102 43.0076 31.92 43.0076 30.5C43.5476 30.47 43.9076 30.4002 44.2576 30.4502C46.1176 30.7202 47.1979 29.87 48.0779 28.26C49.8179 25.05 51.8179 21.98 53.5379 18.76C54.1579 17.6 54.3476 16.1701 54.5476 14.8301C54.7076 13.8001 54.5779 12.72 54.5779 11.5C55.6579 11.5 56.5778 11.53 57.4978 11.5C59.0378 11.45 59.7376 10.81 59.7776 9.30005C59.8276 6.98005 59.8376 4.6601 59.7976 2.3501C59.7676 0.750098 58.9477 0 57.3777 0C47.1277 0 36.8777 0 26.6277 0C24.9677 0 24.158 0.750166 24.138 2.42017M48.6975 23.01C47.8275 24.51 47.0079 26.0502 46.0579 27.4902C45.7779 27.9202 45.1079 28.3001 44.5979 28.3301C42.8679 28.4301 41.128 28.4001 39.388 28.3301C38.928 28.3101 38.2779 28.0602 38.0579 27.7102C36.1679 24.5902 34.3679 21.42 32.5379 18.26C32.4979 18.2 32.5379 18.0902 32.5579 17.9302H51.6477C50.6077 19.7302 49.6475 21.37 48.6975 23.01ZM52.4675 15.7302H31.4978C31.4978 14.5002 31.4579 13.3101 31.5379 12.1301C31.5479 11.9201 32.0677 11.5801 32.3577 11.5801C38.7677 11.5501 45.1879 11.5501 51.5979 11.5801C51.8879 11.5801 52.4077 11.9201 52.4177 12.1401C52.4977 13.3201 52.4578 14.5102 52.4578 15.7402M57.6277 9.31006H26.3176V2.18018H57.6277V9.31006Z" fill="#7D9CC0"/>
<path d="M61.3301 53.59C58.8801 53.49 56.43 53.5299 53.98 53.5499C52.19 53.5699 51.4897 54.29 51.4697 56.09C51.4497 57.64 51.4697 59.1799 51.4697 60.7999H11.71C11.64 60.6299 11.5798 60.5401 11.5698 60.4601C11.5498 59.1701 11.55 57.88 11.54 56.58C11.52 54.19 10.8898 53.5399 8.52979 53.5399C7.36979 53.5399 6.2098 53.5399 5.0498 53.5399C3.7998 53.5399 2.54006 53.45 1.31006 53.6C0.840059 53.65 0.43 54.24 0 54.59C0.43 54.93 0.819805 55.36 1.2998 55.59C1.6298 55.75 2.08975 55.62 2.48975 55.62C4.74975 55.62 7.00971 55.62 9.44971 55.62C9.44971 57.29 9.44971 58.71 9.44971 60.14C9.46971 62.41 10.0201 62.9899 12.3101 62.9999C25.1501 63.0099 37.9898 63.0099 50.8198 62.9999C52.8698 62.9999 53.4898 62.3401 53.5298 60.2401C53.5498 58.7401 53.5298 57.24 53.5298 55.63C56.2598 55.63 58.7898 55.63 61.3198 55.63C62.1098 55.63 63.0501 55.5899 62.8901 54.5499C62.8301 54.1499 61.8901 53.62 61.3301 53.59Z" fill="#7D9CC0"/>
<path d="M20.331 40.1702C20.171 40.6002 20.2606 41.1201 20.2406 41.6001C20.7506 41.6001 21.4606 41.8201 21.7406 41.5701C23.4306 40.0701 24.8406 37.5402 23.7406 35.1602C23.1406 33.8702 22.3308 32.6201 21.3808 31.5601C19.5208 29.4701 19.4008 27.5301 21.2108 25.3901C21.4908 25.0601 21.8409 24.62 21.8109 24.27C21.7709 23.81 21.381 23.3901 21.101 22.8801C20.561 23.2401 20.2509 23.4101 19.9809 23.6401C17.4409 25.8501 17.0908 29.38 19.1508 32.05C19.6708 32.72 20.3007 33.2902 20.8407 33.9402C22.2707 35.6302 22.3908 37.3402 21.1908 39.2002C20.9608 39.5602 20.471 39.8002 20.331 40.1802" fill="#7D9CC0"/>
<path d="M17.3314 52.6001C17.0414 52.9701 17.1915 53.6802 17.1415 54.2202C17.6915 54.1602 18.4013 54.3 18.7513 54.01C21.2713 51.88 21.6613 48.3902 19.7113 45.7202C19.2113 45.0402 18.5811 44.4701 18.0111 43.8401C16.4711 42.1501 16.3412 40.38 17.6312 38.51C17.9312 38.08 18.3412 37.71 18.6112 37.26C18.7712 37 18.8811 36.5901 18.7811 36.3401C18.6811 36.0701 18.3012 35.92 17.8412 35.55C17.1912 36.12 16.4814 36.5301 16.0614 37.1401C13.9214 40.2201 14.2413 42.9802 16.9613 45.7402C19.4313 48.2402 19.4814 49.7901 17.3314 52.5901" fill="#7D9CC0"/>
<path d="M41.0196 51.1702C41.0496 51.6202 41.6596 52.0302 41.9996 52.4602C42.3396 52.0202 42.9594 51.6001 42.9694 51.1501C43.0394 47.4601 43.0393 43.7701 42.9493 40.0901C42.9393 39.6801 42.2698 39.2801 41.9098 38.8701C41.5998 39.2901 41.0594 39.6901 41.0294 40.1201C40.9294 41.9301 40.9894 43.7501 40.9894 45.5701H40.9694C40.9694 47.4401 40.8996 49.3102 41.0196 51.1702Z" fill="#7D9CC0"/>
<path d="M36.4478 57.6801C36.8878 57.6701 37.318 57.0401 37.748 56.6901C37.318 56.3401 36.9078 55.7401 36.4478 55.7001C34.9878 55.5701 33.5179 55.6501 32.0479 55.6501V55.6701C30.5379 55.6701 29.0181 55.5901 27.5181 55.7201C27.0681 55.7601 26.6778 56.4099 26.2578 56.7699C26.6778 57.0799 27.0878 57.6601 27.5078 57.6701C30.4878 57.7501 33.4678 57.7601 36.4478 57.6701" fill="#7D9CC0"/>
<path d="M40.8584 52.55L40.4282 52.1001C40.3182 51.8601 40.2286 51.6001 40.0986 51.3701C38.6386 48.8301 37.2084 46.26 35.6684 43.77C35.4284 43.38 34.6884 43.2901 34.1884 43.0601C34.0184 43.5101 33.5882 44.1101 33.7382 44.3901C35.2482 47.1601 36.8282 49.9001 38.4682 52.5901C38.6482 52.8901 39.3085 52.9902 39.7485 52.9902C40.1185 52.9902 40.4886 52.7101 40.8686 52.5601" fill="#7D9CC0"/>
<path d="M49.7708 43.1501C49.3608 43.0301 48.5706 43.3502 48.3206 43.7202C47.4006 45.0802 46.6309 46.5502 45.8109 47.9702C45.1509 49.1302 44.4409 50.2702 43.8309 51.4502C43.3809 52.3302 43.8109 53.1702 44.7909 53.1602C44.9909 52.9802 45.4109 52.7602 45.6209 52.4102C47.1409 49.8502 48.6109 47.2502 50.1209 44.6802C50.5009 44.0202 50.4708 43.3601 49.7708 43.1501Z" fill="#7D9CC0"/>
<path d="M38.4383 54.12C38.6283 53.93 38.8184 53.74 38.9984 53.56C38.5084 53.35 37.9884 53.1801 37.5184 52.9201C35.9984 52.0701 34.5084 51.19 32.9984 50.33C32.0284 49.78 31.0685 49.2301 30.0985 48.6701C29.4585 48.3001 28.7985 48.1401 28.3685 48.9101C27.9185 49.7001 28.4882 50.1399 29.1082 50.4999C29.4582 50.6999 29.8083 50.9 30.1483 51.1C32.3083 52.34 34.4585 53.61 36.6385 54.82C37.5985 55.36 38.408 55.0101 38.428 54.1401" fill="#7D9CC0"/>
<path d="M47.229 54.7901C49.809 53.4101 52.3491 51.9203 54.8691 50.4303C55.2491 50.2003 55.5088 49.7701 55.7188 49.5401C55.6687 48.5101 54.859 48.1102 53.999 48.5902C51.399 50.0402 48.809 51.5102 46.269 53.0602C45.889 53.2902 45.8389 54.0502 45.6289 54.5702C46.1689 54.6502 46.8388 54.9901 47.2188 54.7801" fill="#7D9CC0"/>
<path d="M24.251 47.3802C24.221 47.6202 24.861 48.1803 25.191 48.1703C25.571 48.1703 25.9407 47.6902 26.6807 47.1502C25.8807 46.7102 25.4209 46.2502 25.0909 46.3302C24.7309 46.4202 24.301 46.9802 24.251 47.3802Z" fill="#7D9CC0"/>
<path d="M41.9501 57.6501C42.3401 57.6501 42.7304 57.2002 43.4804 56.7102C42.7304 56.2202 42.3001 55.71 41.9501 55.76C41.5901 55.82 41.1205 56.38 41.0605 56.78C41.0205 57.04 41.6201 57.6401 41.9501 57.6501Z" fill="#7D9CC0"/>
<path d="M57.848 47.28C57.788 47.51 58.3776 48.1402 58.7176 48.1702C59.0976 48.2102 59.5177 47.7801 60.3177 47.3301C59.5577 46.8001 59.148 46.2901 58.808 46.3301C58.428 46.3801 57.948 46.89 57.848 47.28Z" fill="#7D9CC0"/>
</svg>
