<svg width="40" height="40" viewBox="0 0 40 40" fill="none" xmlns="http://www.w3.org/2000/svg">
<path d="M20 -1.13249e-06C31.0326 -1.13249e-06 40 8.96744 40 20C40 31.0326 31.0326 40 20 40C8.96744 40 -1.13249e-06 31.0326 -1.13249e-06 20C-1.13249e-06 8.96744 8.96744 -1.13249e-06 20 -1.13249e-06ZM20 37.2093C29.4884 37.2093 37.2093 29.4884 37.2093 20C37.2093 10.5116 29.4884 2.7907 20 2.7907C10.5116 2.7907 2.7907 10.5116 2.7907 20C2.7907 29.4884 10.5116 37.2093 20 37.2093Z" fill="white"/>
<path d="M22.3456 12.0442C22.6991 12.0442 23.0526 12.1744 23.3317 12.4535C23.8712 12.993 23.8712 13.886 23.3317 14.4256L17.7503 20.0069L23.3317 25.5883C23.8712 26.1279 23.8712 27.0209 23.3317 27.5604C22.7921 28.1 21.8991 28.1 21.3596 27.5604L14.7921 20.993C14.2526 20.4535 14.2526 19.5604 14.7921 19.0209L21.3596 12.4535C21.6387 12.1744 21.9921 12.0442 22.3456 12.0442Z" fill="white"/>
</svg>
