<svg width="61" height="91" viewBox="0 0 61 91" fill="none" xmlns="http://www.w3.org/2000/svg">
<path d="M10.4219 54.01L8.76172 53.4099V90.74H14.4116L27.4517 76.9299V62.1299L17.2417 65.8501L10.4116 54.02L10.4219 54.01ZM23.1416 75.21L13.0815 85.8601V67.27L15.3218 71.1499L23.1416 68.3101V75.22V75.21Z" fill="#7D9CC0"/>
<path d="M3.62012 45.8501L14.0703 49.6599L19.6304 59.29L30.0801 55.49L40.5303 59.29L46.0903 49.6599L56.5503 45.8501L54.6201 34.8899L60.1802 25.26L51.6602 18.1101L49.73 7.1499H38.6104L30.0903 0L21.5703 7.1499H10.4502L8.52002 18.1101L0 25.26L5.56006 34.8899L3.63037 45.8501H3.62012ZM5.54004 26.24L12.4902 20.4099L14.0703 11.48H23.1401L30.0903 5.6499L37.04 11.48H46.1104L47.6904 20.4199L54.6401 26.25L50.1001 34.1101L51.6802 43.05L43.1504 46.1499L38.6104 54.01L30.0801 50.9099L21.5601 54.01L17.02 46.1499L8.49023 43.05L10.0703 34.1101L5.53027 26.25L5.54004 26.24Z" fill="#7D9CC0"/>
<path d="M47.5396 27.4099L39.1499 16.23L26.6899 25.5701L22.7998 21.03L12.1797 30.1299L24.5898 44.6199L47.5298 27.4099H47.5396ZM22.3296 27.1199L26.0396 31.45L38.2798 22.27L41.4795 26.54L25.2295 38.72L18.2598 30.5901L22.3198 27.1101L22.3296 27.1199Z" fill="#7D9CC0"/>
<path d="M51.5005 90.73V53.3699L49.7607 54L42.9307 65.8301L32.8008 62.1399V76.8999L45.9009 90.72H51.5005V90.73ZM37.1206 68.3201L44.8608 71.1399L47.1807 67.1199V85.8L37.1206 75.1899V68.3301V68.3201Z" fill="#7D9CC0"/>
</svg>
