<svg width="31" height="31" viewBox="0 0 31 31" fill="none" xmlns="http://www.w3.org/2000/svg">
<path d="M15.3289 0C6.91886 0 0.0488281 6.88047 0.0488281 15.2305C0.0488281 17.9805 0.788813 20.62 2.15881 23L0.0488281 30.6699L7.87891 28.5498C10.1489 29.8198 12.6889 30.6699 15.3389 30.6699C23.7489 30.6699 30.7289 23.5805 30.7289 15.2305C30.7289 6.88047 23.7489 0 15.3389 0M15.3888 28.0303C13.0088 28.0303 10.7388 27.2903 8.77881 26.0703L8.29883 25.7998L3.7489 26.96L4.96887 22.5205L4.6488 22.04C3.3788 20.03 2.68884 17.6497 2.68884 15.2197C2.68884 8.23973 8.34886 2.62988 15.3289 2.62988C22.3089 2.62988 28.0688 8.17973 28.0688 15.2197C28.0688 22.2597 22.3089 28.0205 15.3789 28.0205" fill="white"/>
<path d="M23.0495 18.6104L19.7196 17.0801C19.5096 16.9701 19.2396 17.0302 19.0796 17.2402L17.7596 18.9297C17.6496 19.0397 17.4996 19.09 17.3396 19.04C16.4396 18.72 13.4295 17.4503 11.7895 14.2803C11.7395 14.1203 11.7396 13.9604 11.8396 13.8604L13.1096 12.4297C13.2196 12.2697 13.2696 12.0604 13.2196 11.9004L11.6895 8.45996C11.6395 8.29996 11.4795 8.13965 11.2695 8.13965L10.2596 8.08984C9.93961 8.08984 9.61951 8.19016 9.40951 8.41016C8.92951 8.83016 8.13953 9.62969 7.92953 10.6797C7.55953 12.2697 8.13949 14.1703 9.51949 16.0703C10.8995 17.9703 13.5395 21.0404 18.1895 22.3604C19.6695 22.7804 20.8295 22.5204 21.7895 21.9404C22.5295 21.4604 23.0095 20.7197 23.1695 19.9297L23.3296 19.1904C23.3796 18.9804 23.2795 18.7104 23.0695 18.6104" fill="white"/>
</svg>
