<svg width="25" height="25" viewBox="0 0 25 25" fill="none" xmlns="http://www.w3.org/2000/svg">
<path fill-rule="evenodd" clip-rule="evenodd" d="M21.2554 3.63313C18.9165 1.29152 15.806 0.00136719 12.4922 0C5.66391 0 0.106641 5.55711 0.103906 12.3872C0.102969 14.5706 0.67332 16.702 1.75746 18.5806L0 25L6.56723 23.2773C8.37676 24.2644 10.414 24.7845 12.4871 24.7852H12.4924C19.3199 24.7852 24.8778 19.2276 24.8804 12.3971C24.8818 9.08691 23.5944 5.97461 21.2554 3.63313ZM12.4922 22.693H12.4879C10.6404 22.6922 8.8284 22.1957 7.24727 21.2577L6.87149 21.0345L2.97438 22.0568L4.01453 18.2572L3.76961 17.8677C2.73891 16.2283 2.19461 14.3335 2.19555 12.388C2.1977 6.71094 6.81684 2.09227 12.4963 2.09227C15.2466 2.09316 17.8319 3.16555 19.7758 5.1118C21.7198 7.05805 22.7897 9.64504 22.7888 12.3964C22.7864 18.0738 18.1676 22.693 12.4922 22.693ZM18.1401 14.9813C17.8306 14.8263 16.3087 14.0777 16.0249 13.9743C15.7414 13.871 15.5348 13.8195 15.3286 14.1293C15.1222 14.4391 14.5291 15.1364 14.3484 15.3428C14.1677 15.5495 13.9874 15.5754 13.6778 15.4204C13.3682 15.2655 12.3709 14.9385 11.1885 13.8839C10.2684 13.0632 9.64719 12.0495 9.46652 11.7398C9.28617 11.4297 9.46496 11.2784 9.60231 11.108C9.93738 10.692 10.2729 10.2557 10.3761 10.0493C10.4794 9.84262 10.4277 9.66184 10.3502 9.50695C10.2729 9.35207 9.65391 7.82848 9.39602 7.20852C9.14457 6.6052 8.88957 6.68664 8.69945 6.67723C8.5191 6.6682 8.31266 6.66637 8.10621 6.66637C7.89988 6.66637 7.56449 6.74371 7.2807 7.05379C6.99703 7.36371 6.1975 8.11246 6.1975 9.63605C6.1975 11.1596 7.30664 12.6315 7.46137 12.8381C7.61606 13.0447 9.64414 16.1712 12.7491 17.5119C13.4877 17.8311 14.0641 18.0214 14.5138 18.164C15.2554 18.3996 15.93 18.3664 16.4634 18.2867C17.0582 18.1977 18.2947 17.5378 18.5528 16.8148C18.8107 16.0918 18.8107 15.4721 18.7332 15.3428C18.656 15.2138 18.4495 15.1364 18.1401 14.9813Z" fill="white"/>
</svg>
