<svg width="40" height="40" viewBox="0 0 40 40" fill="none" xmlns="http://www.w3.org/2000/svg">
<path d="M20 40C8.96744 40 0 31.0326 0 20C0 8.96744 8.96744 0 20 0C31.0326 0 40 8.96744 40 20C40 31.0326 31.0326 40 20 40ZM20 2.7907C10.5116 2.7907 2.7907 10.5116 2.7907 20C2.7907 29.4884 10.5116 37.2093 20 37.2093C29.4884 37.2093 37.2093 29.4884 37.2093 20C37.2093 10.5116 29.4884 2.7907 20 2.7907Z" fill="white"/>
<path d="M17.6544 27.9558C17.3009 27.9558 16.9474 27.8256 16.6683 27.5465C16.1288 27.007 16.1288 26.114 16.6683 25.5744L22.2497 19.9931L16.6683 14.4117C16.1288 13.8721 16.1288 12.9791 16.6683 12.4396C17.2079 11.9 18.1009 11.9 18.6404 12.4396L25.2079 19.007C25.7474 19.5465 25.7474 20.4396 25.2079 20.9791L18.6404 27.5465C18.3613 27.8256 18.0079 27.9558 17.6544 27.9558Z" fill="white"/>
</svg>
