<svg width="80" height="85" viewBox="0 0 80 85" fill="none" xmlns="http://www.w3.org/2000/svg">
<path d="M63.3004 39.4796V14.1326C63.3004 13.8765 63.233 13.6248 63.1049 13.403C62.9768 13.1812 62.7926 12.997 62.5708 12.8689L40.6198 0.195642C40.398 0.0674777 40.1464 0 39.8902 0C39.6341 0 39.3824 0.0674777 39.1606 0.195642L17.2095 12.8691C16.9876 12.9971 16.8034 13.1813 16.6753 13.4032C16.5472 13.625 16.4798 13.8767 16.4799 14.1328V39.4797C16.4799 39.7359 16.5473 39.9875 16.6753 40.2094C16.8034 40.4312 16.9877 40.6154 17.2095 40.7434L39.1606 53.4167C39.3862 53.5471 39.6383 53.6123 39.8902 53.6123C40.1421 53.6123 40.3942 53.5471 40.6198 53.4167L62.571 40.7434C62.7928 40.6153 62.977 40.4311 63.105 40.2092C63.233 39.9874 63.3004 39.7357 63.3004 39.4796ZM39.8902 3.14421L58.9229 14.1328L39.8902 25.1212L20.8576 14.1328L39.8902 3.14421ZM19.3984 16.66L38.431 27.6484V49.6254L19.3984 38.637V16.66ZM41.3495 49.6256V27.6484L60.3821 16.66V38.637L41.3495 49.6256ZM16.8173 48.052C15.3284 46.5632 13.2096 46.0795 11.3105 46.6017V33.4841C11.3105 30.3657 8.77366 27.8288 5.65527 27.8288C2.53688 27.8288 0 30.3657 0 33.4841V53.2799C0 54.786 0.589532 56.2048 1.66006 57.2751L12.788 68.4031V83.5414C12.788 83.9284 12.9418 84.2996 13.2154 84.5732C13.4891 84.8469 13.8602 85.0006 14.2473 85.0006H30.8499C31.2369 85.0006 31.6081 84.8469 31.8817 84.5732C32.1554 84.2996 32.3091 83.9284 32.3091 83.5414V64.1483C32.3091 63.7613 32.1554 63.3901 31.8818 63.1164L16.8173 48.052ZM29.3907 82.0821H15.7065V67.7988C15.7065 67.4118 15.5527 67.0406 15.2791 66.7669L3.72361 55.2114C3.2043 54.6923 2.91847 54.0064 2.91847 53.2799V33.4841C2.91847 31.9751 4.14606 30.7473 5.65527 30.7473C7.16449 30.7473 8.39207 31.9749 8.39207 33.4841V48.5325C6.62639 50.7507 6.76794 53.9986 8.81944 56.0499L15.6317 62.8622C15.7671 62.9979 15.9279 63.1055 16.105 63.1788C16.2821 63.2521 16.4719 63.2898 16.6636 63.2895C16.9522 63.2896 17.2343 63.204 17.4743 63.0436C17.7143 62.8833 17.9013 62.6554 18.0118 62.3887C18.1222 62.1221 18.1511 61.8287 18.0948 61.5456C18.0385 61.2625 17.8995 61.0025 17.6954 60.7985L10.8832 53.9862C9.8161 52.9193 9.81592 51.1828 10.8832 50.1157C11.9506 49.0485 13.6871 49.0489 14.7536 50.1157L29.3907 64.7526V82.0821ZM74.1252 27.8288C71.0068 27.8288 68.4697 30.3657 68.4697 33.4841V46.6015C67.9783 46.4676 67.4712 46.4 66.9618 46.4005C65.448 46.4005 64.0278 46.987 62.9629 48.0518L47.8985 63.1163C47.6249 63.39 47.4712 63.7611 47.4711 64.1481V83.5414C47.4711 83.9284 47.6249 84.2996 47.8985 84.5732C48.1722 84.8469 48.5434 85.0006 48.9304 85.0006H65.533C65.92 85.0006 66.2912 84.8469 66.5649 84.5732C66.8385 84.2996 66.9923 83.9284 66.9923 83.5414V68.4033L78.12 57.2753C79.1906 56.205 79.7803 54.7862 79.7803 53.2801V33.4841C79.7805 30.3659 77.2436 27.8288 74.1252 27.8288ZM76.862 53.2801C76.862 54.0064 76.5762 54.6925 76.0567 55.2116L64.5013 66.7671C64.2277 67.0408 64.074 67.4119 64.074 67.799V82.0821H50.3898V64.7526L65.0268 50.1157C66.0937 49.0485 67.8299 49.0481 68.8971 50.1157C69.4108 50.6292 69.6939 51.3167 69.6939 52.0509C69.6939 52.7852 69.4108 53.4725 68.8971 53.986L62.085 60.7983C61.8114 61.0719 61.6576 61.4431 61.6576 61.8301C61.6576 62.2172 61.8114 62.5883 62.085 62.862C62.3587 63.1357 62.7299 63.2894 63.1169 63.2894C63.5039 63.2894 63.8751 63.1357 64.1488 62.862L70.9607 56.0497C72.0257 54.9849 72.6121 53.5647 72.6121 52.0507C72.6121 50.7542 72.1808 49.5269 71.3882 48.5321V33.4841C71.3882 31.9751 72.616 30.7473 74.1252 30.7473C75.6344 30.7473 76.862 31.9749 76.862 33.4841V53.2801Z" fill="#87B5D4"/>
</svg>
