<svg width="31" height="31" viewBox="0 0 31 31" fill="none" xmlns="http://www.w3.org/2000/svg">
<path d="M21.4081 0H9.90808C4.61808 0 0.328125 4.29008 0.328125 9.58008V21.0801C0.328125 26.3701 4.61808 30.6602 9.90808 30.6602H21.4081C26.6981 30.6602 30.9882 26.3701 30.9882 21.0801V9.58008C30.9882 4.29008 26.6981 0 21.4081 0ZM28.1182 21.0801C28.1182 24.7801 25.1081 27.79 21.4081 27.79H9.90808C6.20808 27.79 3.19812 24.7801 3.19812 21.0801V9.58008C3.19812 5.88008 6.20808 2.87012 9.90808 2.87012H21.4081C25.1081 2.87012 28.1182 5.88008 28.1182 9.58008V21.0801Z" fill="white"/>
<path d="M15.6582 7.66016C11.4282 7.66016 7.98828 11.0901 7.98828 15.3301C7.98828 19.5701 11.4182 23 15.6582 23C19.8982 23 23.3282 19.5701 23.3282 15.3301C23.3282 11.0901 19.8982 7.66016 15.6582 7.66016ZM15.6582 20.1201C13.0182 20.1201 10.8683 17.9701 10.8683 15.3301C10.8683 12.6901 13.0182 10.54 15.6582 10.54C18.2982 10.54 20.4482 12.6901 20.4482 15.3301C20.4482 17.9701 18.2982 20.1201 15.6582 20.1201Z" fill="white"/>
<path d="M23.8988 6.07031C24.4588 6.07031 24.9188 6.52984 24.9188 7.08984C24.9188 7.64984 24.4588 8.11035 23.8988 8.11035C23.3388 8.11035 22.8789 7.64984 22.8789 7.08984C22.8789 6.52984 23.3388 6.07031 23.8988 6.07031Z" fill="white"/>
</svg>
