<svg width="18" height="18" viewBox="0 0 18 18" fill="none" xmlns="http://www.w3.org/2000/svg">
<path d="M9 0C4.03724 0 0 4.03724 0 9C0 13.9628 4.03724 18 9 18C13.9628 18 18 13.9628 18 9C18 4.03724 13.9628 0 9 0ZM11.7803 9.53026L8.03025 13.2802C7.96069 13.35 7.87804 13.4053 7.78704 13.443C7.69604 13.4807 7.59849 13.5001 7.49999 13.5C7.40149 13.5001 7.30394 13.4807 7.21294 13.443C7.12194 13.4053 7.03929 13.35 6.96973 13.2802C6.67649 12.987 6.67649 12.513 6.96973 12.2198L10.1895 9L6.96976 5.78025C6.67652 5.48701 6.67652 5.013 6.96976 4.71976C7.263 4.42652 7.73701 4.42652 8.03025 4.71976L11.7803 8.46977C12.0735 8.76301 12.0735 9.23699 11.7803 9.53026Z" fill="#87B5D4"/>
</svg>
