<svg width="20" height="25" viewBox="0 0 20 25" fill="none" xmlns="http://www.w3.org/2000/svg">
<path d="M13.4289 12.4757L10.1836 14.584L16.7265 24.6553L19.9718 22.547L13.4289 12.4757Z" fill="white"/>
<path d="M9.02002 0C4.05002 0 0 4.04001 0 9.01001C0 13.98 4.05002 18.03 9.02002 18.03C13.99 18.03 18.04 13.99 18.04 9.01001C18.04 4.03001 13.99 0 9.02002 0ZM9.02002 14.1599C6.18002 14.1599 3.87 11.85 3.87 9.01001C3.87 6.17001 6.18002 3.86011 9.02002 3.86011C11.86 3.86011 14.17 6.17001 14.17 9.01001C14.17 11.85 11.86 14.1599 9.02002 14.1599Z" fill="white"/>
</svg>
