<svg width="100" height="101" viewBox="0 0 100 101" fill="none" xmlns="http://www.w3.org/2000/svg">
<path d="M94.8371 42.1252C92.1151 42.1252 89.8467 44.3936 89.8467 47.1156V62.238L87.7296 64.6576C87.4271 63.7503 86.8222 62.9942 86.2173 62.3893C84.1002 60.4234 80.7732 60.7258 78.9586 62.8429L70.3388 73.7311C69.5827 74.7897 69.2802 75.9994 69.2802 77.2092V86.7364H67.768C66.8606 86.7364 65.9533 87.4925 65.9533 88.5511V98.6831C65.9533 99.5904 66.7094 100.498 67.768 100.498H90.754C91.6614 100.498 92.5687 99.7416 92.5687 98.6831V88.5511C92.5687 87.6437 91.8126 86.7364 90.754 86.7364H88.6369V84.3168C88.6369 83.5607 88.7881 82.8045 89.2418 82.1996L99.0714 68.7407C99.525 68.1358 99.6763 67.2284 99.6763 66.4723V47.2668C99.8275 44.3936 97.5591 42.1252 94.8371 42.1252ZM89.5442 97.3221H69.129V89.7608H89.5442V97.3221ZM96.803 66.4723C96.803 66.6235 96.803 66.926 96.6518 67.0772L86.8222 80.5362C86.0661 81.746 85.7636 82.9558 85.7636 84.3168V86.7364H72.4559V77.3605C72.4559 76.7556 72.6071 76.1507 72.9096 75.697L81.3781 64.9601C82.1343 64.0527 83.344 64.0527 84.1002 64.8089C85.31 66.0186 85.31 67.5309 84.4026 68.5895L82.8904 70.4041C82.4367 71.009 82.4367 71.9164 83.0416 72.5213C83.6465 73.1262 84.5538 72.975 85.1587 72.3701L92.2663 64.204C92.5687 63.9015 92.7199 63.4478 92.7199 63.1454V47.2668C92.7199 46.2083 93.6273 45.3009 94.6859 45.3009C95.7444 45.3009 96.6518 46.2083 96.6518 47.2668V66.4723H96.803ZM31.9278 86.7364H30.4156V77.3605C30.4156 76.1507 29.9619 74.9409 29.2058 73.7311L20.7372 62.9942C18.9226 60.7258 15.5956 60.4234 13.4785 62.5405C12.7224 63.1454 12.2687 63.7503 11.9662 64.8089L10.0003 62.5405V47.4181C10.0003 44.696 7.73196 42.4277 5.00993 42.4277C2.28789 42.4277 0.0195312 44.696 0.0195312 47.4181V66.6235C0.0195312 67.3797 0.32198 68.1358 0.775652 68.8919L10.454 82.1996C10.9077 82.8045 11.0589 83.5607 11.0589 84.468V86.7364H8.94176C8.03441 86.7364 7.12707 87.4925 7.12707 88.5511V98.6831C7.12707 99.5904 7.88319 100.498 8.94176 100.498H31.9278C32.8352 100.498 33.7425 99.7416 33.7425 98.6831V88.5511C33.7425 87.4925 32.9864 86.7364 31.9278 86.7364ZM12.8736 80.3849L3.19524 67.0772C3.04401 66.926 3.04401 66.7748 3.04401 66.4723V47.2668C3.04401 46.2083 3.95136 45.3009 5.00993 45.3009C6.0685 45.3009 6.97584 46.2083 6.97584 47.2668V62.8429C6.97584 63.1454 7.12707 63.7503 7.42952 63.9015L14.5371 72.0676C15.1419 72.6725 16.0493 72.8237 16.6542 72.2188C17.2591 71.6139 17.4103 70.7066 16.8054 70.1017L15.2932 68.287C14.3858 67.2284 14.3858 65.7162 15.5956 64.5064C16.3517 63.7503 17.7128 63.9015 18.3177 64.6576L26.7862 75.3945C27.0887 75.8482 27.3911 76.6043 27.3911 77.2092V86.7364H14.0834V84.3168C14.0834 82.9558 13.6297 81.5947 12.8736 80.3849ZM30.718 97.3221H10.3028V89.7608H30.718V97.3221ZM18.0152 17.4757V53.1646C18.0152 56.6427 20.8885 59.516 24.3666 59.516H75.6316C79.1098 59.516 81.983 56.6427 81.983 53.1646V17.4757C81.983 17.1732 81.8318 16.8708 81.8318 16.7196L73.6657 2.65571C72.7584 1.2947 71.3973 0.538574 69.7339 0.538574H30.1131C28.6009 0.538574 27.0887 1.2947 26.3325 2.65571L18.1664 16.7196C18.0152 16.8708 18.0152 17.3245 18.0152 17.4757ZM78.8073 53.1646C78.8073 54.9793 77.2951 56.4915 75.4804 56.4915H24.3666C22.5519 56.4915 21.0397 54.9793 21.0397 53.1646V18.9879H38.128V29.1199C38.128 30.0273 38.7329 30.6322 39.6403 30.6322H60.358C61.2653 30.6322 61.8702 30.0273 61.8702 29.1199V18.9879H78.9586V53.1646H78.8073ZM54.7627 3.71428L58.2408 15.8122H41.6062L45.0843 3.71428H54.7627ZM41.0013 18.9879H58.6945V27.6077H41.0013V18.9879ZM70.9437 4.16795L77.7488 15.9634H61.5678L57.9384 3.56306H69.8851C70.1875 3.56306 70.6412 3.86551 70.9437 4.16795ZM28.9033 4.16795C29.2058 3.86551 29.5082 3.56306 30.1131 3.56306H42.0598L38.4305 15.9634H22.0983L28.9033 4.16795Z" fill="#7D9CC0"/>
<path d="M39.0337 40.0081L41.1508 37.891V47.5693C41.1508 48.4767 41.7557 49.0816 42.6631 49.0816C43.5704 49.0816 44.1753 48.4767 44.1753 47.5693V37.891L46.2925 40.0081C46.8974 40.613 47.8047 40.613 48.4096 40.0081C49.0145 39.4032 49.0145 38.4959 48.4096 37.891L43.7217 33.0518C43.1168 32.4469 42.2094 32.4469 41.6045 33.0518L36.9166 37.891C36.3117 38.4959 36.3117 39.4032 36.9166 40.0081C37.5215 40.613 38.4288 40.613 39.0337 40.0081ZM58.2392 33.0518C57.6343 32.4469 56.7269 32.4469 56.122 33.0518L51.4341 37.891C50.8292 38.4959 50.8292 39.4032 51.4341 40.0081C52.039 40.613 52.9463 40.613 53.5512 40.0081L55.6684 37.891V47.5693C55.6684 48.4767 56.2733 49.0816 57.1806 49.0816C58.088 49.0816 58.6928 48.4767 58.6928 47.5693V37.891L60.81 40.0081C61.4149 40.613 62.3222 40.613 62.9271 40.0081C63.532 39.4032 63.532 38.4959 62.9271 37.891L58.2392 33.0518ZM61.1124 50.745H38.7313C37.8239 50.745 37.219 51.3499 37.219 52.2573C37.219 53.1646 37.8239 53.7695 38.7313 53.7695H61.1124C62.0198 53.7695 62.6247 53.1646 62.6247 52.2573C62.6247 51.3499 62.0198 50.745 61.1124 50.745Z" fill="#7D9CC0"/>
</svg>
