<svg width="98" height="105" viewBox="0 0 98 105" fill="none" xmlns="http://www.w3.org/2000/svg">
<path d="M77.7565 48.4957V17.3601C77.7566 17.0455 77.6738 16.7364 77.5164 16.4639C77.3591 16.1914 77.1328 15.9651 76.8603 15.8079L49.8964 0.240321C49.6239 0.0828878 49.3148 0 49.0001 0C48.6854 0 48.3763 0.0828878 48.1039 0.240321L21.1397 15.8081C20.8672 15.9653 20.6409 16.1916 20.4835 16.4641C20.3262 16.7366 20.2434 17.0457 20.2435 17.3604V48.4959C20.2434 48.8105 20.3262 49.1196 20.4836 49.3921C20.6409 49.6646 20.8672 49.8909 21.1397 50.0482L48.1039 65.6157C48.381 65.7759 48.6907 65.8559 49.0001 65.8559C49.3095 65.8559 49.6192 65.7759 49.8964 65.6157L76.8605 50.0482C77.133 49.8908 77.3593 49.6645 77.5165 49.392C77.6738 49.1194 77.7566 48.8103 77.7565 48.4957ZM49.0001 3.86227L72.3793 17.3604L49.0001 30.8582L25.6209 17.3604L49.0001 3.86227ZM23.8284 20.4647L47.2076 33.9626V60.9586L23.8284 47.4607V20.4647ZM50.7926 60.9588V33.9626L74.1718 20.4647V47.4607L50.7926 60.9588ZM20.658 59.0258C18.829 57.1971 16.2263 56.6028 13.8936 57.2443V41.131C13.8936 37.3004 10.7773 34.1842 6.94679 34.1842C3.11624 34.1842 0 37.3004 0 41.131V65.4477C0 67.2977 0.724165 69.0405 2.03918 70.3553L15.7085 84.0245V102.62C15.7085 103.095 15.8973 103.551 16.2335 103.888C16.5696 104.224 17.0256 104.413 17.501 104.413H37.8952C38.3706 104.413 38.8265 104.224 39.1627 103.888C39.4988 103.551 39.6877 103.095 39.6877 102.62V78.7981C39.6877 78.3227 39.4988 77.8668 39.1627 77.5306L20.658 59.0258ZM36.1027 100.828H19.2934V83.2822C19.2934 82.8068 19.1046 82.3509 18.7685 82.0147L4.57398 67.8202C3.93608 67.1826 3.58498 66.3401 3.58498 65.4477V41.131C3.58498 39.2773 5.09291 37.7692 6.94679 37.7692C8.80067 37.7692 10.3086 39.2771 10.3086 41.131V59.616C8.13969 62.3408 8.31356 66.3305 10.8336 68.8502L19.2016 77.2183C19.3679 77.3849 19.5654 77.5171 19.783 77.6072C20.0005 77.6973 20.2337 77.7435 20.4691 77.7432C20.8236 77.7432 21.1702 77.6381 21.465 77.4412C21.7598 77.2442 21.9895 76.9642 22.1252 76.6367C22.2609 76.3092 22.2964 75.9487 22.2272 75.601C22.158 75.2533 21.9873 74.9339 21.7366 74.6832L13.3686 66.3152C12.0578 65.0047 12.0576 62.8716 13.3686 61.5609C14.6798 60.2499 16.8129 60.2503 18.1229 61.5609L36.1027 79.5404V100.828ZM91.0534 34.1842C87.2229 34.1842 84.1064 37.3004 84.1064 41.131V57.2441C83.5028 57.0795 82.8798 56.9965 82.2541 56.9972C80.3946 56.9972 78.6501 57.7176 77.342 59.0256L58.8373 77.5304C58.5012 77.8666 58.3123 78.3225 58.3123 78.7979V102.62C58.3123 103.095 58.5012 103.551 58.8373 103.888C59.1735 104.224 59.6294 104.413 60.1048 104.413H80.499C80.9744 104.413 81.4304 104.224 81.7665 103.888C82.1027 103.551 82.2915 103.095 82.2915 102.62V84.0248L95.9606 70.3555C97.2756 69.0407 98 67.298 98 65.4479V41.131C98.0002 37.3007 94.884 34.1842 91.0534 34.1842ZM94.4153 65.4479C94.4153 66.3401 94.0641 67.1828 93.426 67.8205L79.2318 82.0149C78.8956 82.3511 78.7068 82.8071 78.7068 83.2825V100.828H61.8975V79.5404L79.8773 61.5609C81.1878 60.2499 83.3204 60.2494 84.6314 61.5609C85.2624 62.1916 85.6101 63.0361 85.6101 63.9379C85.6101 64.84 85.2624 65.6843 84.6314 66.315L76.2636 74.683C75.9275 75.0192 75.7386 75.4751 75.7386 75.9505C75.7386 76.4259 75.9275 76.8819 76.2636 77.218C76.5998 77.5542 77.0557 77.743 77.5311 77.743C78.0065 77.743 78.4625 77.5542 78.7987 77.218L87.1662 68.85C88.4745 67.542 89.1949 65.7974 89.1949 63.9377C89.1949 62.3451 88.6649 60.8376 87.6914 59.6156V41.131C87.6914 39.2773 89.1996 37.7692 91.0534 37.7692C92.9073 37.7692 94.4153 39.2771 94.4153 41.131V65.4479Z" fill="#87B5D4"/>
</svg>
