<svg width="73" height="82" viewBox="0 0 73 82" fill="none" xmlns="http://www.w3.org/2000/svg">
<path d="M32.9106 17.0369C32.8406 16.8669 32.8003 16.6868 32.8003 16.4868C32.8003 16.2868 32.8406 16.1068 32.9106 15.9368C33.1206 15.4268 33.6304 15.0769 34.2104 15.0769H1.80029C1.02029 15.0769 0.390625 15.7068 0.390625 16.4868V27.0969C0.390625 27.8769 1.02029 28.5068 1.80029 28.5068C2.58029 28.5068 3.21045 27.8769 3.21045 27.0969V17.897H34.2104C33.6204 17.897 33.1206 17.5369 32.9106 17.0369Z" fill="#7D9CC0"/>
<path d="M1.3999 81.2168H70.75C71.53 81.2168 72.1602 80.5869 72.1602 79.8069V67.0569C72.1602 66.2769 71.53 65.647 70.75 65.647C69.97 65.647 69.3403 66.2769 69.3403 67.0569V78.397H2.82031V63.627L18.0303 48.5969L35.1304 64.2668C35.7104 64.7968 36.6502 64.747 37.1602 64.147L61.7202 35.2568L69.3501 44.157V60.3469C69.3501 61.1269 69.9803 61.7568 70.7603 61.7568C71.5403 61.7568 72.1699 61.1269 72.1699 60.3469V16.5068C72.1699 15.7268 71.5403 15.0969 70.7603 15.0969H38.3501C38.9301 15.0969 39.4399 15.4568 39.6499 15.9568C39.7199 16.1268 39.7603 16.3068 39.7603 16.5068C39.7603 16.7068 39.7199 16.8869 39.6499 17.0569C39.4399 17.5669 38.9301 17.917 38.3501 17.917H69.3501V39.8169L62.79 32.167C62.23 31.517 61.1901 31.517 60.6401 32.167L35.96 61.1968L18.9502 45.6069C18.3902 45.0969 17.54 45.117 17 45.647L2.82031 59.667V33.7769C2.82031 32.9969 2.19016 32.3669 1.41016 32.3669C0.630156 32.3669 0 32.9969 0 33.7769V79.8169C0 80.5969 0.630156 81.2268 1.41016 81.2268" fill="#7D9CC0"/>
<path d="M45.021 31.5669C45.021 26.6369 41.0013 22.6169 36.0713 22.6169C31.1413 22.6169 27.1211 26.6369 27.1211 31.5669C27.1211 36.4969 31.1413 40.5168 36.0713 40.5168C41.0013 40.5168 45.021 36.4969 45.021 31.5669ZM36.0713 37.6868C32.6913 37.6868 29.9512 34.9369 29.9512 31.5669C29.9512 28.1969 32.7013 25.4468 36.0713 25.4468C39.4413 25.4468 42.1909 28.1969 42.1909 31.5669C42.1909 34.9369 39.4413 37.6868 36.0713 37.6868Z" fill="#7D9CC0"/>
<path d="M32.2736 11.6271C32.9136 12.0571 33.8035 11.8769 34.2335 11.2369L34.6837 10.567C34.6837 10.567 34.6637 10.4969 34.6637 10.4569V5.93687C34.6637 5.74687 34.7036 5.55707 34.7736 5.38707C34.9836 4.87707 35.4938 4.52696 36.0738 4.52696C36.6538 4.52696 37.1636 4.88707 37.3736 5.38707C37.4436 5.55707 37.4835 5.73687 37.4835 5.93687V10.4569C37.4835 10.4569 37.4635 10.527 37.4635 10.567L37.9137 11.2369C38.3737 11.9269 39.3635 12.067 40.0035 11.537C40.5435 11.077 40.6636 10.2671 40.2736 9.67711L37.7838 5.93687L40.2736 2.19688C40.7036 1.54688 40.5339 0.666924 39.8839 0.236924C39.2339 -0.193076 38.3535 -0.0229397 37.9235 0.62706L36.0836 3.38707L34.2438 0.62706C33.8138 -0.0229397 32.9338 -0.193076 32.2838 0.236924C31.6338 0.666924 31.4537 1.54688 31.8937 2.19688L34.3839 5.93687L31.8937 9.67711C31.4637 10.3271 31.6338 11.2071 32.2838 11.6371" fill="#7D9CC0"/>
<path d="M37.4922 5.93677C37.4922 5.74677 37.4523 5.55696 37.3823 5.38696C37.1723 4.87696 36.662 4.52686 36.082 4.52686C35.502 4.52686 34.9922 4.88696 34.7822 5.38696C34.7122 5.55696 34.6719 5.73677 34.6719 5.93677V10.4568C34.6719 10.4568 34.6919 10.5269 34.6919 10.5669L36.082 8.47681L37.4722 10.5669C37.4722 10.5669 37.4922 10.4968 37.4922 10.4568V5.93677Z" fill="#7D9CC0"/>
<path d="M36.0729 54.077C36.8529 54.077 37.4825 53.4471 37.4825 52.6671V48.577L40.2628 44.4071C40.6928 43.7571 40.5227 42.8769 39.8727 42.4469C39.2227 42.0169 38.3427 42.187 37.9127 42.837L36.0729 45.597L34.2325 42.837C33.8025 42.197 32.9126 42.0169 32.2726 42.4469C31.6326 42.8769 31.4529 43.7671 31.8829 44.4071L34.6627 48.577V52.6671C34.6627 53.4471 35.2929 54.077 36.0729 54.077Z" fill="#7D9CC0"/>
</svg>
