<svg width="25" height="26" viewBox="0 0 25 26" fill="none" xmlns="http://www.w3.org/2000/svg">
<path fill-rule="evenodd" clip-rule="evenodd" d="M21.2554 3.82355C18.9165 1.48195 15.806 0.191797 12.4922 0.19043C5.66391 0.19043 0.106641 5.74754 0.103906 12.5777C0.102969 14.7611 0.67332 16.8924 1.75746 18.7711L0 25.1904L6.56723 23.4677C8.37676 24.4548 10.414 24.975 12.4871 24.9756H12.4924C19.3199 24.9756 24.8778 19.418 24.8804 12.5876C24.8818 9.27734 23.5944 6.16504 21.2554 3.82355ZM12.4922 22.8834H12.4879C10.6404 22.8826 8.8284 22.3861 7.24727 21.4482L6.87149 21.2249L2.97438 22.2473L4.01453 18.4477L3.76961 18.0581C2.73891 16.4187 2.19461 14.5239 2.19555 12.5784C2.1977 6.90137 6.81684 2.2827 12.4963 2.2827C15.2466 2.28359 17.8319 3.35598 19.7758 5.30223C21.7198 7.24848 22.7897 9.83547 22.7888 12.5868C22.7864 18.2643 18.1676 22.8834 12.4922 22.8834ZM18.1401 15.1718C17.8306 15.0168 16.3087 14.2682 16.0249 14.1647C15.7414 14.0614 15.5348 14.01 15.3286 14.3197C15.1222 14.6295 14.5291 15.3268 14.3484 15.5332C14.1677 15.7399 13.9874 15.7658 13.6778 15.6108C13.3682 15.4559 12.3709 15.1289 11.1885 14.0744C10.2684 13.2536 9.64719 12.24 9.46652 11.9302C9.28617 11.6202 9.46496 11.4688 9.60231 11.2985C9.93738 10.8824 10.2729 10.4461 10.3761 10.2397C10.4794 10.033 10.4277 9.85227 10.3502 9.69738C10.2729 9.5425 9.65391 8.01891 9.39602 7.39895C9.14457 6.79562 8.88957 6.87707 8.69945 6.86766C8.5191 6.85863 8.31266 6.8568 8.10621 6.8568C7.89988 6.8568 7.56449 6.93414 7.2807 7.24422C6.99703 7.55414 6.1975 8.30289 6.1975 9.82648C6.1975 11.3501 7.30664 12.8219 7.46137 13.0285C7.61606 13.2352 9.64414 16.3616 12.7491 17.7023C13.4877 18.0215 14.0641 18.2118 14.5138 18.3545C15.2554 18.59 15.93 18.5568 16.4634 18.4771C17.0582 18.3882 18.2947 17.7282 18.5528 17.0052C18.8107 16.2822 18.8107 15.6625 18.7332 15.5332C18.656 15.4042 18.4495 15.3268 18.1401 15.1718Z" fill="#7D9CC0"/>
</svg>
