<svg width="84" height="96" viewBox="0 0 84 96" fill="none" xmlns="http://www.w3.org/2000/svg">
<path d="M49.2167 10.2772C49.2167 9.73075 49.4337 9.20671 49.8201 8.82033C50.2065 8.43395 50.7306 8.21688 51.277 8.21688H51.7676C52.9055 8.21688 53.8279 9.13921 53.8279 10.2772C53.8279 11.4151 52.9055 12.3375 51.7676 12.3375H51.277C50.7306 12.3375 50.2065 12.1204 49.8201 11.734C49.4337 11.3476 49.2167 10.8236 49.2167 10.2772ZM52.0597 58.1713C52.0597 58.7177 52.2767 59.2417 52.6631 59.6281C53.0495 60.0145 53.5735 60.2316 54.12 60.2316H54.6105C55.7485 60.2316 56.6708 59.3092 56.6708 58.1713C56.6708 57.0333 55.7485 56.111 54.6105 56.111H54.12C53.5735 56.111 53.0495 56.328 52.6631 56.7144C52.2767 57.1008 52.0597 57.6248 52.0597 58.1713ZM54.3654 48.7271C59.5726 48.7271 63.8093 52.9638 63.8093 58.1713C63.8093 62.6712 60.6456 66.4463 56.4257 67.389V73.6452C56.4257 74.1917 56.2086 74.7157 55.8222 75.1021C55.4358 75.4885 54.9118 75.7055 54.3654 75.7055C53.8189 75.7055 53.2949 75.4885 52.9085 75.1021C52.5221 74.7157 52.3051 74.1917 52.3051 73.6452V67.389C48.0849 66.4466 44.921 62.6714 44.921 58.1713C44.921 52.9638 49.1576 48.7271 54.3654 48.7271ZM54.3654 52.8477C51.4299 52.8477 49.0416 55.236 49.0416 58.1713C49.0416 61.1065 51.4299 63.4948 54.3654 63.4948C57.3006 63.4948 59.6887 61.1065 59.6887 58.1713C59.6887 55.236 57.3006 52.8477 54.3654 52.8477ZM21.1831 30.7613C21.1831 25.5538 25.42 21.3172 30.6278 21.3172C35.8355 21.3172 40.0722 25.5538 40.0722 30.7613C40.0722 35.2612 36.9082 39.0364 32.6881 39.9793V46.2353C32.6881 47.3733 31.7657 48.2956 30.6278 48.2956C29.4898 48.2956 28.5675 47.3733 28.5675 46.2353V39.9793C24.3475 39.0366 21.1831 35.2615 21.1831 30.7613ZM25.3037 30.7613C25.3037 33.6968 27.6921 36.0849 30.6278 36.0849C33.5632 36.0849 35.9516 33.6968 35.9516 30.7613C35.9516 27.8259 33.5632 25.4377 30.6278 25.4377C27.6921 25.4377 25.3037 27.8259 25.3037 30.7613ZM42.078 10.2772C42.078 5.06966 46.3146 0.833008 51.5222 0.833008C56.7299 0.833008 60.9666 5.06966 60.9666 10.2772C60.9666 14.7771 57.8026 18.5522 53.5824 19.4952V25.7511C53.5824 26.8891 52.6601 27.8114 51.5222 27.8114C50.3842 27.8114 49.4619 26.8891 49.4619 25.7511V19.4949C45.2419 18.5522 42.078 14.7771 42.078 10.2772ZM46.1986 10.2772C46.1986 13.2126 48.5867 15.6008 51.5222 15.6008C54.4576 15.6008 56.846 13.2126 56.846 10.2772C56.846 7.34171 54.4576 4.9536 51.5222 4.9536C48.5867 4.9536 46.1986 7.34171 46.1986 10.2772ZM76.9222 36.4464L73.4728 35.1978L70.6309 15.7383C70.2928 13.4212 69.0093 11.5019 67.0163 10.3342C66.0342 9.75844 64.7721 10.089 64.1973 11.0704C64.0605 11.3038 63.971 11.5619 63.9339 11.8299C63.8969 12.0979 63.9129 12.3706 63.9813 12.6323C64.0496 12.8941 64.1689 13.1399 64.3322 13.3555C64.4956 13.5712 64.6998 13.7526 64.9333 13.8893C65.8632 14.4344 66.3931 15.2336 66.5536 16.3335L69.5738 37.0134C69.6276 37.3821 69.7804 37.7292 70.0159 38.018C70.2514 38.3067 70.5608 38.5261 70.9111 38.6529L75.5198 40.3211C78.6789 41.4646 78.99 42.253 78.9085 42.8122L73.9505 76.7604C73.7175 78.3564 72.6658 79.3692 70.8242 79.771L39.5743 86.588C39.2964 86.6484 39.0803 86.6027 38.8257 86.4303C38.1467 85.9706 37.5277 84.7802 37.3201 83.5363L37.1536 82.5384C37.1041 82.2403 36.9895 81.9567 36.8181 81.7078C36.6466 81.4589 36.4225 81.2508 36.1616 81.0983C35.9008 80.9457 35.6095 80.8524 35.3085 80.825C35.0075 80.7977 34.7042 80.8368 34.4201 80.9398L6.80915 90.9332C6.41609 91.076 5.92093 90.6994 5.77831 90.5809C5.12222 90.0342 4.70879 89.1329 4.81707 88.4842L14.3904 31.1475C14.6234 29.7506 15.385 28.4254 16.1242 28.1303C16.3755 28.0301 16.6046 27.8813 16.7983 27.6925C16.9921 27.5037 17.1468 27.2786 17.2536 27.03C17.3603 26.7814 17.4171 26.5142 17.4205 26.2437C17.424 25.9731 17.3742 25.7046 17.2739 25.4533C16.8519 24.3964 15.6531 23.8806 14.5968 24.3037C12.0357 25.3258 10.7111 28.1592 10.3261 30.4694L0.752794 87.8056C0.400942 89.9138 1.33883 92.2458 3.14182 93.7473C4.20379 94.6316 5.41158 95.0899 6.61067 95.0899C7.1507 95.0899 7.68935 94.997 8.21175 94.8079L33.5921 85.6215C34.1628 87.4314 35.2046 88.9551 36.5147 89.8424C37.7065 90.6493 39.0681 90.9158 40.452 90.6141L71.7018 83.797C75.2369 83.026 77.5428 80.6782 78.0274 77.3558L82.9854 43.4079C83.647 38.8807 78.7613 37.1123 76.9222 36.4464ZM30.3833 32.8216H30.8734C32.0114 32.8216 32.9337 31.8993 32.9337 30.7613C32.9337 29.6234 32.0114 28.701 30.8734 28.701H30.3833C29.2453 28.701 28.323 29.6234 28.323 30.7613C28.323 31.8993 29.2453 32.8216 30.3833 32.8216ZM26.5056 17.5155C26.6185 17.5344 26.7328 17.5438 26.8474 17.5438C27.8361 17.5438 28.709 16.8301 28.877 15.8226L29.9229 9.55813C30.1308 8.31348 30.7498 7.12332 31.4288 6.66342C31.6836 6.49127 31.9006 6.44548 32.1776 6.50592L37.2809 7.61916C38.393 7.86251 39.4905 7.15697 39.7329 6.04533C39.9756 4.93368 39.2707 3.836 38.1591 3.59335L33.0559 2.4801C31.6719 2.17838 30.31 2.44485 29.1185 3.2518C27.4806 4.36092 26.2618 6.46471 25.8589 8.87938L24.8129 15.1438C24.6254 16.2662 25.3832 17.3282 26.5056 17.5155Z" fill="#7D9CC0"/>
</svg>
