<svg width="23" height="23" viewBox="0 0 23 23" fill="none" xmlns="http://www.w3.org/2000/svg">
<path d="M17.4863 15.1972C16.733 14.4559 15.8004 14.4559 15.0472 15.1972C14.4733 15.7592 13.9113 16.321 13.3494 16.8949C13.194 17.0504 13.0624 17.0866 12.8831 16.979C12.5124 16.7757 12.1179 16.62 11.7711 16.3928C10.1211 15.3526 8.7342 14.0252 7.51464 12.5187C6.90487 11.7774 6.36679 10.9774 5.98419 10.0807C5.91245 9.90135 5.92441 9.78076 6.06789 9.62532C6.6418 9.07533 7.19176 8.51408 7.75371 7.95212C8.53088 7.163 8.53088 6.25422 7.75371 5.46509C7.31133 5.01075 6.86894 4.58018 6.4146 4.12583C5.96026 3.67149 5.50595 3.20472 5.03965 2.75038C4.2864 2.02103 3.35375 2.02103 2.6005 2.75038C2.02659 3.31233 1.4766 3.8981 0.890735 4.4481C0.352696 4.96222 0.0777209 5.58461 0.0179388 6.31395C-0.0777126 7.5096 0.22121 8.63303 0.627728 9.72107C1.46468 11.9928 2.75599 14.0016 4.31033 15.8429C6.41466 18.3418 8.91354 20.3154 11.8429 21.7382C13.1581 22.3839 14.533 22.8735 16.0156 22.9572C17.0439 23.017 17.9287 22.7541 18.6461 21.9531C19.1363 21.4031 19.6863 20.9122 20.2004 20.3861C20.9656 19.6089 20.9656 18.6771 20.2004 17.9119C19.2917 17.0032 18.383 16.0942 17.4624 15.1855" fill="#7D9CC0"/>
<path d="M16.5775 11.3948L18.3471 11.0959C18.0721 9.4698 17.3068 8.01046 16.1471 6.83873C14.9155 5.60722 13.3612 4.84215 11.6514 4.59106L11.4004 6.36118C12.7276 6.54052 13.9351 7.13858 14.8797 8.09509C15.7764 8.99182 16.3623 10.1277 16.5775 11.3831" fill="#7D9CC0"/>
<path d="M19.3407 3.71887C17.3082 1.68628 14.7256 0.394562 11.8799 0L11.6289 1.77011C14.0919 2.11685 16.3158 3.22814 18.0734 4.98574C19.7473 6.65964 20.8353 8.76467 21.2299 11.0842L22.9994 10.7853C22.5331 8.09511 21.2657 5.65581 19.3407 3.71887Z" fill="#7D9CC0"/>
</svg>
