<svg width="100" height="95" viewBox="0 0 100 95" fill="none" xmlns="http://www.w3.org/2000/svg">
<path d="M94.3394 19.1972C93.72 18.5757 92.9759 18.0913 92.1558 17.7758C91.3356 17.4602 90.4578 17.3206 89.5798 17.3661C88.7017 17.4115 87.8432 17.641 87.0603 18.0395C86.2774 18.438 85.5877 18.9966 85.0363 19.6788L69.8378 37.9999C66.9018 37.3657 64.3078 38.6693 62.492 41.7815C61.8317 42.909 61.3837 44.2243 61.1596 45.6924C60.7941 48.0295 60.0631 50.0495 58.9076 51.8581C58.7189 52.1635 58.6953 52.5393 58.8604 52.8564C59.0255 53.1735 59.3556 53.3731 59.7093 53.3849C60.2164 53.4084 60.7234 53.4084 61.2068 53.4084C67.0787 53.4084 71.1819 52.0225 73.3986 49.2979C75.1201 47.1721 75.2145 44.835 75.0965 43.5667L93.7499 28.4635C94.4382 27.9201 95.0048 27.2391 95.4129 26.4644C95.8211 25.6897 96.0619 24.8384 96.1198 23.9654C96.2495 22.192 95.5892 20.4539 94.3394 19.1972ZM74.3537 35.698L77.6316 38.9629L74.2594 41.6876L71.5946 39.0216L74.3537 35.698ZM71.8304 48.0647C70.0618 50.2257 66.4891 51.3766 61.4544 51.4118C62.2798 49.7676 62.8339 47.9825 63.1405 45.986C63.3292 44.7646 63.6947 43.6841 64.2253 42.7798C65.3808 40.8067 66.7957 39.8202 68.4464 39.8202C68.8473 39.8202 69.2718 39.8789 69.7081 39.9964L73.0803 43.3787C73.1982 44.0951 73.3633 46.2091 71.8304 48.0647ZM92.5236 26.9015L92.5118 26.9132L79.188 37.7062L75.6271 34.1595L86.5927 20.9471C87.3474 20.0076 88.4675 19.4321 89.682 19.3617C90.8964 19.2912 92.0637 19.7492 92.9127 20.6066C93.7616 21.4639 94.2097 22.6383 94.139 23.8362C94.0682 25.0342 93.4787 26.1499 92.5236 26.9015Z" fill="#87B5D4"/>
<path d="M49.998 72.891C50.972 72.891 51.7616 72.1014 51.7616 71.1274C51.7616 70.1534 50.972 69.3638 49.998 69.3638C49.024 69.3638 48.2344 70.1534 48.2344 71.1274C48.2344 72.1014 49.024 72.891 49.998 72.891Z" fill="#87B5D4"/>
<path d="M31.7814 10.982C31.7814 10.5721 31.6186 10.179 31.3287 9.88918C31.0389 9.59935 30.6458 9.43652 30.2359 9.43652H10.3814C9.97151 9.43652 9.57842 9.59935 9.28859 9.88918C8.99876 10.179 8.83594 10.5721 8.83594 10.982V26.5638C8.83594 27.4183 9.52685 28.1093 10.3814 28.1093H30.2359C31.0905 28.1093 31.7814 27.4183 31.7814 26.5638V10.982ZM28.6905 25.0002H11.9268V12.5093H28.6905V25.0002ZM31.7814 34.2002C31.7814 33.7903 31.6186 33.3972 31.3287 33.1074C31.0389 32.8175 30.6458 32.6547 30.2359 32.6547H10.3814C9.97151 32.6547 9.57842 32.8175 9.28859 33.1074C8.99876 33.3972 8.83594 33.7903 8.83594 34.2002C8.83594 34.61 8.99876 35.0031 9.28859 35.293C9.57842 35.5828 9.97151 35.7456 10.3814 35.7456H30.2359C31.0905 35.7456 31.7814 35.0547 31.7814 34.2002ZM10.3814 39.6002C9.97151 39.6002 9.57842 39.763 9.28859 40.0528C8.99876 40.3426 8.83594 40.7357 8.83594 41.1456C8.83594 41.5555 8.99876 41.9486 9.28859 42.2384C9.57842 42.5283 9.97151 42.6911 10.3814 42.6911H24.3268C24.7367 42.6911 25.1298 42.5283 25.4196 42.2384C25.7095 41.9486 25.8723 41.5555 25.8723 41.1456C25.8723 40.7357 25.7095 40.3426 25.4196 40.0528C25.1298 39.763 24.7367 39.6002 24.3268 39.6002H10.3814ZM58.6178 34.2002C58.6178 33.7903 58.4549 33.3972 58.1651 33.1074C57.8753 32.8175 57.4822 32.6547 57.0723 32.6547H37.2178C36.8079 32.6547 36.4148 32.8175 36.125 33.1074C35.8351 33.3972 35.6723 33.7903 35.6723 34.2002C35.6723 34.61 35.8351 35.0031 36.125 35.293C36.4148 35.5828 36.8079 35.7456 37.2178 35.7456H57.0723C57.9268 35.7456 58.6178 35.0547 58.6178 34.2002ZM37.2178 39.6002C36.8079 39.6002 36.4148 39.763 36.125 40.0528C35.8351 40.3426 35.6723 40.7357 35.6723 41.1456C35.6723 41.5555 35.8351 41.9486 36.125 42.2384C36.4148 42.5283 36.8079 42.6911 37.2178 42.6911H51.1632C51.5731 42.6911 51.9662 42.5283 52.256 42.2384C52.5458 41.9486 52.7087 41.5555 52.7087 41.1456C52.7087 40.7357 52.5458 40.3426 52.256 40.0528C51.9662 39.763 51.5731 39.6002 51.1632 39.6002H37.2178ZM58.6178 10.982C58.6178 10.5721 58.4549 10.179 58.1651 9.88918C57.8753 9.59935 57.4822 9.43652 57.0723 9.43652H37.2178C36.8079 9.43652 36.4148 9.59935 36.125 9.88918C35.8351 10.179 35.6723 10.5721 35.6723 10.982V26.5638C35.6723 27.4183 36.3632 28.1093 37.2178 28.1093H57.0723C57.9268 28.1093 58.6178 27.4183 58.6178 26.5638V10.982ZM55.5268 25.0002H38.7632V12.5093H55.5268V25.0002Z" fill="#87B5D4"/>
<path d="M100 35.8C100 35.597 99.96 35.3961 99.8824 35.2086C99.8047 35.0211 99.6909 34.8507 99.5474 34.7072C99.4038 34.5637 99.2335 34.4499 99.046 34.3722C98.8585 34.2945 98.6575 34.2545 98.4546 34.2545C98.2516 34.2545 98.0506 34.2945 97.8631 34.3722C97.6756 34.4499 97.5053 34.5637 97.3618 34.7072C97.2182 34.8507 97.1044 35.0211 97.0267 35.2086C96.9491 35.3961 96.9091 35.597 96.9091 35.8V63.2H3.09091V9.2C3.09091 5.83636 5.81818 3.09091 9.18182 3.09091H90.8C91.4182 3.09091 92.0545 3.2 92.7636 3.45454C93.5636 3.72727 94.4546 3.29091 94.7273 2.49091C95 1.69091 94.5636 0.8 93.7636 0.527273C92.7273 0.181818 91.7636 0 90.8 0H9.18182C4.12727 0 0 4.12727 0 9.2V69.8182C0 74.8909 4.12727 79.0182 9.18182 79.0182H37.7455L35.3818 84.6545H28.6C27.2781 84.6899 26.0223 85.2399 25.0999 86.1874C24.1774 87.1348 23.6613 88.4049 23.6613 89.7273C23.6613 91.0496 24.1774 92.3197 25.0999 93.2672C26.0223 94.2146 27.2781 94.7646 28.6 94.8H71.4182C72.74 94.7646 73.9959 94.2146 74.9183 93.2672C75.8407 92.3197 76.3569 91.0496 76.3569 89.7273C76.3569 88.4049 75.8407 87.1348 74.9183 86.1874C73.9959 85.2399 72.74 84.6899 71.4182 84.6545H64.6364L62.2727 79.0182H90.8182C95.8727 79.0182 100 74.9091 100 69.8545V64.7455V35.8ZM73.4 89.7455C73.4 90.8364 72.5091 91.7273 71.4182 91.7273H28.6C27.5091 91.7273 26.6182 90.8364 26.6182 89.7455C26.6182 88.6545 27.5091 87.7636 28.6 87.7636H71.4182C72.5091 87.7636 73.4 88.6545 73.4 89.7455ZM61.2727 84.6727H38.7273L41.0909 79.0364H58.9091L61.2727 84.6727ZM96.9091 69.8727C96.9091 73.2182 94.1818 75.9454 90.8182 75.9454H9.18182C5.81818 75.9454 3.09091 73.2 3.09091 69.8364V66.3091H96.9091V69.8727Z" fill="#87B5D4"/>
</svg>
