<svg width="160" height="204" viewBox="0 0 160 204" fill="none" xmlns="http://www.w3.org/2000/svg">
<path d="M15.3031 173.631H16.6055C18.4506 178.407 20.7514 183.812 23.4431 189.868L28.2402 200.352C28.4573 200.721 28.6961 201.003 28.9565 201.177C29.1302 201.307 30.1504 201.633 31.9955 202.175V203.391C29.4992 203.239 27.6542 203.174 26.4603 203.174C25.2664 203.174 23.1826 203.239 20.2739 203.391V202.175C21.9453 201.828 22.9004 201.568 23.1826 201.351C23.4648 201.155 23.595 200.895 23.595 200.634C23.595 200.374 23.4431 199.853 23.1609 199.18L21.0771 194.144C18.1684 194.122 16.0411 194.1 14.717 194.1L9.07333 194.144L6.90267 199.354C6.55537 200.2 6.36001 200.721 6.36001 200.917C6.36001 201.09 6.44682 201.242 6.62047 201.351C6.79413 201.459 7.59727 201.676 9.0299 201.98C9.18185 202.024 9.39893 202.088 9.65941 202.175V203.391C7.3151 203.239 5.64368 203.174 4.68859 203.174C3.47302 203.174 1.91018 203.239 0 203.391V202.175C1.25898 201.893 2.10554 201.589 2.58309 201.242C2.93039 200.982 3.27767 200.548 3.64669 199.918C4.42812 198.551 6.42515 194.188 9.63772 186.786L15.3031 173.631ZM9.87646 192.06C11.7866 192.125 13.1542 192.147 13.979 192.147C14.2178 192.147 16.345 192.125 20.2956 192.06L15.0861 179.688L9.87646 192.06Z" fill="white"/>
<path d="M33.4062 175.345V174.129C35.9242 174.281 38.2468 174.347 40.374 174.347C41.7633 174.347 43.2176 174.325 44.7154 174.26C46.2131 174.195 47.3853 174.173 48.2101 174.173C51.032 174.173 53.1158 174.759 54.505 175.953C55.8725 177.147 56.5454 178.666 56.5454 180.511C56.5454 181.553 56.285 182.595 55.764 183.637C55.2431 184.679 54.5267 185.547 53.5934 186.242C52.8987 186.741 51.8568 187.24 50.4676 187.696C51.9437 187.805 53.0941 188.022 53.8972 188.326C55.1128 188.825 56.0679 189.563 56.7842 190.583C57.5005 191.582 57.8478 192.841 57.8478 194.338C57.8478 197.399 56.4152 199.809 53.5499 201.567C51.6181 202.782 48.7311 203.39 44.9107 203.39C44.0425 203.39 42.6966 203.346 40.8516 203.259C39.5709 203.194 38.8763 203.173 38.7244 203.173C38.4639 203.173 36.7056 203.238 33.4062 203.39V202.174C33.8404 202.087 34.166 202.022 34.383 201.979C36.38 201.588 37.4871 201.306 37.7041 201.111C37.8778 200.98 37.9646 200.611 38.008 200.047C38.1166 198.766 38.1817 195.141 38.1817 189.194L38.1383 180.077C38.1383 178.189 38.0297 177.06 37.8778 176.734C37.791 176.56 37.6607 176.43 37.4437 176.322C37.2266 176.213 36.1847 175.953 34.2962 175.541C34.1008 175.497 33.8187 175.432 33.4279 175.323M41.9369 187.088C43.1742 187.088 43.8688 187.11 43.999 187.11C46.3216 187.11 48.0148 186.914 49.0784 186.524C50.1637 186.133 51.032 185.46 51.6832 184.483C52.3344 183.507 52.6817 182.378 52.6817 181.119C52.6817 179.295 52.0305 177.906 50.7281 176.995C49.7947 176.322 48.2752 175.996 46.148 175.996C44.9324 175.996 43.6083 176.105 42.1974 176.3C42.0238 178.384 41.9369 181.227 41.9369 184.831C41.9369 185.352 41.9369 186.09 41.9369 187.066M41.9586 201.111C43.4347 201.328 44.7371 201.436 45.9092 201.436C48.514 201.436 50.4676 200.828 51.7483 199.613C53.029 198.397 53.6585 196.748 53.6585 194.642C53.6585 193.188 53.3112 191.994 52.5948 191.104C51.8785 190.192 51.0103 189.584 50.0118 189.259C48.9915 188.933 47.3853 188.781 45.1929 188.781C43.8905 188.781 42.8052 188.781 41.9586 188.825V201.089V201.111Z" fill="white"/>
<path d="M60.6973 175.345V174.129C63.2152 174.281 65.5378 174.347 67.6651 174.347C69.0543 174.347 70.5086 174.325 72.0064 174.26C73.5042 174.195 74.6763 174.173 75.5012 174.173C78.323 174.173 80.4068 174.759 81.796 175.953C83.1636 177.147 83.8365 178.666 83.8365 180.511C83.8365 181.553 83.576 182.595 83.055 183.637C82.5341 184.679 81.8178 185.547 80.8844 186.242C80.1898 186.741 79.1478 187.24 77.7586 187.696C79.2347 187.805 80.3851 188.022 81.1883 188.326C82.4038 188.825 83.3589 189.563 84.0752 190.583C84.7916 191.582 85.1389 192.841 85.1389 194.338C85.1389 197.399 83.7062 199.809 80.8627 201.567C78.9308 202.782 76.0438 203.39 72.2234 203.39C71.3552 203.39 70.0094 203.346 68.1643 203.259C66.8836 203.194 66.189 203.173 66.0371 203.173C65.7983 203.173 64.0184 203.238 60.719 203.39V202.174C61.1531 202.087 61.4787 202.022 61.6958 201.979C63.6928 201.588 64.7998 201.306 65.0169 201.111C65.1905 200.98 65.2774 200.611 65.3208 200.047C65.4293 198.766 65.4944 195.141 65.4944 189.194L65.451 180.077C65.451 178.189 65.3425 177.06 65.1905 176.734C65.1037 176.56 64.9735 176.43 64.7564 176.322C64.5393 176.213 63.4974 175.953 61.6089 175.541C61.4136 175.497 61.1314 175.432 60.7407 175.323M69.2497 187.088C70.4869 187.088 71.1815 187.11 71.3118 187.11C73.6344 187.11 75.3275 186.914 76.3911 186.524C77.4548 186.133 78.323 185.46 78.9959 184.483C79.6688 183.507 79.9944 182.378 79.9944 181.119C79.9944 179.295 79.3432 177.906 78.0408 176.995C77.1074 176.322 75.588 175.996 73.4607 175.996C72.2452 175.996 70.9211 176.105 69.5101 176.3C69.3365 178.384 69.2497 181.227 69.2497 184.831C69.2497 185.352 69.2497 186.09 69.2497 187.066M69.2714 201.111C70.7474 201.328 72.0498 201.436 73.222 201.436C75.8267 201.436 77.7803 200.828 79.061 199.613C80.3417 198.397 80.9712 196.748 80.9712 194.642C80.9712 193.188 80.6022 191.994 79.9076 191.104C79.213 190.214 78.323 189.584 77.3245 189.259C76.326 188.933 74.7197 188.781 72.5056 188.781C71.2032 188.781 70.1179 188.781 69.2714 188.825V201.089V201.111Z" fill="white"/>
<path d="M100.874 173.631H102.176C104.021 178.407 106.301 183.812 109.014 189.868L113.811 200.352C114.028 200.721 114.267 201.003 114.527 201.177C114.701 201.307 115.721 201.633 117.566 202.175V203.391C115.07 203.239 113.225 203.174 112.031 203.174C110.837 203.174 108.753 203.239 105.845 203.391V202.175C107.494 201.828 108.471 201.568 108.753 201.351C109.036 201.134 109.166 200.895 109.166 200.634C109.166 200.374 109.014 199.853 108.732 199.18L106.626 194.144C103.717 194.122 101.59 194.1 100.266 194.1L94.6224 194.144L92.4517 199.354C92.1044 200.2 91.9091 200.721 91.9091 200.917C91.9091 201.09 91.9959 201.242 92.1695 201.351C92.3432 201.459 93.1463 201.676 94.579 201.98C94.7309 202.024 94.948 202.088 95.2085 202.175V203.391C92.8642 203.239 91.1928 203.174 90.2377 203.174C89.0221 203.174 87.4375 203.239 85.5273 203.391V202.175C86.7863 201.893 87.6329 201.589 88.1104 201.242C88.4577 200.982 88.8051 200.548 89.1741 199.918C89.9555 198.551 91.9525 194.188 95.1434 186.786L100.809 173.631H100.874ZM95.4473 192.06C97.3574 192.125 98.7249 192.147 99.5498 192.147C99.7886 192.147 101.916 192.125 105.866 192.06L100.657 179.688L95.4473 192.06Z" fill="white"/>
<path d="M118.779 175.345V174.129C122.426 174.281 125.335 174.347 127.549 174.347C128.808 174.347 130.002 174.347 131.087 174.303C132.541 174.238 133.561 174.216 134.126 174.216C136.817 174.216 138.836 174.846 140.182 176.105C141.528 177.385 142.201 179.1 142.201 181.293C142.201 182.747 141.897 184.049 141.289 185.156C140.681 186.285 139.791 187.219 138.641 188C137.794 188.543 136.6 189.042 135.059 189.454L141.918 198.397C142.765 199.504 143.308 200.156 143.525 200.351C143.872 200.633 144.306 200.893 144.871 201.089C145.652 201.393 146.933 201.74 148.756 202.131V203.346C146.585 203.194 145.001 203.13 144.024 203.13C142.874 203.13 141.723 203.216 140.508 203.346C139.878 202.326 139.053 201.024 137.99 199.461C136.926 197.898 136.275 196.987 136.058 196.683C135.927 196.509 135.797 196.336 135.667 196.162L131.13 189.932C129.915 189.91 128.677 189.823 127.418 189.671L127.592 200.069C127.614 200.481 127.744 200.785 127.961 201.002C128.287 201.285 129.329 201.567 131.043 201.892C131.304 201.936 131.673 202.023 132.172 202.131V203.346C129.676 203.194 127.484 203.13 125.595 203.13C123.555 203.13 121.276 203.216 118.779 203.346V202.131L119.669 201.936C121.645 201.567 122.752 201.263 123.012 201.024C123.273 200.785 123.424 200.351 123.468 199.743C123.49 199.353 123.533 195.814 123.576 189.15L123.49 179.469C123.49 177.993 123.446 177.125 123.381 176.908C123.316 176.691 123.186 176.517 122.969 176.409C122.296 176.061 121.232 175.758 119.778 175.519C119.561 175.475 119.213 175.41 118.779 175.302M127.418 187.913C128.851 188.065 129.958 188.13 130.74 188.13C133.236 188.13 135.103 187.566 136.296 186.459C137.49 185.352 138.098 183.789 138.098 181.814C138.098 180.077 137.555 178.71 136.492 177.711C135.428 176.713 133.865 176.213 131.847 176.213C131.109 176.213 129.676 176.3 127.527 176.452L127.397 187.913H127.418Z" fill="white"/>
<path d="M158.458 114.393C157.437 115.37 156.222 115.848 154.789 115.848C153.357 115.848 152.119 115.37 151.121 114.393C150.122 113.416 149.623 112.244 149.623 110.877C149.623 109.509 150.122 108.337 151.142 107.382C152.163 106.427 153.378 105.927 154.811 105.927C156.244 105.927 157.481 106.405 158.479 107.382C159.5 108.337 159.999 109.509 159.999 110.877C159.999 112.244 159.5 113.416 158.479 114.393M151.642 107.859C150.774 108.684 150.339 109.704 150.339 110.877C150.339 112.049 150.774 113.069 151.642 113.915C152.51 114.762 153.574 115.175 154.811 115.175C156.048 115.175 157.112 114.762 157.98 113.915C158.848 113.069 159.282 112.071 159.282 110.877C159.282 109.683 158.848 108.684 157.98 107.859C157.112 107.013 156.048 106.601 154.811 106.601C153.574 106.601 152.532 107.013 151.663 107.859M154.724 108.142C155.419 108.142 155.94 108.206 156.287 108.337C156.873 108.575 157.177 109.032 157.177 109.726C157.177 110.204 156.982 110.573 156.613 110.811C156.417 110.942 156.135 111.028 155.788 111.072C156.244 111.137 156.569 111.31 156.765 111.614C156.982 111.897 157.068 112.179 157.068 112.461V112.852C157.068 112.982 157.068 113.112 157.068 113.264C157.068 113.416 157.09 113.503 157.112 113.547L157.155 113.612H156.222V113.568C156.222 113.568 156.222 113.525 156.222 113.503V113.329L156.2 112.895C156.2 112.266 156.026 111.853 155.657 111.658C155.44 111.549 155.071 111.484 154.55 111.484H153.769V113.633H152.77V108.185H154.767L154.724 108.142ZM155.809 108.988C155.549 108.858 155.158 108.793 154.594 108.793H153.747V110.768H154.659C155.093 110.768 155.397 110.724 155.614 110.638C156.005 110.486 156.2 110.204 156.2 109.791C156.2 109.401 156.07 109.118 155.831 108.988" fill="white"/>
<path d="M112.873 115.327L146.279 115.631L132.886 106.58" fill="white"/>
<path d="M37.5724 114.87L4.16602 115.196L17.559 106.123" fill="white"/>
<path d="M82.3731 0L12.1523 115.067L37.8746 115.327L95.3753 17.1262L82.3731 0Z" fill="white"/>
<g style="mix-blend-mode:screen" opacity="0.38">
<mask id="mask0_1_119" style="mask-type:luminance" maskUnits="userSpaceOnUse" x="15" y="4" width="78" height="110">
<path d="M92.5389 4.03833H15.8496V113.982H92.5389V4.03833Z" fill="white"/>
</mask>
<g mask="url(#mask0_1_119)">
<path d="M82.2283 4.03833L15.8496 112.658L35.8848 113.982L92.5606 16.085L82.2283 4.03833Z" fill="white"/>
</g>
</g>
<path d="M148.017 158.285V158.241H140.115L140.029 158.111C138.27 158.111 136.729 157.438 135.405 156.071C134.081 154.725 133.408 152.815 133.408 150.406C133.408 148.886 133.69 147.54 134.255 146.346C134.819 145.152 135.6 144.284 136.599 143.763C137.597 143.242 138.639 142.982 139.746 142.982C141.266 142.982 142.46 143.372 143.328 144.175C144.196 144.957 144.674 146.173 144.739 147.823L146.215 147.931C146.519 146.498 146.801 145.326 147.062 144.393C147.257 143.698 147.387 143.112 147.496 142.678C145.455 141.679 143.306 141.18 141.092 141.18C137.858 141.18 135.123 142.178 132.909 144.175C130.695 146.172 129.588 148.734 129.588 151.838C129.588 154.443 130.391 156.592 131.975 158.241H83.5699C83.7218 157.568 83.7869 156.722 83.7869 155.68V147.909H80.2053C79.5541 147.887 78.8378 147.823 77.7742 147.757V148.93C78.1432 149.016 78.4037 149.081 78.599 149.125C80.379 149.515 79.8363 149.776 80.0317 149.863C80.0317 149.863 80.0317 149.885 80.0751 149.906V155.876C80.0751 156.918 79.9666 157.699 79.7712 158.241H29.5639L27.1979 158.133C25.9389 158.133 25.1141 157.395 24.7451 156.483C24.5714 155.984 24.4629 154.096 24.4629 152.62V136.166C24.5063 135.992 24.5497 135.819 24.6148 135.71C24.7451 135.471 24.9404 135.298 25.2226 135.189C25.6133 135.037 24.7017 134.712 26.9591 134.234V132.845C23.3124 133.018 23.3776 133.105 22.7046 133.105C21.6193 133.105 20.2735 133.018 17.2129 132.845V134.234C17.7556 134.408 18.168 134.516 18.4502 134.581C20.0131 134.929 20.1867 135.254 20.4906 135.558C20.5557 135.623 20.5991 135.754 20.6425 135.906V154.139C20.6425 159.066 22.5527 161.541 26.3948 161.541H148.017" fill="white"/>
<path d="M9.22515 142.851V144.24C9.59416 144.349 9.87632 144.436 10.05 144.479C10.3973 144.566 10.6578 144.652 10.8531 144.718V158.632C10.8531 162.539 7.42351 164.427 4.21094 164.427V168.335C10.1368 168.335 14.7169 165.274 14.7169 157.937V143.046H11.7431C11.0702 143.003 10.3322 142.96 9.22515 142.873" fill="white"/>
<path d="M81.4906 163.125C80.2099 163.125 79.168 164.167 79.168 165.448C79.168 166.728 80.2099 167.77 81.4906 167.77C82.7712 167.77 83.8132 166.728 83.8132 165.448C83.8132 164.167 82.7712 163.125 81.4906 163.125Z" fill="white"/>
<path d="M5.19238 167.705C5.06214 167.727 4.97532 167.77 4.88849 167.814C4.73655 167.9 4.6063 168.031 4.54118 168.226C4.43265 168.486 4.21556 167.879 3.91167 169.355H3C3.10853 166.945 3.17366 166.989 3.17366 166.555C3.17366 165.838 3.10853 164.948 3 162.93H3.91167C4.0202 163.277 4.10703 163.559 4.15045 163.733C4.36751 164.753 4.58458 164.883 4.80165 165.079C4.84506 165.122 4.93189 165.166 5.04042 165.187" fill="white"/>
<path d="M95.4454 30.3679L82.2695 51.0109L112.941 115.349L138.164 115.219L95.4671 30.3679H95.4454ZM84.7441 52.3569L96.3137 35.2954L134.387 114.394L115.567 114.155L84.7441 52.3781V52.3569Z" fill="white"/>
<path d="M96.3315 35.2732L84.7402 52.3348L115.564 114.112L134.383 114.372L96.3315 35.2732Z" fill="white"/>
</svg>
