<svg width="82" height="82" viewBox="0 0 82 82" fill="none" xmlns="http://www.w3.org/2000/svg">
<path d="M34.3706 53.25C33.6606 54.93 32.1905 56.2599 31.4805 57.9099C36.8705 51.6899 43.9306 43.14 43.0806 42.29C42.5206 41.73 38.5706 44.64 34.1606 48.24C34.9406 49.78 35.0506 51.66 34.3706 53.25Z" fill="#7D9CC0"/>
<path d="M29.4101 55C30.2801 53.77 31.5498 52.6699 31.6698 51.1699C31.6898 50.8999 31.65 50.6399 31.58 50.3899C26.55 54.6099 21.6597 58.9999 21.0297 59.6299C19.7297 60.9299 19.7297 63.0501 21.0297 64.3501C22.3297 65.6501 24.4499 65.6501 25.7499 64.3501C26.0099 64.0901 26.9401 63.0699 28.2201 61.6299C27.6801 59.3799 28.0598 56.89 29.3998 55" fill="#7D9CC0"/>
<path d="M25.2716 25.09L23.6916 26.6698C23.0716 27.2898 23.0716 28.2998 23.6916 28.9198C24.2816 29.5098 25.3216 29.5298 25.9416 28.9198L27.5216 27.34L29.1017 28.9198C29.7017 29.5098 30.7317 29.5398 31.3517 28.9198C31.9717 28.2998 31.9717 27.2898 31.3517 26.6698L29.7716 25.09L31.3517 23.5099C31.9717 22.8899 31.9717 21.8799 31.3517 21.2599C30.7317 20.6399 29.7217 20.6399 29.1017 21.2599L27.5216 22.84L25.9416 21.2599C25.3216 20.6399 24.3116 20.6399 23.6916 21.2599C23.0716 21.8799 23.0716 22.8899 23.6916 23.5099L25.2716 25.09Z" fill="#7D9CC0"/>
<path d="M37.0412 25.09L35.4611 26.6698C34.8411 27.2898 34.8411 28.2998 35.4611 28.9198C36.0711 29.5298 37.1011 29.5298 37.7111 28.9198L39.2912 27.34L40.8713 28.9198C41.4613 29.5198 42.5013 29.5398 43.1213 28.9198C43.7413 28.2998 43.7413 27.2898 43.1213 26.6698L41.5412 25.09L43.1213 23.5099C43.7413 22.8899 43.7413 21.8799 43.1213 21.2599C42.5013 20.6399 41.4913 20.6399 40.8713 21.2599L39.2912 22.84L37.7111 21.2599C37.0911 20.6399 36.0811 20.6399 35.4611 21.2599C34.8411 21.8799 34.8411 22.8899 35.4611 23.5099L37.0412 25.09Z" fill="#7D9CC0"/>
<path d="M25.2716 36.86L23.6916 38.4399C23.0716 39.0599 23.0716 40.0699 23.6916 40.6899C24.3016 41.2999 25.3316 41.2999 25.9416 40.6899L27.5216 39.11L29.1017 40.6899C29.7117 41.2999 30.7417 41.2999 31.3517 40.6899C31.9717 40.0699 31.9717 39.0599 31.3517 38.4399L29.7716 36.86L31.3517 35.2799C31.9717 34.6599 31.9717 33.6499 31.3517 33.0299C30.7317 32.4099 29.7217 32.4099 29.1017 33.0299L27.5216 34.61L25.9416 33.0299C25.3216 32.4099 24.3116 32.4099 23.6916 33.0299C23.0716 33.6499 23.0716 34.6599 23.6916 35.2799L25.2716 36.86Z" fill="#7D9CC0"/>
<path d="M37.0412 36.86L35.4611 38.4399C34.8411 39.0599 34.8411 40.0699 35.4611 40.6899C36.0611 41.2899 37.0911 41.3099 37.7111 40.6899L39.2912 39.11L40.8713 40.6899C41.4813 41.2999 42.5113 41.2999 43.1213 40.6899C43.7413 40.0699 43.7413 39.0599 43.1213 38.4399L41.5412 36.86L43.1213 35.2799C43.7413 34.6599 43.7413 33.6499 43.1213 33.0299C42.5013 32.4099 41.4913 32.4099 40.8713 33.0299L39.2912 34.61L37.7111 33.0299C37.0911 32.4099 36.0811 32.4099 35.4611 33.0299C34.8411 33.6499 34.8411 34.6599 35.4611 35.2799L37.0412 36.86Z" fill="#7D9CC0"/>
<path d="M49.6408 33.0299C49.0208 32.4099 48.0108 32.4099 47.3908 33.0299C46.7708 33.6499 46.7708 34.6599 47.3908 35.2799C47.3908 35.2799 52.7904 40.6799 52.8004 40.6899C53.4104 41.2999 54.4404 41.2999 55.0504 40.6899C55.6704 40.0699 55.6704 39.0599 55.0504 38.4399L49.6408 33.0299Z" fill="#7D9CC0"/>
<path d="M48.9709 25.09L47.3908 26.6698C46.7708 27.2898 46.7708 28.2998 47.3908 28.9198C47.9908 29.5198 49.0208 29.5398 49.6408 28.9198L51.2209 27.34L52.8004 28.9198C53.3904 29.5098 54.4304 29.5398 55.0504 28.9198C55.6704 28.2998 55.6704 27.2898 55.0504 26.6698L53.4709 25.09L55.0504 23.5099C55.6704 22.8899 55.6704 21.8799 55.0504 21.2599C54.4304 20.6399 53.4204 20.6399 52.8004 21.2599L51.2209 22.84L49.6408 21.2599C49.0208 20.6399 48.0108 20.6399 47.3908 21.2599C46.7708 21.8799 46.7708 22.8899 47.3908 23.5099L48.9709 25.09Z" fill="#7D9CC0"/>
<path d="M42.3311 65.9799C43.8611 64.4499 45.2309 62.7499 46.4209 60.9399C45.3209 62.1799 44.5508 63.0099 44.3408 63.2299C44.0108 63.5599 43.5711 63.7399 43.1011 63.7399C42.6311 63.7399 42.1908 63.5599 41.8608 63.2299C41.5308 62.8999 41.3511 62.4599 41.3511 61.9899C41.3511 61.5199 41.5308 61.08 41.8608 60.75C42.3908 60.22 46.901 56.16 51.811 52.01C54.701 49.57 56.8409 47.8599 58.4209 46.6499C57.2109 48.2299 55.501 50.37 53.061 53.26C50.651 56.11 48.2808 58.8299 46.6108 60.7099L48.8511 62.9499C53.2311 58.0899 57.4712 53.1099 61.4512 47.9299C62.3712 46.7399 63.2809 45.5199 63.9409 44.1699C64.3809 43.2699 64.8111 42.03 63.8711 41.09C63.0811 40.3 61.7711 40.7299 60.9111 41.1599C59.4111 41.9099 58.061 42.9299 56.731 43.9499C51.451 48.0299 46.4009 52.41 41.4009 56.83C40.3709 57.74 39.3209 58.6799 38.6709 59.8999C38.0309 61.1199 37.8611 62.69 38.6211 63.84C36.9711 64.71 34.851 64.6899 33.271 63.6799C31.701 62.6699 30.7811 60.6801 31.1611 58.8501C31.2311 58.5201 31.3412 58.2099 31.4712 57.9099C30.2612 59.3099 29.1409 60.5798 28.2109 61.6298C28.5109 62.8898 29.0909 64.08 29.9609 65.05C32.3809 67.75 36.7311 68.4799 39.8911 66.7099C40.1311 66.5799 40.3711 66.4299 40.6411 66.3999C40.9211 66.3699 41.2012 66.48 41.4712 66.58C41.5212 66.6 41.5708 66.6101 41.6108 66.6201C41.8408 66.4001 42.1011 66.1999 42.3311 65.9799Z" fill="#7D9CC0"/>
<path d="M33.47 47.16C32.09 45.5 29.7399 44.71 27.6399 45.18C25.9099 45.57 24.4497 46.71 23.1697 47.93C22.5797 48.5 21.9699 49.1601 21.8899 49.9801C21.7999 50.8601 22.5797 51.6402 23.4597 51.6102C24.4597 51.5802 25.1396 50.57 25.7996 49.94C26.5796 49.2 27.3998 48.4001 28.5198 48.2301C29.8798 48.0301 31.2398 49.07 31.5798 50.38C32.4398 49.65 33.3099 48.9301 34.1599 48.2401C33.9699 47.8601 33.74 47.49 33.47 47.16Z" fill="#7D9CC0"/>
<path d="M34.3708 53.25C35.0508 51.66 34.9409 49.78 34.1609 48.24C33.3109 48.94 32.4408 49.6499 31.5808 50.3799C31.6508 50.6299 31.6906 50.8899 31.6706 51.1599C31.5506 52.6599 30.2809 53.77 29.4109 54.99C28.0609 56.88 27.6907 59.3701 28.2307 61.6201C29.1607 60.5701 30.2809 59.2999 31.4909 57.8999C32.2009 56.2499 33.6706 54.92 34.3806 53.24" fill="#7D9CC0"/>
<path d="M47.3521 64.6299C47.8621 64.0699 48.3618 63.51 48.8618 62.95L46.6221 60.71C46.5521 60.79 46.4919 60.8599 46.4219 60.9299C45.2219 62.7499 43.862 64.44 42.332 65.97L43.272 66.9099C43.742 66.9199 44.2019 66.88 44.6519 66.72C45.7419 66.35 46.5721 65.4701 47.3521 64.6101" fill="#7D9CC0"/>
<path d="M20.5312 54.51C20.5312 53.63 19.8214 52.9199 18.9414 52.9199C18.0614 52.9199 17.3516 53.63 17.3516 54.51C17.3516 55.39 18.0614 56.1001 18.9414 56.1001C19.8214 56.1001 20.5312 55.39 20.5312 54.51Z" fill="#7D9CC0"/>
<path d="M41 80C62.5391 80 80 62.5391 80 41C80 19.4609 62.5391 2 41 2C19.4609 2 2 19.4609 2 41C2 62.5391 19.4609 80 41 80Z" stroke="#7D9CC0" stroke-width="3" stroke-miterlimit="10"/>
</svg>
