<svg width="18" height="18" viewBox="0 0 18 18" fill="none" xmlns="http://www.w3.org/2000/svg">
<path d="M18 9C18 4.03724 13.9628 0 9 0C4.03724 0 0 4.03724 0 9C0 13.9628 4.03724 18 9 18C13.9628 18 18 13.9628 18 9ZM8.46974 11.7803L4.71976 8.03025C4.65002 7.96069 4.5947 7.87804 4.55699 7.78704C4.51928 7.69604 4.49991 7.59849 4.5 7.49999C4.49991 7.40149 4.51928 7.30394 4.55699 7.21294C4.59471 7.12194 4.65002 7.03929 4.71976 6.96973C5.013 6.67649 5.48701 6.67649 5.78025 6.96973L9 10.1895L12.2197 6.96976C12.513 6.67652 12.987 6.67652 13.2802 6.96976C13.5735 7.263 13.5735 7.73701 13.2802 8.03025L9.53023 11.7803C9.23699 12.0735 8.76301 12.0735 8.46974 11.7803Z" fill="#87B5D4"/>
</svg>
