<svg width="91" height="115" viewBox="0 0 91 115" fill="none" xmlns="http://www.w3.org/2000/svg">
<path d="M8.65258 98.1736H9.38898C10.4322 100.874 11.7332 103.93 13.255 107.354L15.9674 113.282C16.0901 113.491 16.2251 113.65 16.3724 113.748C16.4706 113.822 17.0474 114.006 18.0907 114.313V115C16.6793 114.914 15.636 114.878 14.961 114.878C14.286 114.878 13.1078 114.914 11.4632 115V114.313C12.4082 114.116 12.9482 113.969 13.1078 113.846C13.2673 113.736 13.3409 113.589 13.3409 113.441C13.3409 113.294 13.255 113 13.0955 112.619L11.9173 109.772C10.2726 109.759 9.06988 109.747 8.32122 109.747L5.13018 109.772L3.90286 112.717C3.70649 113.196 3.59603 113.491 3.59603 113.601C3.59603 113.699 3.64512 113.785 3.74331 113.846C3.84149 113.908 4.2956 114.031 5.10563 114.202C5.19154 114.227 5.31429 114.264 5.46156 114.313V115C4.13606 114.914 3.19101 114.878 2.65099 114.878C1.9637 114.878 1.08004 114.914 0 115V114.313C0.711845 114.153 1.1905 113.981 1.46051 113.785C1.65688 113.638 1.85324 113.392 2.06189 113.037C2.50372 112.263 3.63287 109.796 5.4493 105.611L8.65258 98.1736ZM5.58429 108.594C6.66433 108.63 7.43755 108.643 7.90394 108.643C8.03894 108.643 9.2417 108.63 11.4754 108.594L8.52986 101.598L5.58429 108.594Z" fill="#6F7271"/>
<path d="M18.8887 99.1424V98.4551C20.3124 98.541 21.6256 98.5779 22.8284 98.5779C23.6138 98.5779 24.4361 98.5656 25.283 98.5288C26.1298 98.492 26.7926 98.4796 27.259 98.4796C28.8545 98.4796 30.0327 98.8111 30.8182 99.4861C31.5914 100.161 31.9719 101.02 31.9719 102.063C31.9719 102.652 31.8246 103.242 31.5301 103.831C31.2355 104.42 30.8305 104.911 30.3027 105.304C29.91 105.586 29.3209 105.868 28.5354 106.126C29.37 106.187 30.0205 106.31 30.4746 106.482C31.1619 106.764 31.7019 107.181 32.1069 107.758C32.5119 108.323 32.7083 109.035 32.7083 109.881C32.7083 111.612 31.8982 112.974 30.2782 113.969C29.1859 114.656 27.5535 114.999 25.3935 114.999C24.9025 114.999 24.1416 114.975 23.0984 114.926C22.3742 114.889 21.9815 114.877 21.8956 114.877C21.7483 114.877 20.7542 114.913 18.8887 114.999V114.312C19.1341 114.263 19.3182 114.226 19.441 114.202C20.5701 113.981 21.196 113.821 21.3188 113.711C21.4169 113.637 21.466 113.428 21.4906 113.109C21.5519 112.385 21.5888 110.335 21.5888 106.973L21.5642 101.818C21.5642 100.75 21.5029 100.112 21.4169 99.9278C21.3679 99.8296 21.2942 99.756 21.1715 99.6947C21.0488 99.6333 20.4596 99.4862 19.3919 99.253C19.2814 99.2285 19.1219 99.1915 18.9009 99.1302M23.712 105.782C24.4116 105.782 24.8043 105.794 24.878 105.794C26.1912 105.794 27.1485 105.684 27.7499 105.463C28.3636 105.242 28.8545 104.862 29.2227 104.309C29.5909 103.757 29.7872 103.119 29.7872 102.407C29.7872 101.376 29.4191 100.591 28.6827 100.075C28.1549 99.6948 27.2958 99.5107 26.093 99.5107C25.4057 99.5107 24.6571 99.5719 23.8593 99.6824C23.7611 100.861 23.712 102.468 23.712 104.506C23.712 104.8 23.712 105.218 23.712 105.77M23.7243 113.711C24.5589 113.833 25.2953 113.895 25.958 113.895C27.4308 113.895 28.5354 113.551 29.2595 112.864C29.9836 112.176 30.3396 111.244 30.3396 110.053C30.3396 109.231 30.1432 108.556 29.7382 108.053C29.3331 107.537 28.8422 107.194 28.2777 107.009C27.7008 106.825 26.7926 106.739 25.553 106.739C24.8166 106.739 24.203 106.74 23.7243 106.764V113.698V113.711Z" fill="#6F7271"/>
<path d="M34.3184 99.1424V98.4551C35.742 98.541 37.0553 98.5779 38.2581 98.5779C39.0435 98.5779 39.8658 98.5656 40.7127 98.5288C41.5595 98.492 42.2223 98.4796 42.6887 98.4796C44.2842 98.4796 45.4624 98.8111 46.2479 99.4861C47.0211 100.161 47.4016 101.02 47.4016 102.063C47.4016 102.652 47.2543 103.242 46.9597 103.831C46.6652 104.42 46.2602 104.911 45.7324 105.304C45.3397 105.586 44.7506 105.868 43.9651 106.126C44.7997 106.187 45.4501 106.31 45.9043 106.482C46.5915 106.764 47.1316 107.181 47.5366 107.758C47.9416 108.323 48.138 109.035 48.138 109.881C48.138 111.612 47.3279 112.974 45.7202 113.969C44.6278 114.656 42.9955 114.999 40.8354 114.999C40.3445 114.999 39.5836 114.975 38.5403 114.926C37.8162 114.889 37.4235 114.877 37.3376 114.877C37.2026 114.877 36.1962 114.913 34.3306 114.999V114.312C34.5761 114.263 34.7602 114.226 34.8829 114.202C36.0121 113.981 36.638 113.821 36.7607 113.711C36.8589 113.637 36.908 113.428 36.9326 113.109C36.9939 112.385 37.0307 110.335 37.0307 106.973L37.0062 101.818C37.0062 100.75 36.9448 100.112 36.8589 99.9278C36.8098 99.8296 36.7362 99.756 36.6135 99.6947C36.4907 99.6333 35.9016 99.4862 34.8338 99.253C34.7234 99.2285 34.5638 99.1915 34.3429 99.1302M39.154 105.782C39.8536 105.782 40.2463 105.794 40.3199 105.794C41.6332 105.794 42.5905 105.684 43.1919 105.463C43.7933 105.242 44.2842 104.862 44.6647 104.309C45.0451 103.757 45.2292 103.119 45.2292 102.407C45.2292 101.376 44.861 100.591 44.1246 100.075C43.5969 99.6948 42.7378 99.5107 41.535 99.5107C40.8477 99.5107 40.099 99.5719 39.3013 99.6824C39.2031 100.861 39.154 102.468 39.154 104.506C39.154 104.8 39.154 105.218 39.154 105.77M39.1663 113.711C40.0008 113.833 40.7372 113.895 41.4 113.895C42.8728 113.895 43.9774 113.551 44.7015 112.864C45.4256 112.176 45.7815 111.244 45.7815 110.053C45.7815 109.231 45.5729 108.556 45.1801 108.053C44.7874 107.55 44.2842 107.194 43.7196 107.009C43.1551 106.825 42.2468 106.739 40.995 106.739C40.2586 106.739 39.6449 106.74 39.1663 106.764V113.698V113.711Z" fill="#6F7271"/>
<path d="M57.0346 98.1736H57.771C58.8142 100.874 60.1029 103.93 61.637 107.354L64.3494 113.282C64.4721 113.491 64.6071 113.65 64.7544 113.748C64.8526 113.822 65.4294 114.006 66.4726 114.313V115C65.0612 114.914 64.018 114.878 63.343 114.878C62.668 114.878 61.4897 114.914 59.8451 115V114.313C60.7779 114.116 61.3302 113.969 61.4897 113.846C61.6493 113.724 61.7229 113.589 61.7229 113.441C61.7229 113.294 61.637 113 61.4775 112.619L60.287 109.772C58.6424 109.759 57.4396 109.747 56.6909 109.747L53.4999 109.772L52.2726 112.717C52.0762 113.196 51.9657 113.491 51.9657 113.601C51.9657 113.699 52.0148 113.785 52.113 113.846C52.2112 113.908 52.6653 114.031 53.4753 114.202C53.5613 114.227 53.684 114.264 53.8313 114.313V115C52.5058 114.914 51.5607 114.878 51.0207 114.878C50.3334 114.878 49.4375 114.914 48.3574 115V114.313C49.0693 114.153 49.5479 113.981 49.8179 113.785C50.0143 113.638 50.2107 113.392 50.4193 113.037C50.8612 112.263 51.9903 109.796 53.7945 105.611L56.9978 98.1736H57.0346ZM53.9663 108.594C55.0463 108.63 55.8195 108.643 56.2859 108.643C56.4209 108.643 57.6237 108.63 59.8574 108.594L56.9118 101.598L53.9663 108.594Z" fill="#6F7271"/>
<path d="M67.1602 99.1424V98.4551C69.2221 98.541 70.8666 98.5779 72.1185 98.5779C72.8304 98.5779 73.5054 98.5779 74.1191 98.5534C74.9414 98.5165 75.5182 98.5042 75.8373 98.5042C77.3592 98.5042 78.5006 98.86 79.2615 99.5718C80.0225 100.296 80.4029 101.266 80.4029 102.505C80.4029 103.328 80.2311 104.064 79.8874 104.69C79.5438 105.328 79.0406 105.856 78.3901 106.298C77.9115 106.605 77.2364 106.887 76.365 107.12L80.2434 112.176C80.722 112.802 81.0288 113.171 81.1516 113.281C81.348 113.441 81.5934 113.588 81.9125 113.698C82.3543 113.87 83.0785 114.067 84.1094 114.288V114.975C82.8821 114.889 81.9862 114.852 81.4339 114.852C80.7834 114.852 80.1329 114.901 79.4456 114.975C79.0897 114.398 78.6233 113.661 78.0219 112.778C77.4205 111.894 77.0523 111.379 76.9296 111.207C76.856 111.109 76.7823 111.011 76.7087 110.913L74.1436 107.39C73.4563 107.378 72.7567 107.328 72.0449 107.243L72.1431 113.121C72.1553 113.355 72.229 113.527 72.3517 113.649C72.5358 113.809 73.1249 113.968 74.0945 114.153C74.2418 114.177 74.4504 114.226 74.7327 114.288V114.975C73.3213 114.889 72.0817 114.852 71.0139 114.852C69.8603 114.852 68.5716 114.901 67.1602 114.975V114.288L67.6633 114.177C68.7802 113.968 69.4061 113.797 69.5534 113.662C69.7007 113.527 69.7866 113.281 69.8112 112.937C69.8234 112.717 69.848 110.716 69.8725 106.948L69.8234 101.474C69.8234 100.64 69.7989 100.149 69.7621 100.026C69.7252 99.9034 69.6516 99.8052 69.5289 99.7438C69.1484 99.5475 68.547 99.3757 67.7247 99.2407C67.602 99.2162 67.4056 99.1792 67.1602 99.1179M72.0449 106.249C72.8549 106.335 73.4808 106.371 73.9227 106.371C75.3341 106.371 76.3896 106.052 77.0646 105.426C77.7396 104.8 78.0833 103.917 78.0833 102.8C78.0833 101.818 77.7764 101.045 77.1751 100.48C76.5737 99.9158 75.69 99.6333 74.5486 99.6333C74.1313 99.6333 73.3213 99.6825 72.1062 99.7684L72.0326 106.249H72.0449Z" fill="#6F7271"/>
<path d="M89.5948 64.6792C89.018 65.2315 88.3307 65.5018 87.5206 65.5018C86.7106 65.5018 86.011 65.2315 85.4465 64.6792C84.8819 64.127 84.5996 63.4644 84.5996 62.6911C84.5996 61.9179 84.8819 61.2551 85.4587 60.715C86.0356 60.175 86.7229 59.8928 87.5329 59.8928C88.3429 59.8928 89.0425 60.1627 89.6071 60.715C90.1839 61.2551 90.4662 61.9179 90.4662 62.6911C90.4662 63.4644 90.1839 64.127 89.6071 64.6792M85.741 60.985C85.2501 61.4514 85.0046 62.0284 85.0046 62.6911C85.0046 63.3539 85.2501 63.9306 85.741 64.4093C86.232 64.8879 86.8333 65.1212 87.5329 65.1212C88.2325 65.1212 88.8339 64.8879 89.3248 64.4093C89.8157 63.9306 90.0612 63.3662 90.0612 62.6911C90.0612 62.0161 89.8157 61.4514 89.3248 60.985C88.8339 60.5063 88.2325 60.2734 87.5329 60.2734C86.8333 60.2734 86.2442 60.5063 85.7533 60.985M87.4838 61.1447C87.8766 61.1447 88.1711 61.1813 88.3675 61.255C88.6989 61.39 88.8707 61.6479 88.8707 62.0406C88.8707 62.3106 88.7602 62.5193 88.5516 62.6543C88.4411 62.7279 88.2816 62.7769 88.0852 62.8014C88.3429 62.8382 88.527 62.9364 88.6375 63.1082C88.7602 63.2678 88.8093 63.4275 88.8093 63.5871V63.8079C88.8093 63.8815 88.8093 63.9551 88.8093 64.041C88.8093 64.1269 88.8216 64.1762 88.8339 64.2007L88.8584 64.2376H88.3307V64.213C88.3307 64.213 88.3307 64.1884 88.3307 64.1762V64.0779L88.3184 63.8325C88.3184 63.4765 88.2202 63.2433 88.0116 63.1328C87.8888 63.0714 87.6802 63.0348 87.3856 63.0348H86.9438V64.2499H86.3792V61.1693H87.5083L87.4838 61.1447ZM88.0975 61.6232C87.9502 61.5496 87.7293 61.513 87.4102 61.513H86.9315V62.6297H87.447C87.6925 62.6297 87.8643 62.6051 87.987 62.556C88.2079 62.4701 88.3184 62.3107 88.3184 62.0775C88.3184 61.8566 88.2447 61.6969 88.1097 61.6232" fill="#6F7271"/>
<path d="M63.8203 65.2073L82.7087 65.3793L75.1362 60.2615" fill="#797979"/>
<path d="M21.2439 64.9493L2.35547 65.1336L9.92802 60.0032" fill="#7D9CC0"/>
<path d="M46.5749 0L6.87109 65.0602L21.4148 65.2073L53.9265 9.68341L46.5749 0Z" fill="#7D9CC0"/>
<g style="mix-blend-mode:screen" opacity="0.38">
<mask id="mask0_1_88" style="mask-type:luminance" maskUnits="userSpaceOnUse" x="8" y="2" width="45" height="63">
<path d="M52.3221 2.28345H8.96094V64.447H52.3221V2.28345Z" fill="white"/>
</mask>
<g mask="url(#mask0_1_88)">
<path d="M46.4923 2.28345L8.96094 63.6982L20.2891 64.447L52.3344 9.09483L46.4923 2.28345Z" fill="#36A8D6"/>
</g>
</g>
<path d="M83.6906 89.4962V89.4716H79.2232L79.1741 89.3982C78.18 89.3982 77.3086 89.0175 76.5599 88.2443C75.8112 87.4834 75.4308 86.4035 75.4308 85.0412C75.4308 84.1821 75.5903 83.421 75.9094 82.7459C76.2285 82.0709 76.6704 81.5801 77.2349 81.2855C77.7995 80.991 78.3886 80.8438 79.0145 80.8438C79.8737 80.8438 80.5487 81.0645 81.0396 81.5186C81.5306 81.9605 81.8006 82.648 81.8374 83.5807L82.672 83.6419C82.8438 82.8318 83.0033 82.1692 83.1506 81.6415C83.2611 81.2487 83.3347 80.9173 83.3961 80.6718C82.2424 80.1073 81.0274 79.8251 79.7755 79.8251C77.9468 79.8251 76.4004 80.3895 75.1485 81.5186C73.8966 82.6478 73.2707 84.096 73.2707 85.8511C73.2707 87.3239 73.7248 88.5389 74.6207 89.4716H47.2516C47.3375 89.0912 47.3743 88.6126 47.3743 88.0235V83.6296H45.3492C44.981 83.6173 44.576 83.5807 43.9746 83.5439V84.2067C44.1833 84.2558 44.3305 84.2924 44.441 84.317C45.4474 84.5379 45.1406 84.6853 45.251 84.7343C45.251 84.7343 45.251 84.7466 45.2756 84.7589V88.134C45.2756 88.7232 45.2142 89.1648 45.1038 89.4716H16.7159L15.3781 89.4105C14.6662 89.4105 14.1999 88.9932 13.9912 88.4777C13.893 88.1954 13.8317 87.1276 13.8317 86.2931V76.9899C13.8562 76.8917 13.8808 76.7936 13.9176 76.7322C13.9912 76.5972 14.1017 76.499 14.2612 76.4377C14.4821 76.3517 13.9667 76.1677 15.2431 75.8977V75.1121C13.1812 75.2102 13.218 75.2595 12.8375 75.2595C12.2239 75.2595 11.4629 75.2102 9.73242 75.1121V75.8977C10.0393 75.9959 10.2725 76.0572 10.432 76.094C11.3157 76.2903 11.4139 76.4744 11.5857 76.6462C11.6225 76.683 11.647 76.7569 11.6716 76.8428V87.1521C11.6716 89.9381 12.7516 91.3372 14.924 91.3372H83.6906" fill="#6F7271"/>
<path d="M5.21596 80.77V81.5554C5.42461 81.6167 5.58415 81.666 5.68233 81.6905C5.8787 81.7396 6.02599 81.7885 6.13645 81.8253V89.6927C6.13645 91.9018 4.19729 92.9695 2.38086 92.9695V95.1787C5.73144 95.1787 8.32108 93.4482 8.32108 89.2998V80.8803H6.63964C6.25917 80.8557 5.84189 80.8314 5.21596 80.7823" fill="#6F7271"/>
<path d="M46.0749 92.2329C45.3508 92.2329 44.7617 92.8221 44.7617 93.5462C44.7617 94.2703 45.3508 94.8595 46.0749 94.8595C46.7991 94.8595 47.3882 94.2703 47.3882 93.5462C47.3882 92.8221 46.7991 92.2329 46.0749 92.2329Z" fill="#6F7271"/>
<path d="M2.93492 94.8226C2.86128 94.8349 2.81219 94.8595 2.76309 94.884C2.67718 94.9331 2.60354 95.0067 2.56672 95.1171C2.50535 95.2644 2.38261 94.9208 2.21078 95.7554H1.69531C1.75668 94.3931 1.7935 94.4175 1.7935 94.1721C1.7935 93.7671 1.75668 93.264 1.69531 92.1226H2.21078C2.27215 92.3189 2.32124 92.4783 2.34579 92.5765C2.46852 93.1534 2.59126 93.2271 2.71399 93.3376C2.73854 93.3621 2.78763 93.3867 2.849 93.399" fill="#6F7271"/>
<path d="M53.9655 17.1704L46.5156 28.8422L63.8576 65.2198L78.1191 65.1464L53.9777 17.1704H53.9655ZM47.9148 29.6033L54.4564 19.9564L75.9835 64.6799L65.3427 64.545L47.9148 29.6153V29.6033Z" fill="#797979"/>
<path d="M54.4679 19.9441L47.9141 29.5909L65.342 64.5204L75.9828 64.6675L54.4679 19.9441Z" fill="#B2B4B2"/>
</svg>
