<svg width="88" height="88" viewBox="0 0 88 88" fill="none" xmlns="http://www.w3.org/2000/svg">
<path d="M58.1499 87.3899C57.6499 87.1299 57.2399 86.6899 56.8999 85.6699C55.9299 82.7799 54.9299 79.9098 53.9199 77.0298C53.2099 74.9998 52.5001 72.9699 51.8101 70.9299C51.3701 69.6499 50.5099 69.0198 49.1699 69.0198C42.4199 69.0298 35.6797 69.0398 28.9497 69.0398H9.72998V70.5398C9.72998 70.9698 9.72998 71.3998 9.72998 71.8098C9.72998 72.7698 9.74971 73.6698 9.69971 74.5498C9.67971 74.9398 9.56992 75.3398 9.41992 75.5898C9.22992 75.9098 8.85994 76.1099 8.43994 76.1099C8.30994 76.1099 8.18006 76.0898 8.06006 76.0498C7.45006 75.8598 7.09008 75.3998 7.08008 74.7698C7.06008 73.8098 7.05982 72.8599 7.06982 71.8799V69.0398H5.56982C5.19982 69.0398 4.85 69.0398 4.5 69.0198C4.14 69.0198 3.78971 69.0098 3.44971 69.0098C2.98971 69.0098 2.53008 69.0198 2.08008 69.0598C1.96008 69.0698 1.83998 69.0798 1.72998 69.0798C0.88998 69.0798 0.39 68.7898 0 68.0698V67.45C0.33 66.67 0.82002 66.3699 1.77002 66.3699C1.85002 66.3699 1.93002 66.3699 2.02002 66.3699C2.48002 66.3999 2.9399 66.3999 3.3999 66.3999C3.7599 66.3999 4.11998 66.3999 4.47998 66.3899C4.82998 66.3899 5.17979 66.3799 5.52979 66.3799H7.02979V9.69995H5.52979C5.18979 9.69995 4.84977 9.69994 4.50977 9.68994C4.15977 9.68994 3.80973 9.67993 3.46973 9.67993C3.00973 9.67993 2.55986 9.68998 2.10986 9.72998C1.98986 9.73998 1.86977 9.75 1.75977 9.75C0.909766 9.75 0.41002 9.46 0.0200195 8.75V8.12988C0.35002 7.33988 0.849785 7.0498 1.77979 7.0498C1.85979 7.0498 1.94002 7.0498 2.02002 7.0498C2.47002 7.0698 2.93014 7.07983 3.39014 7.07983C3.75014 7.07983 4.10998 7.07982 4.47998 7.06982C4.83998 7.06982 5.20984 7.05981 5.58984 7.05981H7.08984V5.55981C7.08984 5.17981 7.08984 4.81996 7.08984 4.45996C7.09984 3.65996 7.10982 2.82 7.06982 2C6.99982 0.78 7.4199 0.3 8.1499 0H8.77979C9.58979 0.43 9.86002 1.01984 9.77002 2.08984C9.70002 2.92984 9.71998 3.73979 9.72998 4.52979C9.72998 4.85979 9.73975 5.17977 9.73975 5.50977V7.00977H66.4199V5.50977C66.4199 5.14977 66.4197 4.78994 66.4297 4.43994C66.4397 3.64994 66.4499 2.82978 66.3999 2.01978C66.3299 0.789775 66.7497 0.299766 67.4697 0.00976562H68.1001C68.8101 0.379766 69.1998 0.919932 69.0898 2.17993C69.0198 2.99993 69.0398 3.79981 69.0498 4.55981C69.0498 4.87981 69.0601 5.19 69.0601 5.5V6.70996L70.3599 7C70.4599 7.03 70.6201 7.06982 70.8301 7.06982H72.1899C72.9499 7.06982 73.7097 7.06983 74.4697 7.07983C74.8597 7.07983 76.1201 7.18992 76.1201 8.41992C76.1201 8.77992 76.0098 9.06979 75.7998 9.28979C75.5198 9.57979 75.05 9.72998 74.48 9.72998H69.0601V18.6799C69.0601 28.8699 69.0598 39.0698 69.0498 49.2598C69.0498 50.5198 69.6601 51.3698 70.8701 51.7898C72.9201 52.4898 74.96 53.1999 77 53.9099C79.89 54.9199 82.7899 55.9299 85.6899 56.9099C86.7199 57.2599 87.1602 57.6599 87.4102 58.1599V58.7798C87.1702 59.2798 86.7301 59.6898 85.6401 60.0498C82.2201 61.1598 78.8102 62.2999 75.4102 63.4399C72.9102 64.2699 70.4102 65.1099 67.9102 65.9299C66.8902 66.2699 66.2599 66.8999 65.9199 67.9199C65.1499 70.2599 64.3701 72.5899 63.5801 74.9299C62.3801 78.5299 61.17 82.13 60 85.73C59.67 86.75 59.2598 87.1799 58.7598 87.4099H58.1401L58.1499 87.3899ZM58.3799 81.8098C58.3799 81.8098 60.0901 76.9798 60.1401 76.8198L61.1401 73.8398C62.1001 70.9898 63.0597 68.1398 63.9897 65.2798C64.2297 64.5598 64.58 64.2 65.25 64C66.03 63.77 66.8098 63.5 67.5898 63.24L68.48 62.9399L81.9497 58.4299L45.8599 45.8699L58.3701 81.8298L58.3799 81.8098ZM35.5498 66.3499H50.1899L46.46 55.6299L38.3599 63.5898L12.8101 38.0898L38.3999 12.49L63.9297 38.0198L55.6602 46.4399L66.3501 50.1699V40.4399L66.3799 40.47V9.75H35.6602L35.6899 9.77979H9.75977V37.9099L10.04 38.0798L9.75977 38.3198V66.3098H35.6001L35.5698 66.3398L35.5498 66.3499ZM16.1899 38.0098L38.23 60.0398L40.3999 57.8699C41.7399 56.5399 43.1097 55.1698 44.4497 53.7698C45.0897 53.1098 45.1797 52.0198 44.9297 51.2798C44.1397 48.8898 43.3799 46.6998 42.6099 44.5798C42.2199 43.5098 42.5001 43.1198 42.8101 42.7998C43.0901 42.5198 43.3497 42.3999 43.6997 42.3999C43.9497 42.3999 44.2401 42.4598 44.5801 42.5798C46.9901 43.4498 49.3599 44.2499 51.3599 44.9199C51.6899 45.0299 52.01 45.0498 52.21 45.0498C52.82 45.0498 53.3497 44.86 53.7197 44.5C55.1597 43.11 56.5799 41.6898 57.9399 40.3298L60.0601 38.22L38.0098 16.1799L16.1899 38.0098Z" fill="#7D9CC0"/>
</svg>
