<svg width="20" height="27" viewBox="0 0 20 27" fill="none" xmlns="http://www.w3.org/2000/svg">
<path d="M10 0.00865357C4.48834 0.00865357 0 4.51003 0 10.0572C0 13.1586 1.58888 16.9161 4.72173 21.2315C7.01077 24.395 9.27282 26.6455 9.36258 26.743C9.53314 26.9202 9.76661 27 10 27C10.2334 27 10.4488 26.92 10.6193 26.7516C10.7181 26.663 12.9803 24.5013 15.2783 21.3821C18.4111 17.1287 20 13.3183 20 10.0485C20 4.51024 15.5117 0 10 0M10 14.3814C7.30701 14.3814 5.11665 12.2197 5.11665 9.56133C5.11665 6.90295 7.30701 4.73177 10 4.73177C12.693 4.73177 14.8832 6.89409 14.8832 9.56133C14.8832 12.2286 12.693 14.3814 10 14.3814Z" fill="white"/>
</svg>
