<svg width="75" height="75" viewBox="0 0 75 75" fill="none" xmlns="http://www.w3.org/2000/svg">
<path d="M73.6354 38.27L63.1154 32.1799L73.6354 26.0901C74.0154 25.8701 74.2555 25.46 74.2555 25.02C74.2555 24.58 74.0154 24.17 73.6354 23.95L50.1256 10.3401C49.7456 10.1201 49.2754 10.1201 48.8854 10.3401L46.4054 11.77C45.8054 12.09 45.5654 12.8299 45.8854 13.4399C46.2054 14.0499 46.9453 14.28 47.5553 13.96C47.5853 13.94 47.6156 13.9302 47.6456 13.9102L49.5055 12.8401L70.5353 25.02L60.6354 30.75L45.6954 22.1001L46.8053 20.52C47.1953 19.96 47.0557 19.19 46.4957 18.8C46.2857 18.65 46.0353 18.5801 45.7853 18.5801H42.0753C42.0653 8.33008 33.7657 0.0300195 23.5157 0.0200195H11.1456C10.4656 0.0200195 9.90539 0.57001 9.90539 1.26001C9.90539 1.95001 10.4556 2.5 11.1456 2.5H23.5157C32.3957 2.51 39.5853 9.71008 39.5953 18.5801V19.8201C39.5953 20.5001 40.1456 21.0601 40.8356 21.0601H43.4054L37.1154 30.04L30.8253 21.0601H33.3956C34.0756 21.0601 34.6354 20.5101 34.6354 19.8201V17.3501C34.6354 13.2501 31.3155 9.92993 27.2155 9.92993H21.0255C20.3455 9.92993 19.7853 10.4799 19.7853 11.1699C19.7853 11.8599 20.3355 12.4102 21.0255 12.4102H27.2155C29.9455 12.4102 32.1656 14.6301 32.1656 17.3601V18.6001H28.4557C27.7757 18.6001 27.2155 19.1501 27.2155 19.8401C27.2155 20.0901 27.2957 20.34 27.4357 20.55L28.5455 22.1301L13.6056 30.78L3.70569 25.05L19.4054 15.96C20.0154 15.64 20.2454 14.9 19.9254 14.29C19.6054 13.69 18.8655 13.45 18.2555 13.77C18.2255 13.79 18.1956 13.8001 18.1656 13.8201L0.615354 23.98C0.0253543 24.32 -0.174353 25.0799 0.165647 25.6699C0.275647 25.8599 0.425354 26.0101 0.615354 26.1201L11.1354 32.21L0.615354 38.3C0.0253543 38.64 -0.174353 39.4 0.165647 39.99C0.275647 40.18 0.425354 40.3299 0.615354 40.4399L12.3756 47.24V59.4199C12.3756 59.8599 12.6157 60.27 12.9957 60.49L36.5055 74.1001C36.5055 74.1001 36.5653 74.1201 36.5953 74.1401C36.6253 74.1501 36.6654 74.1699 36.6954 74.1799C36.9654 74.2899 37.2755 74.2899 37.5455 74.1799C37.5855 74.1699 37.6156 74.1501 37.6456 74.1401C37.6856 74.1201 37.7055 74.1201 37.7355 74.1001L61.2457 60.49C61.6257 60.27 61.8654 59.8599 61.8654 59.4199V47.24L73.6256 40.4399C74.2156 40.0999 74.4153 39.34 74.0753 38.75C73.9653 38.56 73.8156 38.41 73.6256 38.3M3.71545 39.3701L13.6154 33.6401L34.6456 45.8201L24.7457 51.55L3.70569 39.3701H3.71545ZM35.8854 70.8901L14.8453 58.71V48.6699L24.1256 54.04C24.5056 54.26 24.9754 54.26 25.3654 54.04L35.8854 47.95V70.8801V70.8901ZM37.1256 44.3801L16.0856 32.2L29.9855 24.1602L36.1056 32.9102C36.4956 33.4702 37.2653 33.61 37.8253 33.21C37.9453 33.13 38.0456 33.0202 38.1256 32.9102L44.2555 24.1602L58.1554 32.2L37.1154 44.3801H37.1256ZM59.3956 58.71L38.3556 70.8901V47.96L48.8756 54.05C49.2556 54.27 49.7254 54.27 50.1154 54.05L59.3956 48.6799V58.72V58.71ZM49.4957 51.55L39.5953 45.8201L60.6354 33.6401L70.5353 39.3701L49.5055 51.55H49.4957Z" fill="#7D9CC0"/>
</svg>
