<svg width="27" height="21" viewBox="0 0 27 21" fill="none" xmlns="http://www.w3.org/2000/svg">
<path d="M21.29 8.01953V2.38965C21.29 1.14965 20.28 0.149414 19.05 0.149414H2.24005C1.00005 0.149414 0 1.15965 0 2.38965V13.5898C0 14.8298 1.00005 15.8291 2.24005 15.8291H14.8C15.53 18.4091 17.91 20.3096 20.72 20.3096C21.8 20.3096 22.87 20.0193 23.8 19.4893C24.07 19.3393 24.16 18.9895 24 18.7295C23.85 18.4595 23.5001 18.3693 23.2401 18.5293C22.4801 18.9693 21.61 19.1992 20.72 19.1992C17.94 19.1992 15.6801 16.9392 15.6801 14.1592C15.6801 11.3792 17.94 9.11914 20.72 9.11914C23.5 9.11914 25.76 11.3792 25.76 14.1592V14.7197C25.76 15.3397 25.26 15.8398 24.64 15.8398C24.02 15.8398 23.52 15.3397 23.52 14.7197V12.4795C23.52 12.1695 23.27 11.9199 22.96 11.9199C22.81 11.9199 22.67 11.9791 22.57 12.0791C22.08 11.6391 21.43 11.3594 20.72 11.3594C19.17 11.3594 17.92 12.6092 17.92 14.1592C17.92 15.7092 19.18 16.96 20.72 16.96C21.55 16.96 22.3 16.59 22.81 16C23.22 16.58 23.88 16.96 24.64 16.96C25.87 16.96 26.88 15.9497 26.88 14.7197V14.1592C26.88 10.9492 24.41 8.3093 21.28 8.0293M2.23004 1.2793H19.04C19.04 1.2793 19.08 1.28906 19.11 1.28906L11.1 7.85938C10.82 8.03938 10.4 7.99965 10.22 7.88965L2.17004 1.28906C2.17004 1.28906 2.21005 1.2793 2.24005 1.2793M20.73 15.8496C19.8 15.8496 19.05 15.0999 19.05 14.1699C19.05 13.2399 19.8 12.4893 20.73 12.4893C21.66 12.4893 22.41 13.2399 22.41 14.1699C22.41 15.0999 21.66 15.8496 20.73 15.8496Z" fill="#7D9CC0"/>
</svg>
