<svg width="87" height="87" viewBox="0 0 87 87" fill="none" xmlns="http://www.w3.org/2000/svg">
<path d="M86.1001 43.0576C86.1001 42.4276 85.7499 41.8576 85.1899 41.5676L68.9702 33.1277L85.1899 24.6875C85.7499 24.3975 86.1001 23.8275 86.1001 23.1975C86.1001 22.5675 85.7499 21.9975 85.1899 21.7075L71.2202 14.4375C70.3902 14.0075 69.3802 14.3275 68.9502 15.1575C68.5202 15.9775 68.8399 16.9975 69.6699 17.4275L80.77 23.2075L43.0503 42.8376L5.32031 23.2075L43.0503 3.57764L56.2402 10.4475C57.0702 10.8775 58.0803 10.5575 58.5103 9.72754C58.9403 8.90754 58.6203 7.88752 57.8003 7.45752L43.8301 0.1875C43.3401 -0.0625 42.7603 -0.0625 42.2803 0.1875L0.910156 21.7175C0.350156 22.0075 0 22.5775 0 23.2075C0 23.8375 0.350156 24.4075 0.910156 24.6975L17.1299 33.1375L0.910156 41.5776C0.350156 41.8676 0 42.4376 0 43.0676C0 43.6976 0.350156 44.2676 0.910156 44.5576L17.1299 52.9976L0.910156 61.4375C0.350156 61.7275 0 62.2975 0 62.9275C0 63.5575 0.350156 64.1275 0.910156 64.4175L42.2803 85.9375C42.5203 86.0675 42.7901 86.1277 43.0601 86.1277C43.3301 86.1277 43.5903 86.0675 43.8403 85.9375L85.21 64.4175C85.77 64.1275 86.1201 63.5575 86.1201 62.9275C86.1201 62.2975 85.77 61.7275 85.21 61.4375L68.9902 52.9976L85.21 44.5576C85.77 44.2676 86.1201 43.6976 86.1201 43.0676M43.8501 46.2175L65.3501 35.0276L70.3599 37.6375L32.7002 57.2976L25.9902 53.8076L41.4399 45.7676L42.3003 46.2175C42.5403 46.3475 42.8101 46.4075 43.0801 46.4075C43.3501 46.4075 43.6099 46.3475 43.8599 46.2175M37.8003 43.8777L22.3501 51.9175L15.6699 48.4475L31.1201 40.4075L37.8003 43.8777ZM20.8003 35.0376L27.48 38.5076L12.0303 46.5476L5.3501 43.0776L20.8003 35.0376ZM80.8101 62.9375L43.0903 82.5676L5.35986 62.9375L20.8101 54.8975L42.3101 66.0876C42.5501 66.2176 42.8203 66.2776 43.0903 66.2776C43.3603 66.2776 43.6201 66.2176 43.8701 66.0876L65.3701 54.8975L80.8203 62.9375H80.8101ZM43.0903 62.6975L36.3599 59.1975L74.0303 39.5376L80.8203 43.0676L43.1001 62.6975H43.0903Z" fill="#7D9CC0"/>
</svg>
