<svg width="42" height="89" viewBox="0 0 42 89" fill="none" xmlns="http://www.w3.org/2000/svg">
<path d="M38.6099 0.0100098H2.96973C1.32973 0.0100098 0 1.33998 0 2.97998V21.99C0 23.45 1.09004 24.7099 2.54004 24.9199L3.77002 25.0999V56.8899C3.77002 59.8399 6.16986 62.23 9.10986 62.23H19.6001V71.6299C19.6001 72.2799 20.1298 72.8098 20.7798 72.8098C24.4298 72.8098 27.3999 75.7799 27.3999 79.4299C27.3999 83.0799 24.4298 86.0498 20.7798 86.0498C17.1298 86.0498 14.1602 83.0799 14.1602 79.4299C14.1602 78.7799 13.63 78.25 12.98 78.25C12.33 78.25 11.7998 78.7799 11.7998 79.4299C11.7998 84.3799 15.8298 88.4099 20.7798 88.4099C25.7298 88.4099 29.7598 84.3799 29.7598 79.4299C29.7598 75.3399 26.9898 71.76 23.0298 70.73L21.9497 70.45V62.22H32.4302C35.3802 62.22 37.77 59.8199 37.77 56.8799V25.0898L39 24.9099C40.45 24.6999 41.54 23.44 41.54 21.98V2.96997C41.54 1.32997 40.2098 0 38.5698 0M15.9102 58.4299H7.45996V49.52H15.9102V58.4299ZM15.9102 49.26H7.45996V40.3599H15.9102V49.26ZM15.9102 40.0898H7.45996V31.1899H15.9102V40.0898ZM7.45996 17.8298H34.04V28.5498H7.45996V17.8298ZM25.0698 58.4299H16.6299V49.52H25.0698V58.4299ZM25.0698 49.26H16.6299V40.3599H25.0698V49.26ZM25.0698 40.0898H16.6299V31.1899H25.0698V40.0898ZM34.2397 58.4199H25.79V49.51H34.2397V58.4199ZM34.2397 49.25H25.79V40.3499H34.2397V49.25ZM34.2397 40.0798H25.79V31.1799H34.2397V40.0798ZM39.6401 13.71L36.9697 14.47C35.9897 12.88 34.2899 11.9199 32.4199 11.9199H9.08984C7.21984 11.9199 5.52004 12.87 4.54004 14.47L1.87012 13.71V3.71997H39.6401V13.71Z" fill="#7D9CC0"/>
</svg>
